<svg xmlns="http://www.w3.org/2000/svg" xmlns:xlink="http://www.w3.org/1999/xlink" version="1.2" width="210.00mm" height="297.00mm" viewBox="0 0 132.7795 187.7882">
<style type="text/css">
<![CDATA[
tspan { white-space: pre; }
]]>
</style>
<!-- Page: 1/1 -->
<g color="rgb(49.8039%, 49.8039%, 49.8039%)">
<g transform="translate(16.0600, 9.9384)">
<line stroke-linejoin="round" stroke-linecap="round" stroke-width="0.1073" stroke="currentColor" x1="0.0537" y1="0" x2="45.1473" y2="0"/>
</g>
<g transform="translate(16.0600, 8.9384)">
<line stroke-linejoin="round" stroke-linecap="round" stroke-width="0.1073" stroke="currentColor" x1="0.0537" y1="0" x2="45.1473" y2="0"/>
</g>
<g transform="translate(16.0600, 7.9384)">
<line stroke-linejoin="round" stroke-linecap="round" stroke-width="0.1073" stroke="currentColor" x1="0.0537" y1="0" x2="45.1473" y2="0"/>
</g>
<g transform="translate(16.0600, 6.9384)">
<line stroke-linejoin="round" stroke-linecap="round" stroke-width="0.1073" stroke="currentColor" x1="0.0537" y1="0" x2="45.1473" y2="0"/>
</g>
<g transform="translate(16.0600, 5.9384)">
<line stroke-linejoin="round" stroke-linecap="round" stroke-width="0.1073" stroke="currentColor" x1="0.0537" y1="0" x2="45.1473" y2="0"/>
</g>
</g>
<g transform="translate(16.0600, 10.9384)">
<rect x="37.4889" y="-0.1037" width="1.8035" height="0.2073" ry="0.1037" fill="currentColor"/>
</g>
<g transform="translate(16.0600, 10.9384)">
<rect x="13.6501" y="-0.1037" width="1.9542" height="0.2073" ry="0.1037" fill="currentColor"/>
</g>
<g transform="translate(61.0570, 7.9384)">
<rect x="0.0000" y="-2.0537" width="0.2039" height="4.1073" ry="0.0000" fill="currentColor"/>
</g>
<g transform="translate(44.3211, 9.4384)">
<path transform="scale(0.0040, -0.0040)" d="M217 -311c0 -11 -8 -19 -19 -19s-20 8 -20 19v142l-81 -30v-156c0 -11 -9 -20 -20 -20s-19 9 -19 20v142l-28 -11c-3 -1 -5 -1 -8 -1c-12 0 -22 10 -22 23v57c0 9 6 18 15 21l43 16v157l-28 -10c-3 -1 -5 -1 -8 -1c-12 0 -22 9 -22 22v57c0 9 6 18 15 21l43 16v157
c0 11 8 19 19 19s20 -8 20 -19v-142l81 30v156c0 11 9 20 20 20s19 -9 19 -20v-142l28 11c3 1 5 1 8 1c12 0 22 -10 22 -23v-57c0 -9 -6 -18 -15 -21l-43 -16v-157l28 10c3 1 5 1 8 1c12 0 22 -9 22 -22v-57c0 -9 -6 -18 -15 -21l-43 -16v-157zM97 64v-158l81 30v158z" fill="currentColor"/>
</g>
<g transform="translate(48.1711, 8.4384)">
<path transform="scale(0.0040, -0.0040)" d="M215 137c57 0 111 -29 111 -92c0 -71 -54 -120 -101 -148c-35 -21 -74 -34 -114 -34c-57 0 -111 29 -111 92c0 71 54 120 101 148c35 21 74 34 114 34z" fill="currentColor"/>
</g>
<g transform="translate(49.4041, 7.9384)">
<rect x="-0.0697" y="-2.0000" width="0.1395" height="2.3206" ry="0.0444" fill="currentColor"/>
</g>
<g transform="translate(50.5711, 8.9384)">
<path transform="scale(0.0040, -0.0040)" d="M215 137c57 0 111 -29 111 -92c0 -71 -54 -120 -101 -148c-35 -21 -74 -34 -114 -34c-57 0 -111 29 -111 92c0 71 54 120 101 148c35 21 74 34 114 34z" fill="currentColor"/>
</g>
<g transform="translate(51.8041, 7.9384)">
<rect x="-0.0697" y="-2.0000" width="0.1395" height="2.8206" ry="0.0444" fill="currentColor"/>
</g>
<g transform="translate(47.0041, 7.9384)">
<rect x="-0.0697" y="-2.0000" width="0.1395" height="3.3206" ry="0.0444" fill="currentColor"/>
</g>
<g transform="translate(45.7711, 9.4384)">
<path transform="scale(0.0040, -0.0040)" d="M215 137c57 0 111 -29 111 -92c0 -71 -54 -120 -101 -148c-35 -21 -74 -34 -114 -34c-57 0 -111 29 -111 92c0 71 54 120 101 148c35 21 74 34 114 34z" fill="currentColor"/>
</g>
<g transform="translate(41.4683, 9.9384)">
<path transform="scale(0.0040, -0.0040)" d="M29 39l-2 -64v-11c0 -22 2 -43 5 -65c44 38 91 80 91 138c0 33 -13 66 -42 66c-31 0 -51 -31 -52 -64zM-28 454c9 5 18 8 28 8s19 -3 28 -8l-7 -343c25 23 58 36 92 36c51 0 87 -49 87 -103c0 -79 -84 -117 -144 -169c-16 -14 -25 -41 -47 -41c-14 0 -25 13 -25 27z" fill="currentColor"/>
</g>
<g transform="translate(43.8513, 7.9384)">
<rect x="-0.0697" y="-2.8037" width="0.1395" height="4.6243" ry="0.0444" fill="currentColor"/>
</g>
<g transform="translate(42.6183, 9.9384)">
<path transform="scale(0.0040, -0.0040)" d="M215 137c57 0 111 -29 111 -92c0 -71 -54 -120 -101 -148c-35 -21 -74 -34 -114 -34c-57 0 -111 29 -111 92c0 71 54 120 101 148c35 21 74 34 114 34z" fill="currentColor"/>
</g>
<g transform="translate(25.8167, 5.1348)">
<polygon stroke-linejoin="round" stroke-linecap="round" stroke-width="0.0889" fill="currentColor" stroke="currentColor" points="7.8775 -0.2056 7.8775 0.2056 0.0444 0.2056 0.0444 -0.2056"/>
</g>
<g transform="translate(25.8167, 5.9384)">
<polygon stroke-linejoin="round" stroke-linecap="round" stroke-width="0.0889" fill="currentColor" stroke="currentColor" points="7.8775 -0.2056 7.8775 0.2056 0.0444 0.2056 0.0444 -0.2056"/>
</g>
<g transform="translate(35.9991, 5.1348)">
<polygon stroke-linejoin="round" stroke-linecap="round" stroke-width="0.0889" fill="currentColor" stroke="currentColor" points="7.8775 -0.2056 7.8775 0.2056 0.0444 0.2056 0.0444 -0.2056"/>
</g>
<g transform="translate(35.9991, 5.9384)">
<polygon stroke-linejoin="round" stroke-linecap="round" stroke-width="0.0889" fill="currentColor" stroke="currentColor" points="7.8775 -0.2056 7.8775 0.2056 0.0444 0.2056 0.0444 -0.2056"/>
</g>
<g transform="translate(46.9344, 5.9384)">
<polygon stroke-linejoin="round" stroke-linecap="round" stroke-width="0.0889" fill="currentColor" stroke="currentColor" points="8.0479 -0.2056 8.0479 0.2056 0.0444 0.2056 0.0444 -0.2056"/>
</g>
<g transform="translate(46.9344, 6.7421)">
<polygon stroke-linejoin="round" stroke-linecap="round" stroke-width="0.0889" fill="currentColor" stroke="currentColor" points="8.0479 -0.2056 8.0479 0.2056 0.0444 0.2056 0.0444 -0.2056"/>
</g>
<g transform="translate(55.4267, 9.4384)">
<path transform="scale(0.0040, -0.0040)" d="M-8 375c8 5 17 7 26 7s18 -2 26 -7l-3 -187l104 21h4c10 0 18 -8 18 -18l7 -566c-8 -5 -16 -7 -25 -7s-18 2 -26 7l2 187l-103 -21h-4c-10 0 -18 8 -18 18zM130 111l-90 -18l-3 -204l90 18z" fill="currentColor"/>
</g>
<g transform="translate(57.6940, 7.9384)">
<rect x="-0.0697" y="-2.0000" width="0.1395" height="3.3206" ry="0.0444" fill="currentColor"/>
</g>
<g transform="translate(56.4609, 9.4384)">
<path transform="scale(0.0040, -0.0040)" d="M215 137c57 0 111 -29 111 -92c0 -71 -54 -120 -101 -148c-35 -21 -74 -34 -114 -34c-57 0 -111 29 -111 92c0 71 54 120 101 148c35 21 74 34 114 34z" fill="currentColor"/>
</g>
<g transform="translate(52.2739, 10.9384)">
<path transform="scale(0.0040, -0.0040)" d="M217 -311c0 -11 -8 -19 -19 -19s-20 8 -20 19v142l-81 -30v-156c0 -11 -9 -20 -20 -20s-19 9 -19 20v142l-28 -11c-3 -1 -5 -1 -8 -1c-12 0 -22 10 -22 23v57c0 9 6 18 15 21l43 16v157l-28 -10c-3 -1 -5 -1 -8 -1c-12 0 -22 9 -22 22v57c0 9 6 18 15 21l43 16v157
c0 11 8 19 19 19s20 -8 20 -19v-142l81 30v156c0 11 9 20 20 20s19 -9 19 -20v-142l28 11c3 1 5 1 8 1c12 0 22 -10 22 -23v-57c0 -9 -6 -18 -15 -21l-43 -16v-157l28 10c3 1 5 1 8 1c12 0 22 -9 22 -22v-57c0 -9 -6 -18 -15 -21l-43 -16v-157zM97 64v-158l81 30v158z" fill="currentColor"/>
</g>
<g transform="translate(54.9569, 7.9384)">
<rect x="-0.0697" y="-2.0000" width="0.1395" height="4.8206" ry="0.0444" fill="currentColor"/>
</g>
<g transform="translate(53.7239, 10.9384)">
<path transform="scale(0.0040, -0.0040)" d="M215 137c57 0 111 -29 111 -92c0 -71 -54 -120 -101 -148c-35 -21 -74 -34 -114 -34c-57 0 -111 29 -111 92c0 71 54 120 101 148c35 21 74 34 114 34z" fill="currentColor"/>
</g>
<g transform="translate(31.2689, 7.9384)">
<rect x="-0.0697" y="-2.8037" width="0.1395" height="5.6243" ry="0.0444" fill="currentColor"/>
</g>
<g transform="translate(40.8689, 7.9384)">
<rect x="-0.0697" y="-2.8037" width="0.1395" height="2.6243" ry="0.0444" fill="currentColor"/>
</g>
<g transform="translate(26.4858, 8.4384)">
<path transform="scale(0.0040, -0.0040)" d="M29 39l-2 -64v-11c0 -22 2 -43 5 -65c44 38 91 80 91 138c0 33 -13 66 -42 66c-31 0 -51 -31 -52 -64zM-28 454c9 5 18 8 28 8s19 -3 28 -8l-7 -343c25 23 58 36 92 36c51 0 87 -49 87 -103c0 -79 -84 -117 -144 -169c-16 -14 -25 -41 -47 -41c-14 0 -25 13 -25 27z" fill="currentColor"/>
</g>
<g transform="translate(28.8689, 7.9384)">
<rect x="-0.0697" y="-2.8037" width="0.1395" height="3.1243" ry="0.0444" fill="currentColor"/>
</g>
<g transform="translate(27.6358, 8.4384)">
<path transform="scale(0.0040, -0.0040)" d="M215 137c57 0 111 -29 111 -92c0 -71 -54 -120 -101 -148c-35 -21 -74 -34 -114 -34c-57 0 -111 29 -111 92c0 71 54 120 101 148c35 21 74 34 114 34z" fill="currentColor"/>
</g>
<g transform="translate(30.0358, 10.9384)">
<path transform="scale(0.0040, -0.0040)" d="M215 137c57 0 111 -29 111 -92c0 -71 -54 -120 -101 -148c-35 -21 -74 -34 -114 -34c-57 0 -111 29 -111 92c0 71 54 120 101 148c35 21 74 34 114 34z" fill="currentColor"/>
</g>
<g transform="translate(25.8864, 7.9384)">
<rect x="-0.0697" y="-2.8037" width="0.1395" height="3.1243" ry="0.0444" fill="currentColor"/>
</g>
<g transform="translate(21.0600, 7.9384)">
<path transform="scale(0.0040, -0.0040)" d="M194 120h120c0 -49 29 -95 75 -95c8 0 12 -7 12 -13s-4 -12 -12 -12c-45 0 -90 13 -135 13s-90 -13 -135 -13c-8 0 -12 6 -12 12s4 13 12 13c46 0 75 46 75 95zM203 301c22 15 45 30 61 51c12 15 19 34 27 51c2 4 5 6 9 6c6 0 14 -6 14 -15v-238h74c10 0 16 -8 16 -16
s-6 -15 -16 -15h-74v-5h-120v5h-163c-24 0 -33 15 -33 24c0 3 1 6 2 7c80 92 134 205 134 327c0 11 8 20 17 17c24 -7 48 -13 73 -13s48 6 72 13c2 1 4 1 6 1c9 0 14 -7 14 -13c0 -2 0 -3 -2 -5l-283 -327h163v122c0 9 2 18 9 23z" fill="currentColor"/>
</g>
<g transform="translate(21.0600, 9.9504)">
<path transform="scale(0.0040, -0.0040)" d="M194 120h120c0 -49 29 -95 75 -95c8 0 12 -7 12 -13s-4 -12 -12 -12c-45 0 -90 13 -135 13s-90 -13 -135 -13c-8 0 -12 6 -12 12s4 13 12 13c46 0 75 46 75 95zM203 301c22 15 45 30 61 51c12 15 19 34 27 51c2 4 5 6 9 6c6 0 14 -6 14 -15v-238h74c10 0 16 -8 16 -16
s-6 -15 -16 -15h-74v-5h-120v5h-163c-24 0 -33 15 -33 24c0 3 1 6 2 7c80 92 134 205 134 327c0 11 8 20 17 17c24 -7 48 -13 73 -13s48 6 72 13c2 1 4 1 6 1c9 0 14 -7 14 -13c0 -2 0 -3 -2 -5l-283 -327h163v122c0 9 2 18 9 23z" fill="currentColor"/>
</g>
<g transform="translate(16.8600, 8.9384)">
<path transform="scale(0.0040, -0.0040)" d="M378 263c4 0 7 1 11 1c156 0 257 -129 257 -262c0 -76 -34 -154 -108 -210c-22 -17 -46 -29 -72 -37c3 -34 5 -68 5 -102c0 -20 -1 -40 -2 -60c-7 -121 -90 -228 -209 -228c-108 0 -196 87 -196 196c0 58 53 104 112 104c54 0 95 -48 95 -104c0 -52 -43 -95 -95 -95
c-10 0 -20 2 -29 6c26 -38 68 -63 116 -63h3c93 2 153 92 159 190c1 19 2 37 2 56c0 30 -2 60 -4 90c-29 -5 -58 -8 -88 -8c-188 0 -333 173 -333 375c0 177 130 307 246 442c-20 62 -38 125 -46 190c-6 52 -7 104 -7 157c0 115 55 223 148 290c7 5 16 4 22 -1
c71 -83 134 -244 134 -357c0 -143 -85 -255 -178 -364c21 -68 40 -137 57 -206zM462 -202c67 24 111 94 111 162c0 89 -65 178 -170 190c24 -115 46 -230 59 -352zM75 26c0 -134 129 -245 263 -245c28 0 55 2 81 6c-14 126 -36 244 -61 363c-79 -8 -124 -61 -124 -119
c0 -43 25 -89 80 -121c5 -5 7 -11 7 -16c0 -12 -10 -23 -22 -23c-3 0 -6 1 -9 2c-81 43 -118 116 -118 186c0 89 58 175 161 198c-14 58 -29 116 -46 173c-106 -122 -212 -244 -212 -404zM406 1042c-99 -47 -162 -148 -162 -257c0 -73 20 -132 38 -191
c79 97 144 199 144 324c0 53 -4 76 -20 124z" fill="currentColor"/>
</g>
<g transform="translate(24.6534, 8.4384)">
<path transform="scale(0.0040, -0.0040)" d="M215 137c57 0 111 -29 111 -92c0 -71 -54 -120 -101 -148c-35 -21 -74 -34 -114 -34c-57 0 -111 29 -111 92c0 71 54 120 101 148c35 21 74 34 114 34z" fill="currentColor"/>
</g>
<g transform="translate(36.0689, 7.9384)">
<rect x="-0.0697" y="-2.8037" width="0.1395" height="3.6243" ry="0.0444" fill="currentColor"/>
</g>
<g transform="translate(39.6358, 7.9384)">
<path transform="scale(0.0040, -0.0040)" d="M215 137c57 0 111 -29 111 -92c0 -71 -54 -120 -101 -148c-35 -21 -74 -34 -114 -34c-57 0 -111 29 -111 92c0 71 54 120 101 148c35 21 74 34 114 34z" fill="currentColor"/>
</g>
<g transform="translate(38.4689, 7.9384)">
<rect x="-0.0697" y="-2.8037" width="0.1395" height="4.6243" ry="0.0444" fill="currentColor"/>
</g>
<g transform="translate(37.2358, 9.9384)">
<path transform="scale(0.0040, -0.0040)" d="M215 137c57 0 111 -29 111 -92c0 -71 -54 -120 -101 -148c-35 -21 -74 -34 -114 -34c-57 0 -111 29 -111 92c0 71 54 120 101 148c35 21 74 34 114 34z" fill="currentColor"/>
</g>
<g transform="translate(34.8358, 8.9384)">
<path transform="scale(0.0040, -0.0040)" d="M215 137c57 0 111 -29 111 -92c0 -71 -54 -120 -101 -148c-35 -21 -74 -34 -114 -34c-57 0 -111 29 -111 92c0 71 54 120 101 148c35 21 74 34 114 34z" fill="currentColor"/>
</g>
<g transform="translate(33.6689, 7.9384)">
<rect x="-0.0697" y="-2.8037" width="0.1395" height="3.1243" ry="0.0444" fill="currentColor"/>
</g>
<g transform="translate(32.4358, 8.4384)">
<path transform="scale(0.0040, -0.0040)" d="M215 137c57 0 111 -29 111 -92c0 -71 -54 -120 -101 -148c-35 -21 -74 -34 -114 -34c-57 0 -111 29 -111 92c0 71 54 120 101 148c35 21 74 34 114 34z" fill="currentColor"/>
</g>
</svg>
