<svg xmlns="http://www.w3.org/2000/svg" xmlns:xlink="http://www.w3.org/1999/xlink" version="1.2" width="210.00mm" height="297.00mm" viewBox="0 0 132.7795 187.7882">
<style type="text/css">
<![CDATA[
tspan { white-space: pre; }
]]>
</style>
<!-- Page: 1/1 -->
<g color="rgb(49.8039%, 49.8039%, 49.8039%)">
<g transform="translate(16.0600, 11.8655)">
<line stroke-linejoin="round" stroke-linecap="round" stroke-width="0.1073" stroke="currentColor" x1="0.0537" y1="0" x2="88.1317" y2="0"/>
</g>
<g transform="translate(16.0600, 10.8655)">
<line stroke-linejoin="round" stroke-linecap="round" stroke-width="0.1073" stroke="currentColor" x1="0.0537" y1="0" x2="88.1317" y2="0"/>
</g>
<g transform="translate(16.0600, 9.8655)">
<line stroke-linejoin="round" stroke-linecap="round" stroke-width="0.1073" stroke="currentColor" x1="0.0537" y1="0" x2="88.1317" y2="0"/>
</g>
<g transform="translate(16.0600, 8.8655)">
<line stroke-linejoin="round" stroke-linecap="round" stroke-width="0.1073" stroke="currentColor" x1="0.0537" y1="0" x2="88.1317" y2="0"/>
</g>
<g transform="translate(16.0600, 7.8655)">
<line stroke-linejoin="round" stroke-linecap="round" stroke-width="0.1073" stroke="currentColor" x1="0.0537" y1="0" x2="88.1317" y2="0"/>
</g>
</g>
<g transform="translate(16.0600, 12.8655)">
<rect x="46.3452" y="-0.1037" width="2.0049" height="0.2073" ry="0.1037" fill="currentColor"/>
</g>
<g transform="translate(16.0600, 12.8655)">
<rect x="9.1684" y="-0.1037" width="1.8035" height="0.2073" ry="0.1037" fill="currentColor"/>
</g>
<g transform="translate(46.3327, 9.8655)">
<rect x="0.0000" y="-2.0537" width="0.2039" height="4.1073" ry="0.0000" fill="currentColor"/>
</g>
<g transform="translate(87.5395, 9.8655)">
<rect x="0.0000" y="-2.0537" width="0.2039" height="4.1073" ry="0.0000" fill="currentColor"/>
</g>
<g transform="translate(67.3529, 9.8655)">
<rect x="0.0000" y="-2.0537" width="0.2039" height="4.1073" ry="0.0000" fill="currentColor"/>
</g>
<g transform="translate(75.1731, 14.1812)">
<g>
<path transform="scale(0.0040, -0.0040)" d="M-44 146c26 76 84 153 152 153c22 0 36 -19 41 -43c23 25 53 43 82 43c23 0 37 -19 43 -44c22 26 51 44 80 44c33 0 59 -35 59 -69c0 -5 -1 -10 -2 -15l-35 -149c0 -2 -1 -4 -1 -5c0 -5 2 -8 7 -8c9 0 27 11 48 31c5 5 10 6 14 6c6 0 12 -4 12 -10c0 -4 -2 -8 -7 -13
c-40 -38 -87 -74 -133 -74c-20 0 -32 13 -32 32c0 4 0 7 1 11l39 165c1 5 2 9 2 14c0 10 -4 18 -14 18c-16 0 -33 -17 -39 -33l-52 -181c-3 -10 -15 -19 -25 -19h-38c-11 0 -17 8 -14 19l52 182c2 6 3 11 3 16c0 9 -4 16 -13 16c-16 0 -35 -16 -41 -33l-62 -181
c-4 -11 -15 -19 -26 -19h-38c-11 0 -16 8 -12 19l62 182c2 5 2 10 2 15c0 10 -3 17 -13 17c-29 0 -54 -53 -66 -87c-4 -12 -15 -18 -24 -18c-7 0 -13 3 -13 11c0 2 0 5 1 7z" fill="currentColor"/>

<path transform="translate(1.7451, 0.0000) scale(0.0040, -0.0040)" d="M233 243c-56 0 -102 -108 -102 -174c0 -22 8 -38 30 -38c63 0 97 127 97 179c0 18 -7 33 -25 33zM111 -146c-37 0 -76 5 -114 5s-79 -5 -115 -5c-9 0 -14 8 -14 15c0 19 30 16 48 17c23 1 47 7 54 27l101 296c2 7 5 14 5 20c0 8 -3 14 -11 14c-33 0 -61 -60 -77 -97
c-5 -13 -17 -19 -26 -19c-8 0 -15 5 -15 13c0 3 1 7 2 10c30 68 73 142 133 142c35 0 58 -22 65 -52c29 31 67 52 103 52c69 0 107 -49 107 -114c0 -21 -4 -44 -12 -67c-20 -58 -91 -120 -147 -120c-27 0 -52 6 -73 18c-10 6 -24 3 -27 -6l-27 -80c-1 -3 -2 -6 -2 -9
c0 -21 20 -28 43 -30c9 -1 13 -8 13 -15s-5 -15 -14 -15z" fill="currentColor"/>
</g>
</g>
<g transform="translate(75.8431, 10.8655)">
<path transform="scale(0.0057, -0.0057)" d="M222 135c53 0 104 -27 104 -86c0 -71 -56 -120 -103 -148c-36 -22 -76 -36 -118 -36c-53 0 -105 27 -105 86c0 71 57 120 104 148c36 22 76 36 118 36z" fill="currentColor"/>
</g>
<g transform="translate(73.5128, 6.9099)">
<path transform="scale(0.0040, -0.0040)" d="M0 -213c0 -116 88 -204 149 -301c5 14 8 30 8 45c0 95 -89 189 -157 256zM0 0c0 -177 201 -292 201 -469c0 -33 -9 -65 -23 -95c18 -36 29 -75 29 -117c0 -63 -15 -126 -41 -183c-5 -8 -13 -12 -21 -12c-14 0 -27 11 -24 28c26 52 42 109 42 167c0 96 -93 189 -163 256
v-75h-18v500h18z" fill="currentColor"/>
</g>
<g transform="translate(73.4431, 9.8655)">
<rect x="-0.0697" y="-3.0000" width="0.1395" height="3.5000" ry="0.0444" fill="currentColor"/>
</g>
<g transform="translate(73.4431, 11.3655)">
<path transform="scale(0.0040, -0.0040)" d="M111 0c10 0 17 -10 13 -19l-112 -248c-2 -5 -7 -8 -12 -8s-10 3 -12 8l-112 248c-4 9 3 19 13 19h66c5 0 10 -3 12 -8l66 -146l66 146c2 5 7 8 12 8z" fill="currentColor"/>
</g>
<g color="rgb(100.0000%, 100.0000%, 100.0000%)">
<g transform="translate(65.1918, 18.3187)">
<rect x="0.0000" y="-1.6715" width="16.5026" height="2.1291" ry="0.0000" fill="currentColor"/>
</g>
</g>
<g transform="translate(65.1918, 18.3187)">
<text font-family="serif" font-style="italic" font-size="2.2000" text-anchor="start" fill="currentColor">
<tspan>appena udibile</tspan>
</text>
</g>
<g transform="translate(76.7664, 12.3655)">
<path transform="scale(0.0040, -0.0040)" d="M-50 0c0 28 22 50 50 50s50 -22 50 -50s-22 -50 -50 -50s-50 22 -50 50z" fill="currentColor"/>
</g>
<g transform="translate(77.6200, 9.8655)">
<rect x="-0.0697" y="-2.5000" width="0.1395" height="3.2218" ry="0.0444" fill="currentColor"/>
</g>
<g transform="translate(80.6431, 8.8655)">
<path transform="scale(0.0036, -0.0036)" d="M91 50c-2 -2 -3 -5 -3 -8s1 -6 3 -8l99 -112c2 -3 6 -5 10 -5s7 2 9 5l25 28c2 2 3 5 3 8s-1 6 -3 8l-99 112c-2 3 -6 5 -10 5s-7 -2 -9 -5zM0 0c0 3 1 6 3 8c55 52 105 108 150 169c2 3 5 5 9 5s8 -2 10 -5c45 -61 95 -117 150 -169c2 -2 3 -5 3 -8s-1 -6 -3 -8
c-55 -52 -105 -108 -150 -169c-2 -3 -6 -5 -10 -5s-7 2 -9 5c-45 61 -95 117 -150 169c-2 2 -3 5 -3 8z" fill="currentColor"/>
</g>
<g color="rgb(100.0000%, 100.0000%, 100.0000%)">
<g transform="translate(77.7320, 20.8588)">
<rect x="0.0000" y="-1.6188" width="6.9804" height="1.6500" ry="0.0000" fill="currentColor"/>
</g>
</g>
<g transform="translate(77.7320, 20.8588)">
<text font-family="serif" font-style="italic" font-size="2.2000" text-anchor="start" fill="currentColor">
<tspan>niente</tspan>
</text>
</g>
<g transform="translate(81.2222, 7.1158)">
<path transform="scale(0.0040, -0.0040)" d="M-210 86c-9 2 -15 10 -15 19c0 12 12 23 25 19l405 -104c14 0 20 -6 20 -20s-6 -20 -20 -20l-405 -104c-13 -4 -25 7 -25 19c0 9 6 17 15 19l248 64l140 22l-140 22z" fill="currentColor"/>
</g>
<g transform="translate(80.7128, 9.8655)">
<rect x="-0.0697" y="-1.0000" width="0.1395" height="3.5000" ry="0.0444" fill="currentColor"/>
</g>
<g transform="translate(80.7826, 12.3210)">
<path transform="scale(0.0040, -0.0040)" d="M0 0h-18v250h18v-250zM0 0v250c96 59 222 149 222 259c0 57 -15 111 -40 162c-3 17 10 29 24 29c8 0 16 -5 21 -13c25 -56 40 -116 40 -178c0 -203 -267 -306 -267 -509z" fill="currentColor"/>
</g>
<g transform="translate(65.1029, 11.3655)">
<path transform="scale(0.0057, -0.0057)" d="M83 52c-1 -1 -2 -3 -2 -5s1 -4 2 -5l117 -128c2 -2 3 -2 5 -2s4 0 6 2l31 34c1 1 2 3 2 5s-1 4 -2 5l-117 128c-2 2 -3 2 -5 2s-4 0 -6 -2zM0 0c0 2 1 4 2 5c56 52 108 108 155 169c1 2 3 3 5 3s5 -1 6 -3c47 -61 99 -117 155 -169c1 -1 2 -3 2 -5s-1 -4 -2 -5
c-56 -52 -108 -108 -155 -169c-1 -2 -4 -3 -6 -3s-4 1 -5 3c-47 61 -99 117 -155 169c-1 1 -2 3 -2 5z" fill="currentColor"/>
</g>
<g transform="translate(62.5802, 12.8655)">
<path transform="scale(0.0045, -0.0045)" d="M218 136c55 0 108 -28 108 -89c0 -71 -55 -121 -102 -149c-35 -21 -75 -34 -116 -34c-55 0 -108 28 -108 89c0 71 55 121 102 149c35 21 75 34 116 34z" fill="currentColor"/>
</g>
<g transform="translate(62.5802, 5.8343)">
<text font-family="serif" font-style="italic" font-size="2.2000" text-anchor="start" fill="currentColor">
<tspan>Perdendosi</tspan>
</text>
</g>
<g transform="translate(63.3121, 13.8772)">
<path transform="scale(0.0040, -0.0040)" d="M-50 0c0 28 22 50 50 50s50 -22 50 -50s-22 -50 -50 -50s-50 22 -50 50z" fill="currentColor"/>
</g>
<g transform="translate(63.9744, 9.8655)">
<rect x="-0.0697" y="-0.5000" width="0.1395" height="3.2911" ry="0.0444" fill="currentColor"/>
</g>
<g transform="translate(64.0441, 9.4099)">
<path transform="scale(0.0040, -0.0040)" d="M0 -213c0 -116 88 -204 149 -301c5 14 8 30 8 45c0 95 -89 189 -157 256zM0 0c0 -177 201 -292 201 -469c0 -33 -9 -65 -23 -95c18 -36 29 -75 29 -117c0 -63 -15 -126 -41 -183c-5 -8 -13 -12 -21 -12c-14 0 -27 11 -24 28c26 52 42 109 42 167c0 96 -93 189 -163 256
v-75h-18v500h18z" fill="currentColor"/>
</g>
<g transform="translate(61.1302, 12.8655)">
<path transform="scale(0.0040, -0.0040)" d="M217 -311c0 -11 -8 -19 -19 -19s-20 8 -20 19v142l-81 -30v-156c0 -11 -9 -20 -20 -20s-19 9 -19 20v142l-28 -11c-3 -1 -5 -1 -8 -1c-12 0 -22 10 -22 23v57c0 9 6 18 15 21l43 16v157l-28 -10c-3 -1 -5 -1 -8 -1c-12 0 -22 9 -22 22v57c0 9 6 18 15 21l43 16v157
c0 11 8 19 19 19s20 -8 20 -19v-142l81 30v156c0 11 9 20 20 20s19 -9 19 -20v-142l28 11c3 1 5 1 8 1c12 0 22 -10 22 -23v-57c0 -9 -6 -18 -15 -21l-43 -16v-157l28 10c3 1 5 1 8 1c12 0 22 -9 22 -22v-57c0 -9 -6 -18 -15 -21l-43 -16v-157zM97 64v-158l81 30v158z" fill="currentColor"/>
</g>
<g color="rgb(100.0000%, 100.0000%, 100.0000%)">
<g transform="translate(62.5319, 16.1560)">
<rect x="0.0000" y="-1.6188" width="6.9804" height="1.6500" ry="0.0000" fill="currentColor"/>
</g>
</g>
<g transform="translate(62.5319, 16.1560)">
<text font-family="serif" font-style="italic" font-size="2.2000" text-anchor="start" fill="currentColor">
<tspan>niente</tspan>
</text>
</g>
<g transform="translate(66.0221, 13.0602)">
<path transform="scale(0.0040, -0.0040)" d="M-210 86c-9 2 -15 10 -15 19c0 12 12 23 25 19l405 -104c14 0 20 -6 20 -20s-6 -20 -20 -20l-405 -104c-13 -4 -25 7 -25 19c0 9 6 17 15 19l248 64l140 22l-140 22z" fill="currentColor"/>
</g>
<g transform="translate(66.8716, 9.8655)">
<rect x="-0.0697" y="-2.0000" width="0.1395" height="3.5000" ry="0.0444" fill="currentColor"/>
</g>
<g transform="translate(98.2784, 9.8655)">
<rect x="-0.0697" y="-2.5000" width="0.1395" height="3.3206" ry="0.0444" fill="currentColor"/>
</g>
<g transform="translate(98.3482, 7.4099)">
<path transform="scale(0.0040, -0.0040)" d="M0 -213c0 -116 88 -204 149 -301c5 14 8 30 8 45c0 95 -89 189 -157 256zM0 0c0 -177 201 -292 201 -469c0 -33 -9 -65 -23 -95c18 -36 29 -75 29 -117c0 -63 -15 -126 -41 -183c-5 -8 -13 -12 -21 -12c-14 0 -27 11 -24 28c26 52 42 109 42 167c0 96 -93 189 -163 256
v-75h-18v500h18z" fill="currentColor"/>
</g>
<g transform="translate(99.4454, 11.3655)">
<path transform="scale(0.0028, -0.0028)" d="M96 49c-3 -3 -4 -7 -4 -11s1 -7 4 -10l88 -101c3 -3 7 -6 12 -6s9 3 12 6l21 24c3 3 4 7 4 11s-1 7 -4 10l-88 101c-3 3 -7 6 -12 6s-9 -3 -12 -6zM0 0c0 4 1 7 4 10c54 52 103 109 147 170c3 4 7 5 12 5s8 -1 11 -5c44 -61 93 -118 147 -170c3 -3 4 -6 4 -10
s-1 -7 -4 -10c-54 -52 -103 -109 -147 -170c-3 -4 -6 -5 -11 -5s-9 1 -12 5c-44 61 -93 118 -147 170c-3 3 -4 6 -4 10z" fill="currentColor"/>
</g>
<g transform="translate(99.9050, 12.6151)">
<path transform="scale(0.0040, -0.0040)" d="M-210 86c-9 2 -15 10 -15 19c0 12 12 23 25 19l405 -104c14 0 20 -6 20 -20s-6 -20 -20 -20l-405 -104c-13 -4 -25 7 -25 19c0 9 6 17 15 19l248 64l140 22l-140 22z" fill="currentColor"/>
</g>
<g transform="translate(100.2949, 9.8655)">
<rect x="-0.0697" y="-2.0000" width="0.1395" height="3.5000" ry="0.0444" fill="currentColor"/>
</g>
<g transform="translate(92.2454, 9.8655)">
<path stroke-width="0.0858" stroke-linejoin="round" stroke-linecap="round" stroke="currentColor" fill="currentColor" d="M1.3589 1.2143C2.0455 1.9394 3.9134 1.9394 4.6000 1.2143L4.6000 1.2143C3.9134 1.8106 2.0455 1.8106 1.3589 1.2143z"/>
</g>
<g transform="translate(97.0454, 10.8655)">
<path transform="scale(0.0040, -0.0040)" d="M215 137c57 0 111 -29 111 -92c0 -71 -54 -120 -101 -148c-35 -21 -74 -34 -114 -34c-57 0 -111 29 -111 92c0 71 54 120 101 148c35 21 74 34 114 34z" fill="currentColor"/>
</g>
<g transform="translate(48.7563, 6.8655)">
<polygon stroke-linejoin="round" stroke-linecap="round" stroke-width="0.0889" fill="currentColor" stroke="currentColor" points="6.0998 -0.7056 6.0998 -0.2944 0.0444 0.2056 0.0444 -0.2056"/>
</g>
<g transform="translate(50.9669, 7.4892)">
<polygon stroke-linejoin="round" stroke-linecap="round" stroke-width="0.0889" fill="currentColor" stroke="currentColor" points="3.8892 -0.5257 3.8892 -0.1146 0.0444 0.2056 0.0444 -0.2056"/>
</g>
<g transform="translate(34.3327, 9.8655)">
<path stroke-width="0.0858" stroke-linejoin="round" stroke-linecap="round" stroke="currentColor" fill="currentColor" d="M0.2000 1.2055C1.0979 2.0396 4.3535 2.0396 5.2514 1.2055L5.2514 1.2055C4.3535 1.9108 1.0979 1.9108 0.2000 1.2055z"/>
</g>
<g transform="translate(84.2431, 12.3655)">
<path transform="scale(0.0040, -0.0040)" d="M111 0c10 0 17 -10 13 -19l-112 -248c-2 -5 -7 -8 -12 -8s-10 3 -12 8l-112 248c-4 9 3 19 13 19h66c5 0 10 -3 12 -8l66 -146l66 146c2 5 7 8 12 8z" fill="currentColor"/>
</g>
<g transform="translate(85.5810, 11.3655)">
<path transform="scale(0.0040, -0.0040)" d="M0 0c0 31 25 56 56 56s55 -25 55 -56s-24 -56 -55 -56s-56 25 -56 56z" fill="currentColor"/>
</g>
<g transform="translate(84.6891, 11.3655)">
<path transform="scale(0.0040, -0.0040)" d="M0 0c0 31 25 56 56 56s55 -25 55 -56s-24 -56 -55 -56s-56 25 -56 56z" fill="currentColor"/>
</g>
<g transform="translate(84.2431, 9.8655)">
<rect x="-0.0697" y="-1.5000" width="0.1395" height="3.5000" ry="0.0444" fill="currentColor"/>
</g>
<g transform="translate(83.0233, 11.8655)">
<path transform="scale(0.0040, -0.0040)" d="M29 39l-2 -64v-11c0 -22 2 -43 5 -65c44 38 91 80 91 138c0 33 -13 66 -42 66c-31 0 -51 -31 -52 -64zM-28 454c9 5 18 8 28 8s19 -3 28 -8l-7 -343c25 23 58 36 92 36c51 0 87 -49 87 -103c0 -79 -84 -117 -144 -169c-16 -14 -25 -41 -47 -41c-14 0 -25 13 -25 27z" fill="currentColor"/>
</g>
<g transform="translate(82.7256, 15.1016)">
<g>
<path transform="scale(0.0040, -0.0040)" d="M-44 146c26 76 84 153 152 153c22 0 36 -19 41 -43c23 25 53 43 82 43c23 0 37 -19 43 -44c22 26 51 44 80 44c33 0 59 -35 59 -69c0 -5 -1 -10 -2 -15l-35 -149c0 -2 -1 -4 -1 -5c0 -5 2 -8 7 -8c9 0 27 11 48 31c5 5 10 6 14 6c6 0 12 -4 12 -10c0 -4 -2 -8 -7 -13
c-40 -38 -87 -74 -133 -74c-20 0 -32 13 -32 32c0 4 0 7 1 11l39 165c1 5 2 9 2 14c0 10 -4 18 -14 18c-16 0 -33 -17 -39 -33l-52 -181c-3 -10 -15 -19 -25 -19h-38c-11 0 -17 8 -14 19l52 182c2 6 3 11 3 16c0 9 -4 16 -13 16c-16 0 -35 -16 -41 -33l-62 -181
c-4 -11 -15 -19 -26 -19h-38c-11 0 -16 8 -12 19l62 182c2 5 2 10 2 15c0 10 -3 17 -13 17c-29 0 -54 -53 -66 -87c-4 -12 -15 -18 -24 -18c-7 0 -13 3 -13 11c0 2 0 5 1 7z" fill="currentColor"/>

<path transform="translate(1.7451, 0.0000) scale(0.0040, -0.0040)" d="M252 241l-49 -161c-30 -99 -121 -256 -218 -256c-46 0 -87 30 -87 73c0 39 17 77 52 77c24 0 44 -20 44 -44c0 -30 -38 -24 -38 -54c0 -10 11 -11 23 -11h6c47 0 61 56 73 105l68 271h-47c-11 0 -21 10 -21 21s10 21 21 21h58c32 95 119 189 213 189c46 0 87 -29 87 -72
c0 -39 -17 -78 -52 -78c-24 0 -44 20 -44 44c0 30 38 25 38 55c0 10 -10 10 -22 10h-7c-60 0 -70 -84 -86 -148h53c11 0 21 -10 21 -21s-10 -21 -21 -21h-65z" fill="currentColor"/>
</g>
</g>
<g transform="translate(92.2454, 10.8655)">
<path transform="scale(0.0036, -0.0036)" d="M212 138c59 0 113 -31 113 -95c0 -71 -52 -120 -99 -148c-34 -21 -73 -33 -113 -33c-59 0 -113 31 -113 95c0 71 53 120 100 148c34 21 72 33 112 33z" fill="currentColor"/>
</g>
<g color="rgb(100.0000%, 100.0000%, 100.0000%)">
<g transform="translate(89.3346, 14.6443)">
<rect x="0.0000" y="-1.6188" width="6.9804" height="1.6500" ry="0.0000" fill="currentColor"/>
</g>
</g>
<g transform="translate(89.3346, 14.6443)">
<text font-family="serif" font-style="italic" font-size="2.2000" text-anchor="start" fill="currentColor">
<tspan>niente</tspan>
</text>
</g>
<g transform="translate(92.8248, 12.3655)">
<path transform="scale(0.0040, -0.0040)" d="M-50 0c0 28 22 50 50 50s50 -22 50 -50s-22 -50 -50 -50s-50 22 -50 50z" fill="currentColor"/>
</g>
<g transform="translate(93.3345, 9.8655)">
<rect x="-0.0697" y="-2.5000" width="0.1395" height="3.3474" ry="0.0444" fill="currentColor"/>
</g>
<g transform="translate(31.7548, 9.8655)">
<rect x="-0.0697" y="-2.0000" width="0.1395" height="3.5000" ry="0.0444" fill="currentColor"/>
</g>
<g transform="translate(31.8246, 7.9099)">
<path transform="scale(0.0040, -0.0040)" d="M0 -213c0 -116 88 -204 149 -301c5 14 8 30 8 45c0 95 -89 189 -157 256zM0 0c0 -177 201 -292 201 -469c0 -33 -9 -65 -23 -95c18 -36 29 -75 29 -117c0 -63 -15 -126 -41 -183c-5 -8 -13 -12 -21 -12c-14 0 -27 11 -24 28c26 52 42 109 42 167c0 96 -93 189 -163 256
v-75h-18v500h18z" fill="currentColor"/>
</g>
<g color="rgb(100.0000%, 100.0000%, 100.0000%)">
<g transform="translate(26.0814, 16.1456)">
<rect x="0.0000" y="-1.6715" width="16.5026" height="2.1291" ry="0.0000" fill="currentColor"/>
</g>
</g>
<g transform="translate(26.0814, 16.1456)">
<text font-family="serif" font-style="italic" font-size="2.2000" text-anchor="start" fill="currentColor">
<tspan>appena udibile</tspan>
</text>
</g>
<g transform="translate(34.3327, 12.3655)">
<path transform="scale(0.0040, -0.0040)" d="M111 0c10 0 17 -10 13 -19l-112 -248c-2 -5 -7 -8 -12 -8s-10 3 -12 8l-112 248c-4 9 3 19 13 19h66c5 0 10 -3 12 -8l66 -146l66 146c2 5 7 8 12 8z" fill="currentColor"/>
</g>
<g transform="translate(34.3327, 9.8655)">
<rect x="-0.0697" y="-3.0000" width="0.1395" height="3.5000" ry="0.0444" fill="currentColor"/>
</g>
<g transform="translate(33.1130, 10.3655)">
<path transform="scale(0.0040, -0.0040)" d="M29 39l-2 -64v-11c0 -22 2 -43 5 -65c44 38 91 80 91 138c0 33 -13 66 -42 66c-31 0 -51 -31 -52 -64zM-28 454c9 5 18 8 28 8s19 -3 28 -8l-7 -343c25 23 58 36 92 36c51 0 87 -49 87 -103c0 -79 -84 -117 -144 -169c-16 -14 -25 -41 -47 -41c-14 0 -25 13 -25 27z" fill="currentColor"/>
</g>
<g transform="translate(31.3649, 12.6151)">
<path transform="scale(0.0040, -0.0040)" d="M-210 86c-9 2 -15 10 -15 19c0 12 12 23 25 19l405 -104c14 0 20 -6 20 -20s-6 -20 -20 -20l-405 -104c-13 -4 -25 7 -25 19c0 9 6 17 15 19l248 64l140 22l-140 22z" fill="currentColor"/>
</g>
<g transform="translate(39.1327, 10.3655)">
<path transform="scale(0.0040, -0.0040)" d="M215 137c57 0 111 -29 111 -92c0 -71 -54 -120 -101 -148c-35 -21 -74 -34 -114 -34c-57 0 -111 29 -111 92c0 71 54 120 101 148c35 21 74 34 114 34z" fill="currentColor"/>
</g>
<g transform="translate(40.3658, 9.8655)">
<rect x="-0.0697" y="-3.0000" width="0.1395" height="3.3206" ry="0.0444" fill="currentColor"/>
</g>
<g transform="translate(40.4355, 6.9099)">
<path transform="scale(0.0040, -0.0040)" d="M0 -213c0 -116 88 -204 149 -301c5 14 8 30 8 45c0 95 -89 189 -157 256zM0 0c0 -177 201 -292 201 -469c0 -33 -9 -65 -23 -95c18 -36 29 -75 29 -117c0 -63 -15 -126 -41 -183c-5 -8 -13 -12 -21 -12c-14 0 -27 11 -24 28c26 52 42 109 42 167c0 96 -93 189 -163 256
v-75h-18v500h18z" fill="currentColor"/>
</g>
<g transform="translate(41.5327, 11.3655)">
<path transform="scale(0.0032, -0.0032)" d="M208 139c61 0 117 -33 117 -99c0 -71 -52 -119 -99 -147c-34 -20 -71 -32 -110 -32c-61 0 -116 33 -116 99c0 71 51 119 98 147c34 20 71 32 110 32z" fill="currentColor"/>
</g>
<g transform="translate(42.0479, 12.3655)">
<path transform="scale(0.0040, -0.0040)" d="M-50 0c0 28 22 50 50 50s50 -22 50 -50s-22 -50 -50 -50s-50 22 -50 50z" fill="currentColor"/>
</g>
<g transform="translate(42.4933, 9.8655)">
<rect x="-0.0697" y="-2.0000" width="0.1395" height="3.3716" ry="0.0444" fill="currentColor"/>
</g>
<g transform="translate(25.4034, 12.8655)">
<path transform="scale(0.0040, -0.0040)" d="M215 137c57 0 111 -29 111 -92c0 -71 -54 -120 -101 -148c-35 -21 -74 -34 -114 -34c-57 0 -111 29 -111 92c0 71 54 120 101 148c35 21 74 34 114 34z" fill="currentColor"/>
</g>
<g transform="translate(25.4034, 5.8654)">
<text font-family="serif" font-style="italic" font-size="2.2000" text-anchor="start" fill="currentColor">
<tspan>Perdendosi</tspan>
</text>
</g>
<g transform="translate(26.0548, 13.8141)">
<path transform="scale(0.0040, -0.0040)" d="M-50 0c0 28 22 50 50 50s50 -22 50 -50s-22 -50 -50 -50s-50 22 -50 50z" fill="currentColor"/>
</g>
<g transform="translate(16.8600, 10.8655)">
<path transform="scale(0.0040, -0.0040)" d="M378 263c4 0 7 1 11 1c156 0 257 -129 257 -262c0 -76 -34 -154 -108 -210c-22 -17 -46 -29 -72 -37c3 -34 5 -68 5 -102c0 -20 -1 -40 -2 -60c-7 -121 -90 -228 -209 -228c-108 0 -196 87 -196 196c0 58 53 104 112 104c54 0 95 -48 95 -104c0 -52 -43 -95 -95 -95
c-10 0 -20 2 -29 6c26 -38 68 -63 116 -63h3c93 2 153 92 159 190c1 19 2 37 2 56c0 30 -2 60 -4 90c-29 -5 -58 -8 -88 -8c-188 0 -333 173 -333 375c0 177 130 307 246 442c-20 62 -38 125 -46 190c-6 52 -7 104 -7 157c0 115 55 223 148 290c7 5 16 4 22 -1
c71 -83 134 -244 134 -357c0 -143 -85 -255 -178 -364c21 -68 40 -137 57 -206zM462 -202c67 24 111 94 111 162c0 89 -65 178 -170 190c24 -115 46 -230 59 -352zM75 26c0 -134 129 -245 263 -245c28 0 55 2 81 6c-14 126 -36 244 -61 363c-79 -8 -124 -61 -124 -119
c0 -43 25 -89 80 -121c5 -5 7 -11 7 -16c0 -12 -10 -23 -22 -23c-3 0 -6 1 -9 2c-81 43 -118 116 -118 186c0 89 58 175 161 198c-14 58 -29 116 -46 173c-106 -122 -212 -244 -212 -404zM406 1042c-99 -47 -162 -148 -162 -257c0 -73 20 -132 38 -191
c79 97 144 199 144 324c0 53 -4 76 -20 124z" fill="currentColor"/>
</g>
<g transform="translate(21.0600, 9.8655)">
<path transform="scale(0.0040, -0.0040)" d="M194 120h120c0 -49 29 -95 75 -95c8 0 12 -7 12 -13s-4 -12 -12 -12c-45 0 -90 13 -135 13s-90 -13 -135 -13c-8 0 -12 6 -12 12s4 13 12 13c46 0 75 46 75 95zM203 301c22 15 45 30 61 51c12 15 19 34 27 51c2 4 5 6 9 6c6 0 14 -6 14 -15v-238h74c10 0 16 -8 16 -16
s-6 -15 -16 -15h-74v-5h-120v5h-163c-24 0 -33 15 -33 24c0 3 1 6 2 7c80 92 134 205 134 327c0 11 8 20 17 17c24 -7 48 -13 73 -13s48 6 72 13c2 1 4 1 6 1c9 0 14 -7 14 -13c0 -2 0 -3 -2 -5l-283 -327h163v122c0 9 2 18 9 23z" fill="currentColor"/>
</g>
<g transform="translate(21.0600, 11.8774)">
<path transform="scale(0.0040, -0.0040)" d="M194 120h120c0 -49 29 -95 75 -95c8 0 12 -7 12 -13s-4 -12 -12 -12c-45 0 -90 13 -135 13s-90 -13 -135 -13c-8 0 -12 6 -12 12s4 13 12 13c46 0 75 46 75 95zM203 301c22 15 45 30 61 51c12 15 19 34 27 51c2 4 5 6 9 6c6 0 14 -6 14 -15v-238h74c10 0 16 -8 16 -16
s-6 -15 -16 -15h-74v-5h-120v5h-163c-24 0 -33 15 -33 24c0 3 1 6 2 7c80 92 134 205 134 327c0 11 8 20 17 17c24 -7 48 -13 73 -13s48 6 72 13c2 1 4 1 6 1c9 0 14 -7 14 -13c0 -2 0 -3 -2 -5l-283 -327h163v122c0 9 2 18 9 23z" fill="currentColor"/>
</g>
<g transform="translate(27.1521, 12.3655)">
<path transform="scale(0.0040, -0.0040)" d="M0 0c0 31 25 56 56 56s55 -25 55 -56s-24 -56 -55 -56s-56 25 -56 56z" fill="currentColor"/>
</g>
<g transform="translate(26.6364, 9.8655)">
<rect x="-0.0697" y="-0.5000" width="0.1395" height="3.3206" ry="0.0444" fill="currentColor"/>
</g>
<g transform="translate(40.4545, 18.2592)">
<g>
<path transform="scale(0.0040, -0.0040)" d="M-44 146c26 76 84 153 152 153c22 0 36 -19 41 -43c23 25 53 43 82 43c23 0 37 -19 43 -44c22 26 51 44 80 44c33 0 59 -35 59 -69c0 -5 -1 -10 -2 -15l-35 -149c0 -2 -1 -4 -1 -5c0 -5 2 -8 7 -8c9 0 27 11 48 31c5 5 10 6 14 6c6 0 12 -4 12 -10c0 -4 -2 -8 -7 -13
c-40 -38 -87 -74 -133 -74c-20 0 -32 13 -32 32c0 4 0 7 1 11l39 165c1 5 2 9 2 14c0 10 -4 18 -14 18c-16 0 -33 -17 -39 -33l-52 -181c-3 -10 -15 -19 -25 -19h-38c-11 0 -17 8 -14 19l52 182c2 6 3 11 3 16c0 9 -4 16 -13 16c-16 0 -35 -16 -41 -33l-62 -181
c-4 -11 -15 -19 -26 -19h-38c-11 0 -16 8 -12 19l62 182c2 5 2 10 2 15c0 10 -3 17 -13 17c-29 0 -54 -53 -66 -87c-4 -12 -15 -18 -24 -18c-7 0 -13 3 -13 11c0 2 0 5 1 7z" fill="currentColor"/>

<path transform="translate(1.7451, 0.0000) scale(0.0040, -0.0040)" d="M233 243c-56 0 -102 -108 -102 -174c0 -22 8 -38 30 -38c63 0 97 127 97 179c0 18 -7 33 -25 33zM111 -146c-37 0 -76 5 -114 5s-79 -5 -115 -5c-9 0 -14 8 -14 15c0 19 30 16 48 17c23 1 47 7 54 27l101 296c2 7 5 14 5 20c0 8 -3 14 -11 14c-33 0 -61 -60 -77 -97
c-5 -13 -17 -19 -26 -19c-8 0 -15 5 -15 13c0 3 1 7 2 10c30 68 73 142 133 142c35 0 58 -22 65 -52c29 31 67 52 103 52c69 0 107 -49 107 -114c0 -21 -4 -44 -12 -67c-20 -58 -91 -120 -147 -120c-27 0 -52 6 -73 18c-10 6 -24 3 -27 -6l-27 -80c-1 -3 -2 -6 -2 -9
c0 -21 20 -28 43 -30c9 -1 13 -8 13 -15s-5 -15 -14 -15z" fill="currentColor"/>
</g>
</g>
<g transform="translate(23.9534, 12.8655)">
<path transform="scale(0.0040, -0.0040)" d="M217 -311c0 -11 -8 -19 -19 -19s-20 8 -20 19v142l-81 -30v-156c0 -11 -9 -20 -20 -20s-19 9 -19 20v142l-28 -11c-3 -1 -5 -1 -8 -1c-12 0 -22 10 -22 23v57c0 9 6 18 15 21l43 16v157l-28 -10c-3 -1 -5 -1 -8 -1c-12 0 -22 9 -22 22v57c0 9 6 18 15 21l43 16v157
c0 11 8 19 19 19s20 -8 20 -19v-142l81 30v156c0 11 9 20 20 20s19 -9 19 -20v-142l28 11c3 1 5 1 8 1c12 0 22 -10 22 -23v-57c0 -9 -6 -18 -15 -21l-43 -16v-157l28 10c3 1 5 1 8 1c12 0 22 -9 22 -22v-57c0 -9 -6 -18 -15 -21l-43 -16v-157zM97 64v-158l81 30v158z" fill="currentColor"/>
</g>
<g transform="translate(30.9053, 11.3655)">
<path transform="scale(0.0028, -0.0028)" d="M96 49c-3 -3 -4 -7 -4 -11s1 -7 4 -10l88 -101c3 -3 7 -6 12 -6s9 3 12 6l21 24c3 3 4 7 4 11s-1 7 -4 10l-88 101c-3 3 -7 6 -12 6s-9 -3 -12 -6zM0 0c0 4 1 7 4 10c54 52 103 109 147 170c3 4 7 5 12 5s8 -1 11 -5c44 -61 93 -118 147 -170c3 -3 4 -6 4 -10
s-1 -7 -4 -10c-54 -52 -103 -109 -147 -170c-3 -4 -6 -5 -11 -5s-9 1 -12 5c-44 61 -93 118 -147 170c-3 3 -4 6 -4 10z" fill="currentColor"/>
</g>
<g color="rgb(100.0000%, 100.0000%, 100.0000%)">
<g transform="translate(27.8747, 18.6856)">
<rect x="0.0000" y="-1.6188" width="6.9804" height="1.6500" ry="0.0000" fill="currentColor"/>
</g>
</g>
<g transform="translate(27.8747, 18.6856)">
<text font-family="serif" font-style="italic" font-size="2.2000" text-anchor="start" fill="currentColor">
<tspan>niente</tspan>
</text>
</g>
<g transform="translate(52.2866, 9.8655)">
<path transform="scale(0.0040, -0.0040)" d="M29 39l-2 -64v-11c0 -22 2 -43 5 -65c44 38 91 80 91 138c0 33 -13 66 -42 66c-31 0 -51 -31 -52 -64zM-28 454c9 5 18 8 28 8s19 -3 28 -8l-7 -343c25 23 58 36 92 36c51 0 87 -49 87 -103c0 -79 -84 -117 -144 -169c-16 -14 -25 -41 -47 -41c-14 0 -25 13 -25 27z" fill="currentColor"/>
</g>
<g transform="translate(57.3991, 13.4564)">
<path transform="scale(0.0040, -0.0040)" d="M-210 86c-9 2 -15 10 -15 19c0 12 12 23 25 19l405 -104c14 0 20 -6 20 -20s-6 -20 -20 -20l-405 -104c-13 -4 -25 7 -25 19c0 9 6 17 15 19l248 64l140 22l-140 22z" fill="currentColor"/>
</g>
<g transform="translate(56.5802, 11.8655)">
<path transform="scale(0.0050, -0.0050)" d="M85 52c-1 -2 -3 -4 -3 -6s2 -4 3 -6l113 -124c2 -2 3 -3 6 -3s5 1 7 3l29 32c1 2 3 4 3 6s-2 4 -3 6l-113 124c-2 2 -3 3 -6 3s-5 -1 -7 -3zM0 0c0 2 0 4 2 6c56 52 108 108 154 169c2 2 3 3 6 3s5 -1 7 -3c46 -61 98 -117 154 -169c2 -2 2 -4 2 -6s0 -4 -2 -6
c-56 -52 -108 -108 -154 -169c-2 -2 -4 -3 -7 -3s-4 1 -6 3c-46 61 -98 117 -154 169c-2 2 -2 4 -2 6z" fill="currentColor"/>
</g>
<g transform="translate(49.5191, 17.2579)">
<g>
<path transform="scale(0.0040, -0.0040)" d="M-44 146c26 76 84 153 152 153c22 0 36 -19 41 -43c23 25 53 43 82 43c23 0 37 -19 43 -44c22 26 51 44 80 44c33 0 59 -35 59 -69c0 -5 -1 -10 -2 -15l-35 -149c0 -2 -1 -4 -1 -5c0 -5 2 -8 7 -8c9 0 27 11 48 31c5 5 10 6 14 6c6 0 12 -4 12 -10c0 -4 -2 -8 -7 -13
c-40 -38 -87 -74 -133 -74c-20 0 -32 13 -32 32c0 4 0 7 1 11l39 165c1 5 2 9 2 14c0 10 -4 18 -14 18c-16 0 -33 -17 -39 -33l-52 -181c-3 -10 -15 -19 -25 -19h-38c-11 0 -17 8 -14 19l52 182c2 6 3 11 3 16c0 9 -4 16 -13 16c-16 0 -35 -16 -41 -33l-62 -181
c-4 -11 -15 -19 -26 -19h-38c-11 0 -16 8 -12 19l62 182c2 5 2 10 2 15c0 10 -3 17 -13 17c-29 0 -54 -53 -66 -87c-4 -12 -15 -18 -24 -18c-7 0 -13 3 -13 11c0 2 0 5 1 7z" fill="currentColor"/>

<path transform="translate(1.7451, 0.0000) scale(0.0040, -0.0040)" d="M252 241l-49 -161c-30 -99 -121 -256 -218 -256c-46 0 -87 30 -87 73c0 39 17 77 52 77c24 0 44 -20 44 -44c0 -30 -38 -24 -38 -54c0 -10 11 -11 23 -11h6c47 0 61 56 73 105l68 271h-47c-11 0 -21 10 -21 21s10 21 21 21h58c32 95 119 189 213 189c46 0 87 -29 87 -72
c0 -39 -17 -78 -52 -78c-24 0 -44 20 -44 44c0 30 38 25 38 55c0 10 -10 10 -22 10h-7c-60 0 -70 -84 -86 -148h53c11 0 21 -10 21 -21s-10 -21 -21 -21h-65z" fill="currentColor"/>
</g>
</g>
<g transform="translate(51.0366, 12.3655)">
<path transform="scale(0.0040, -0.0040)" d="M111 0c10 0 17 -10 13 -19l-112 -248c-2 -5 -7 -8 -12 -8s-10 3 -12 8l-112 248c-4 9 3 19 13 19h66c5 0 10 -3 12 -8l66 -146l66 146c2 5 7 8 12 8z" fill="currentColor"/>
</g>
<g transform="translate(51.0366, 9.8655)">
<rect x="-0.0697" y="-3.1856" width="0.1395" height="4.6856" ry="0.0444" fill="currentColor"/>
</g>
<g transform="translate(53.4366, 9.8655)">
<path transform="scale(0.0045, -0.0045)" d="M218 136c55 0 108 -28 108 -89c0 -71 -55 -121 -102 -149c-35 -21 -75 -34 -116 -34c-55 0 -108 28 -108 89c0 71 55 121 102 149c35 21 75 34 116 34z" fill="currentColor"/>
</g>
<g color="rgb(100.0000%, 100.0000%, 100.0000%)">
<g transform="translate(50.6784, 20.0407)">
<rect x="0.0000" y="-1.6188" width="6.9804" height="1.6500" ry="0.0000" fill="currentColor"/>
</g>
</g>
<g transform="translate(50.6784, 20.0407)">
<text font-family="serif" font-style="italic" font-size="2.2000" text-anchor="start" fill="currentColor">
<tspan>niente</tspan>
</text>
</g>
<g transform="translate(54.1686, 11.3655)">
<path transform="scale(0.0040, -0.0040)" d="M-50 0c0 28 22 50 50 50s50 -22 50 -50s-22 -50 -50 -50s-50 22 -50 50z" fill="currentColor"/>
</g>
<g transform="translate(54.8308, 9.8655)">
<rect x="-0.0697" y="-3.4943" width="0.1395" height="3.2854" ry="0.0444" fill="currentColor"/>
</g>
<g transform="translate(55.4302, 11.8655)">
<path transform="scale(0.0040, -0.0040)" d="M29 39l-2 -64v-11c0 -22 2 -43 5 -65c44 38 91 80 91 138c0 33 -13 66 -42 66c-31 0 -51 -31 -52 -64zM-28 454c9 5 18 8 28 8s19 -3 28 -8l-7 -343c25 23 58 36 92 36c51 0 87 -49 87 -103c0 -79 -84 -117 -144 -169c-16 -14 -25 -41 -47 -41c-14 0 -25 13 -25 27z" fill="currentColor"/>
</g>
<g transform="translate(47.4366, 10.3655)">
<path transform="scale(0.0045, -0.0045)" d="M87 51c-2 -2 -3 -4 -3 -6s1 -5 3 -7l109 -120c2 -2 4 -4 7 -4s5 2 7 4l28 31c2 2 3 4 3 6s-1 5 -3 7l-109 120c-2 2 -4 4 -7 4s-5 -2 -7 -4zM0 0c0 3 1 5 3 7c56 52 106 107 152 168c2 2 5 4 8 4s5 -2 7 -4c46 -61 96 -116 152 -168c2 -2 3 -4 3 -7s-1 -5 -3 -7
c-56 -52 -106 -107 -152 -168c-2 -2 -4 -4 -7 -4s-6 2 -8 4c-46 61 -96 116 -152 168c-2 2 -3 4 -3 7z" fill="currentColor"/>
</g>
<g color="rgb(100.0000%, 100.0000%, 100.0000%)">
<g transform="translate(44.6760, 15.5707)">
<rect x="0.0000" y="-1.6188" width="6.9804" height="1.6500" ry="0.0000" fill="currentColor"/>
</g>
</g>
<g transform="translate(44.6760, 15.5707)">
<text font-family="serif" font-style="italic" font-size="2.2000" text-anchor="start" fill="currentColor">
<tspan>niente</tspan>
</text>
</g>
<g transform="translate(48.1662, 12.6151)">
<path transform="scale(0.0040, -0.0040)" d="M-210 86c-9 2 -15 10 -15 19c0 12 12 23 25 19l405 -104c14 0 20 -6 20 -20s-6 -20 -20 -20l-405 -104c-13 -4 -25 7 -25 19c0 9 6 17 15 19l248 64l140 22l-140 22z" fill="currentColor"/>
</g>
<g transform="translate(48.8261, 9.8655)">
<rect x="-0.0697" y="-3.0057" width="0.1395" height="3.5057" ry="0.0444" fill="currentColor"/>
</g>
<g transform="translate(58.1483, 9.8655)">
<rect x="-0.0697" y="-1.5000" width="0.1395" height="3.5000" ry="0.0444" fill="currentColor"/>
</g>
</svg>
