<svg xmlns="http://www.w3.org/2000/svg" xmlns:xlink="http://www.w3.org/1999/xlink" version="1.2" width="210.00mm" height="297.00mm" viewBox="0 0 132.7795 187.7882">
<style text="style/css">
<![CDATA[
tspan { white-space: pre; }
]]>
</style>
<!-- Page: 1/1 -->
<g color="rgb(49.8039%, 49.8039%, 49.8039%)">
<line transform="translate(16.0600, 11.8641)" stroke-linejoin="round" stroke-linecap="round" stroke-width="0.1073" stroke="currentColor" x1="0.0537" y1="-0.0000" x2="95.3034" y2="-0.0000"/>
<line transform="translate(16.0600, 10.8641)" stroke-linejoin="round" stroke-linecap="round" stroke-width="0.1073" stroke="currentColor" x1="0.0537" y1="-0.0000" x2="95.3034" y2="-0.0000"/>
<line transform="translate(16.0600, 9.8641)" stroke-linejoin="round" stroke-linecap="round" stroke-width="0.1073" stroke="currentColor" x1="0.0537" y1="-0.0000" x2="95.3034" y2="-0.0000"/>
<line transform="translate(16.0600, 8.8641)" stroke-linejoin="round" stroke-linecap="round" stroke-width="0.1073" stroke="currentColor" x1="0.0537" y1="-0.0000" x2="95.3034" y2="-0.0000"/>
<line transform="translate(16.0600, 7.8641)" stroke-linejoin="round" stroke-linecap="round" stroke-width="0.1073" stroke="currentColor" x1="0.0537" y1="-0.0000" x2="95.3034" y2="-0.0000"/>
</g>
<rect transform="translate(57.5498, 9.8641)" x="0.0000" y="-2.0537" width="0.2039" height="4.1073" ry="0.0000" fill="currentColor"/>
<rect transform="translate(75.6056, 9.8641)" x="0.0000" y="-2.0537" width="0.2039" height="4.1073" ry="0.0000" fill="currentColor"/>
<rect transform="translate(93.0316, 9.8641)" x="0.0000" y="-2.0537" width="0.2039" height="4.1073" ry="0.0000" fill="currentColor"/>
<rect transform="translate(38.6751, 9.8641)" x="0.0000" y="-2.0537" width="0.2039" height="4.1073" ry="0.0000" fill="currentColor"/>
<path transform="translate(81.7411, 11.8641) scale(0.0040, -0.0040)" d="M29 39l-2 -64v-11c0 -22 2 -43 5 -65c44 38 91 80 91 138c0 33 -13 66 -42 66c-31 0 -51 -31 -52 -64zM-28 454c9 5 18 8 28 8s19 -3 28 -8l-7 -343c25 23 58 36 92 36c51 0 87 -49 87 -103c0 -79 -84 -117 -144 -169c-16 -14 -25 -41 -47 -41c-14 0 -25 13 -25 27z" fill="currentColor"/>
<path transform="translate(83.0306, 8.4085) scale(0.0040, -0.0040)" d="M0 0c0 -197 207 -335 207 -532c0 -71 -15 -141 -41 -207c-5 -8 -13 -12 -21 -12c-14 0 -27 11 -24 28c26 60 42 125 42 191c0 103 -93 207 -163 282h-18v250h18z" fill="currentColor"/>
<rect transform="translate(82.9608, 9.8641)" x="-0.0697" y="-1.5000" width="0.1395" height="3.5000" ry="0.0444" fill="currentColor"/>
<path transform="translate(84.2353, 11.3641) scale(0.0040, -0.0040)" d="M0 0c0 31 25 56 56 56s55 -25 55 -56s-24 -56 -55 -56s-56 25 -56 56z" fill="currentColor"/>
<path transform="translate(82.9608, 12.3641) scale(0.0040, -0.0040)" d="M111 0c10 0 17 -10 13 -19l-112 -248c-2 -5 -7 -8 -12 -8s-10 3 -12 8l-112 248c-4 9 3 19 13 19h66c5 0 10 -3 12 -8l66 -146l66 146c2 5 7 8 12 8z" fill="currentColor"/>
<g color="rgb(100.0000%, 100.0000%, 100.0000%)">
<rect transform="translate(74.7095, 17.3513)" x="0.0000" y="-1.6715" width="16.5026" height="2.1291" ry="0.0000" fill="currentColor"/>
</g>
<text transform="translate(74.7095, 17.3513)" font-family="serif" font-style="italic" font-size="2.2000" text-anchor="start" fill="currentColor">
<tspan>appena udibile</tspan>
</text>
<path transform="translate(87.2628, 10.3641) scale(0.0028, -0.0028)" d="M204 141c63 0 120 -35 120 -103c0 -70 -50 -119 -97 -147c-33 -20 -70 -32 -108 -32c-63 0 -119 35 -119 103c0 70 49 119 96 147c33 20 70 32 108 32z" fill="currentColor"/>
<g transform="translate(86.1271, 13.7137)" >
<path transform="scale(0.0040, -0.0040)" d="M-44 146c26 76 84 153 152 153c22 0 36 -19 41 -43c23 25 53 43 82 43c23 0 37 -19 43 -44c22 26 51 44 80 44c33 0 59 -35 59 -69c0 -5 -1 -10 -2 -15l-35 -149c0 -2 -1 -4 -1 -5c0 -5 2 -8 7 -8c9 0 27 11 48 31c5 5 10 6 14 6c6 0 12 -4 12 -10c0 -4 -2 -8 -7 -13
c-40 -38 -87 -74 -133 -74c-20 0 -32 13 -32 32c0 4 0 7 1 11l39 165c1 5 2 9 2 14c0 10 -4 18 -14 18c-16 0 -33 -17 -39 -33l-52 -181c-3 -10 -15 -19 -25 -19h-38c-11 0 -17 8 -14 19l52 182c2 6 3 11 3 16c0 9 -4 16 -13 16c-16 0 -35 -16 -41 -33l-62 -181
c-4 -11 -15 -19 -26 -19h-38c-11 0 -16 8 -12 19l62 182c2 5 2 10 2 15c0 10 -3 17 -13 17c-29 0 -54 -53 -66 -87c-4 -12 -15 -18 -24 -18c-7 0 -13 3 -13 11c0 2 0 5 1 7z" fill="currentColor"/>

<path transform="translate(1.7451, 0.0000) scale(0.0040, -0.0040)" d="M233 243c-56 0 -102 -108 -102 -174c0 -22 8 -38 30 -38c63 0 97 127 97 179c0 18 -7 33 -25 33zM111 -146c-37 0 -76 5 -114 5s-79 -5 -115 -5c-9 0 -14 8 -14 15c0 19 30 16 48 17c23 1 47 7 54 27l101 296c2 7 5 14 5 20c0 8 -3 14 -11 14c-33 0 -61 -60 -77 -97
c-5 -13 -17 -19 -26 -19c-8 0 -15 5 -15 13c0 3 1 7 2 10c30 68 73 142 133 142c35 0 58 -22 65 -52c29 31 67 52 103 52c69 0 107 -49 107 -114c0 -21 -4 -44 -12 -67c-20 -58 -91 -120 -147 -120c-27 0 -52 6 -73 18c-10 6 -24 3 -27 -6l-27 -80c-1 -3 -2 -6 -2 -9
c0 -21 20 -28 43 -30c9 -1 13 -8 13 -15s-5 -15 -14 -15z" fill="currentColor"/>
</g>
<path transform="translate(87.7204, 11.3641) scale(0.0040, -0.0040)" d="M-50 0c0 28 22 50 50 50s50 -22 50 -50s-22 -50 -50 -50s-50 22 -50 50z" fill="currentColor"/>
<path transform="translate(89.5160, 10.3641) scale(0.0040, -0.0040)" d="M0 0c0 31 25 56 56 56s55 -25 55 -56s-24 -56 -55 -56s-56 25 -56 56z" fill="currentColor"/>
<path transform="translate(88.6240, 10.3641) scale(0.0040, -0.0040)" d="M0 0c0 31 25 56 56 56s55 -25 55 -56s-24 -56 -55 -56s-56 25 -56 56z" fill="currentColor"/>
<rect transform="translate(88.1083, 9.8641)" x="-0.0697" y="-3.0000" width="0.1395" height="3.3936" ry="0.0444" fill="currentColor"/>
<path transform="translate(86.1128, 10.3641) scale(0.0040, -0.0040)" d="M29 39l-2 -64v-11c0 -22 2 -43 5 -65c44 38 91 80 91 138c0 33 -13 66 -42 66c-31 0 -51 -31 -52 -64zM-28 454c9 5 18 8 28 8s19 -3 28 -8l-7 -343c25 23 58 36 92 36c51 0 87 -49 87 -103c0 -79 -84 -117 -144 -169c-16 -14 -25 -41 -47 -41c-14 0 -25 13 -25 27z" fill="currentColor"/>
<g color="rgb(100.0000%, 100.0000%, 100.0000%)">
<rect transform="translate(70.9154, 15.1886)" x="0.0000" y="-1.6188" width="6.9804" height="1.6500" ry="0.0000" fill="currentColor"/>
</g>
<text transform="translate(70.9154, 15.1886)" font-family="serif" font-style="italic" font-size="2.2000" text-anchor="start" fill="currentColor">
<tspan>niente</tspan>
</text>
<path transform="translate(68.2536, 11.3641) scale(0.0045, -0.0045)" d="M218 136c55 0 108 -28 108 -89c0 -71 -55 -121 -102 -149c-35 -21 -75 -34 -116 -34c-55 0 -108 28 -108 89c0 71 55 121 102 149c35 21 75 34 116 34z" fill="currentColor"/>
<text transform="translate(68.2536, 6.3329)" font-family="serif" font-style="italic" font-size="2.2000" text-anchor="start" fill="currentColor">
<tspan>Perdendosi</tspan>
</text>
<path transform="translate(68.9856, 12.3758) scale(0.0040, -0.0040)" d="M-50 0c0 28 22 50 50 50s50 -22 50 -50s-22 -50 -50 -50s-50 22 -50 50z" fill="currentColor"/>
<path transform="translate(70.1635, 11.3641) scale(0.0040, -0.0040)" d="M0 0c0 31 25 56 56 56s55 -25 55 -56s-24 -56 -55 -56s-56 25 -56 56z" fill="currentColor"/>
<rect transform="translate(69.6478, 9.8641)" x="-0.0697" y="-2.0000" width="0.1395" height="3.2911" ry="0.0444" fill="currentColor"/>
<path transform="translate(73.7556, 10.8641) scale(0.0040, -0.0040)" d="M89 51c-2 -2 -3 -5 -3 -8s1 -5 3 -7l104 -117c2 -2 5 -3 8 -3s7 1 9 3l26 30c2 2 3 5 3 8s-1 5 -3 7l-104 117c-2 2 -5 3 -8 3s-7 -1 -9 -3zM0 0c0 3 1 5 3 7c55 52 106 108 151 169c2 3 6 4 9 4s6 -1 8 -4c45 -61 96 -117 151 -169c2 -2 3 -4 3 -7s-1 -5 -3 -7
c-55 -52 -106 -108 -151 -169c-2 -3 -5 -4 -8 -4s-7 1 -9 4c-45 61 -96 117 -151 169c-2 2 -3 4 -3 7z" fill="currentColor"/>
<path transform="translate(74.4056, 12.6138) scale(0.0040, -0.0040)" d="M-210 86c-9 2 -15 10 -15 19c0 12 12 23 25 19l405 -104c14 0 20 -6 20 -20s-6 -20 -20 -20l-405 -104c-13 -4 -25 7 -25 19c0 9 6 17 15 19l248 64l140 22l-140 22z" fill="currentColor"/>
<rect transform="translate(74.9859, 9.8641)" x="-0.0697" y="-2.5000" width="0.1395" height="3.5000" ry="0.0444" fill="currentColor"/>
<path transform="translate(103.0171, 10.8641) scale(0.0028, -0.0028)" d="M204 141c63 0 120 -35 120 -103c0 -70 -50 -119 -97 -147c-33 -20 -70 -32 -108 -32c-63 0 -119 35 -119 103c0 70 49 119 96 147c33 20 70 32 108 32z" fill="currentColor"/>
<g color="rgb(100.0000%, 100.0000%, 100.0000%)">
<rect transform="translate(99.9845, 19.6943)" x="0.0000" y="-1.6188" width="6.9804" height="1.6500" ry="0.0000" fill="currentColor"/>
</g>
<text transform="translate(99.9845, 19.6943)" font-family="serif" font-style="italic" font-size="2.2000" text-anchor="start" fill="currentColor">
<tspan>niente</tspan>
</text>
<path transform="translate(103.4747, 12.3641) scale(0.0040, -0.0040)" d="M-50 0c0 28 22 50 50 50s50 -22 50 -50s-22 -50 -50 -50s-50 22 -50 50z" fill="currentColor"/>
<rect transform="translate(103.8626, 9.8641)" x="-0.0697" y="-2.0000" width="0.1395" height="2.8936" ry="0.0444" fill="currentColor"/>
<path transform="translate(106.6171, 9.3641) scale(0.0040, -0.0040)" d="M89 51c-2 -2 -3 -5 -3 -8s1 -5 3 -7l104 -117c2 -2 5 -3 8 -3s7 1 9 3l26 30c2 2 3 5 3 8s-1 5 -3 7l-104 117c-2 2 -5 3 -8 3s-7 -1 -9 -3zM0 0c0 3 1 5 3 7c55 52 106 108 151 169c2 3 6 4 9 4s6 -1 8 -4c45 -61 96 -117 151 -169c2 -2 3 -4 3 -7s-1 -5 -3 -7
c-55 -52 -106 -108 -151 -169c-2 -3 -5 -4 -8 -4s-7 1 -9 4c-45 61 -96 117 -151 169c-2 2 -3 4 -3 7z" fill="currentColor"/>
<path transform="translate(107.2671, 7.1144) scale(0.0040, -0.0040)" d="M-210 86c-9 2 -15 10 -15 19c0 12 12 23 25 19l405 -104c14 0 20 -6 20 -20s-6 -20 -20 -20l-405 -104c-13 -4 -25 7 -25 19c0 9 6 17 15 19l248 64l140 22l-140 22z" fill="currentColor"/>
<rect transform="translate(106.6868, 9.8641)" x="-0.0697" y="-0.5000" width="0.1395" height="3.5000" ry="0.0444" fill="currentColor"/>
<polygon transform="translate(100.5473, 7.8641)" stroke-linejoin="round" stroke-linecap="round" stroke-width="0.0889" fill="currentColor" stroke="currentColor" points="3.3406 -0.2056 3.3406 0.2056 0.0444 0.2056 0.0444 -0.2056"/>
<polygon transform="translate(100.5473, 8.6678)" stroke-linejoin="round" stroke-linecap="round" stroke-width="0.0889" fill="currentColor" stroke="currentColor" points="1.1253 -0.2056 1.1253 0.2056 0.0444 0.2056 0.0444 -0.2056"/>
<g color="rgb(100.0000%, 100.0000%, 100.0000%)">
<rect transform="translate(92.0845, 15.4163)" x="0.0000" y="-1.6188" width="6.9804" height="1.6500" ry="0.0000" fill="currentColor"/>
</g>
<text transform="translate(92.0845, 15.4163)" font-family="serif" font-style="italic" font-size="2.2000" text-anchor="start" fill="currentColor">
<tspan>niente</tspan>
</text>
<path transform="translate(95.5747, 7.1144) scale(0.0040, -0.0040)" d="M-210 86c-9 2 -15 10 -15 19c0 12 12 23 25 19l405 -104c14 0 20 -6 20 -20s-6 -20 -20 -20l-405 -104c-13 -4 -25 7 -25 19c0 9 6 17 15 19l248 64l140 22l-140 22z" fill="currentColor"/>
<path transform="translate(96.4803, 9.3641) scale(0.0040, -0.0040)" d="M0 0c0 31 25 56 56 56s55 -25 55 -56s-24 -56 -55 -56s-56 25 -56 56z" fill="currentColor"/>
<rect transform="translate(95.1849, 9.8641)" x="-0.0697" y="-0.0000" width="0.1395" height="3.3333" ry="0.0444" fill="currentColor"/>
<path transform="translate(93.9651, 9.8641) scale(0.0040, -0.0040)" d="M29 39l-2 -64v-11c0 -22 2 -43 5 -65c44 38 91 80 91 138c0 33 -13 66 -42 66c-31 0 -51 -31 -52 -64zM-28 454c9 5 18 8 28 8s19 -3 28 -8l-7 -343c25 23 58 36 92 36c51 0 87 -49 87 -103c0 -79 -84 -117 -144 -169c-16 -14 -25 -41 -47 -41c-14 0 -25 13 -25 27z" fill="currentColor"/>
<path transform="translate(95.1151, 9.8641) scale(0.0028, -0.0028)" d="M96 49c-3 -3 -4 -7 -4 -11s1 -7 4 -10l88 -101c3 -3 7 -6 12 -6s9 3 12 6l21 24c3 3 4 7 4 11s-1 7 -4 10l-88 101c-3 3 -7 6 -12 6s-9 -3 -12 -6zM0 0c0 4 1 7 4 10c54 52 103 109 147 170c3 4 7 5 12 5s8 -1 11 -5c44 -61 93 -118 147 -170c3 -3 4 -6 4 -10
s-1 -7 -4 -10c-54 -52 -103 -109 -147 -170c-3 -4 -6 -5 -11 -5s-9 1 -12 5c-44 61 -93 118 -147 170c-3 3 -4 6 -4 10z" fill="currentColor"/>
<g transform="translate(99.0996, 16.9115)" >
<path transform="scale(0.0040, -0.0040)" d="M-44 146c26 76 84 153 152 153c22 0 36 -19 41 -43c23 25 53 43 82 43c23 0 37 -19 43 -44c22 26 51 44 80 44c33 0 59 -35 59 -69c0 -5 -1 -10 -2 -15l-35 -149c0 -2 -1 -4 -1 -5c0 -5 2 -8 7 -8c9 0 27 11 48 31c5 5 10 6 14 6c6 0 12 -4 12 -10c0 -4 -2 -8 -7 -13
c-40 -38 -87 -74 -133 -74c-20 0 -32 13 -32 32c0 4 0 7 1 11l39 165c1 5 2 9 2 14c0 10 -4 18 -14 18c-16 0 -33 -17 -39 -33l-52 -181c-3 -10 -15 -19 -25 -19h-38c-11 0 -17 8 -14 19l52 182c2 6 3 11 3 16c0 9 -4 16 -13 16c-16 0 -35 -16 -41 -33l-62 -181
c-4 -11 -15 -19 -26 -19h-38c-11 0 -16 8 -12 19l62 182c2 5 2 10 2 15c0 10 -3 17 -13 17c-29 0 -54 -53 -66 -87c-4 -12 -15 -18 -24 -18c-7 0 -13 3 -13 11c0 2 0 5 1 7z" fill="currentColor"/>

<path transform="translate(1.7451, 0.0000) scale(0.0040, -0.0040)" d="M252 241l-49 -161c-30 -99 -121 -256 -218 -256c-46 0 -87 30 -87 73c0 39 17 77 52 77c24 0 44 -20 44 -44c0 -30 -38 -24 -38 -54c0 -10 11 -11 23 -11h6c47 0 61 56 73 105l68 271h-47c-11 0 -21 10 -21 21s10 21 21 21h58c32 95 119 189 213 189c46 0 87 -29 87 -72
c0 -39 -17 -78 -52 -78c-24 0 -44 20 -44 44c0 30 38 25 38 55c0 10 -10 10 -22 10h-7c-60 0 -70 -84 -86 -148h53c11 0 21 -10 21 -21s-10 -21 -21 -21h-65z" fill="currentColor"/>
</g>
<path transform="translate(100.6171, 11.3641) scale(0.0040, -0.0040)" d="M111 0c10 0 17 -10 13 -19l-112 -248c-2 -5 -7 -8 -12 -8s-10 3 -12 8l-112 248c-4 9 3 19 13 19h66c5 0 10 -3 12 -8l66 -146l66 146c2 5 7 8 12 8z" fill="currentColor"/>
<rect transform="translate(100.6171, 9.8641)" x="-0.0697" y="-2.0000" width="0.1395" height="3.0000" ry="0.0444" fill="currentColor"/>
<path transform="translate(34.7044, 11.8641) scale(0.0040, -0.0040)" d="M29 39l-2 -64v-11c0 -22 2 -43 5 -65c44 38 91 80 91 138c0 33 -13 66 -42 66c-31 0 -51 -31 -52 -64zM-28 454c9 5 18 8 28 8s19 -3 28 -8l-7 -343c25 23 58 36 92 36c51 0 87 -49 87 -103c0 -79 -84 -117 -144 -169c-16 -14 -25 -41 -47 -41c-14 0 -25 13 -25 27z" fill="currentColor"/>
<g color="rgb(100.0000%, 100.0000%, 100.0000%)">
<rect transform="translate(27.6728, 17.3513)" x="0.0000" y="-1.6715" width="16.5026" height="2.1291" ry="0.0000" fill="currentColor"/>
</g>
<text transform="translate(27.6728, 17.3513)" font-family="serif" font-style="italic" font-size="2.2000" text-anchor="start" fill="currentColor">
<tspan>appena udibile</tspan>
</text>
<path transform="translate(35.9241, 12.3641) scale(0.0040, -0.0040)" d="M111 0c10 0 17 -10 13 -19l-112 -248c-2 -5 -7 -8 -12 -8s-10 3 -12 8l-112 248c-4 9 3 19 13 19h66c5 0 10 -3 12 -8l66 -146l66 146c2 5 7 8 12 8z" fill="currentColor"/>
<path transform="translate(36.3701, 11.3641) scale(0.0040, -0.0040)" d="M0 0c0 31 25 56 56 56s55 -25 55 -56s-24 -56 -55 -56s-56 25 -56 56z" fill="currentColor"/>
<rect transform="translate(35.9241, 9.8641)" x="-0.0697" y="-1.5000" width="0.1395" height="3.5000" ry="0.0444" fill="currentColor"/>
<rect transform="translate(31.3842, 9.8641)" x="-0.0697" y="-3.0000" width="0.1395" height="3.5000" ry="0.0444" fill="currentColor"/>
<path transform="translate(43.3809, 10.3641) scale(0.0057, -0.0057)" d="M222 135c53 0 104 -27 104 -86c0 -71 -56 -120 -103 -148c-36 -22 -76 -36 -118 -36c-53 0 -105 27 -105 86c0 71 57 120 104 148c36 22 76 36 118 36z" fill="currentColor"/>
<g transform="translate(42.7109, 14.2201)" >
<path transform="scale(0.0040, -0.0040)" d="M-44 146c26 76 84 153 152 153c22 0 36 -19 41 -43c23 25 53 43 82 43c23 0 37 -19 43 -44c22 26 51 44 80 44c33 0 59 -35 59 -69c0 -5 -1 -10 -2 -15l-35 -149c0 -2 -1 -4 -1 -5c0 -5 2 -8 7 -8c9 0 27 11 48 31c5 5 10 6 14 6c6 0 12 -4 12 -10c0 -4 -2 -8 -7 -13
c-40 -38 -87 -74 -133 -74c-20 0 -32 13 -32 32c0 4 0 7 1 11l39 165c1 5 2 9 2 14c0 10 -4 18 -14 18c-16 0 -33 -17 -39 -33l-52 -181c-3 -10 -15 -19 -25 -19h-38c-11 0 -17 8 -14 19l52 182c2 6 3 11 3 16c0 9 -4 16 -13 16c-16 0 -35 -16 -41 -33l-62 -181
c-4 -11 -15 -19 -26 -19h-38c-11 0 -16 8 -12 19l62 182c2 5 2 10 2 15c0 10 -3 17 -13 17c-29 0 -54 -53 -66 -87c-4 -12 -15 -18 -24 -18c-7 0 -13 3 -13 11c0 2 0 5 1 7z" fill="currentColor"/>

<path transform="translate(1.7451, 0.0000) scale(0.0040, -0.0040)" d="M233 243c-56 0 -102 -108 -102 -174c0 -22 8 -38 30 -38c63 0 97 127 97 179c0 18 -7 33 -25 33zM111 -146c-37 0 -76 5 -114 5s-79 -5 -115 -5c-9 0 -14 8 -14 15c0 19 30 16 48 17c23 1 47 7 54 27l101 296c2 7 5 14 5 20c0 8 -3 14 -11 14c-33 0 -61 -60 -77 -97
c-5 -13 -17 -19 -26 -19c-8 0 -15 5 -15 13c0 3 1 7 2 10c30 68 73 142 133 142c35 0 58 -22 65 -52c29 31 67 52 103 52c69 0 107 -49 107 -114c0 -21 -4 -44 -12 -67c-20 -58 -91 -120 -147 -120c-27 0 -52 6 -73 18c-10 6 -24 3 -27 -6l-27 -80c-1 -3 -2 -6 -2 -9
c0 -21 20 -28 43 -30c9 -1 13 -8 13 -15s-5 -15 -14 -15z" fill="currentColor"/>
</g>
<path transform="translate(24.6534, 11.3641) scale(0.0036, -0.0036)" d="M212 138c59 0 113 -31 113 -95c0 -71 -52 -120 -99 -148c-34 -21 -73 -33 -113 -33c-59 0 -113 31 -113 95c0 71 53 120 100 148c34 21 72 33 112 33z" fill="currentColor"/>
<text transform="translate(24.6534, 5.8329)" font-family="serif" font-style="italic" font-size="2.2000" text-anchor="start" fill="currentColor">
<tspan>Perdendosi</tspan>
</text>
<path transform="translate(25.2328, 12.3641) scale(0.0040, -0.0040)" d="M-50 0c0 28 22 50 50 50s50 -22 50 -50s-22 -50 -50 -50s-50 22 -50 50z" fill="currentColor"/>
<path transform="translate(16.8600, 10.8641) scale(0.0040, -0.0040)" d="M378 263c4 0 7 1 11 1c156 0 257 -129 257 -262c0 -76 -34 -154 -108 -210c-22 -17 -46 -29 -72 -37c3 -34 4 -68 4 -102c0 -20 0 -40 -1 -60c-7 -121 -90 -228 -209 -228c-108 0 -196 87 -196 196c0 58 53 104 112 104c54 0 95 -48 95 -104c0 -52 -43 -95 -95 -95
c-10 0 -20 2 -29 6c26 -38 68 -63 116 -63h3c93 2 153 92 159 190c1 19 2 37 2 56c0 30 -2 60 -4 90c-29 -5 -58 -8 -88 -8c-188 0 -333 173 -333 375c0 177 130 307 246 442c-20 62 -38 125 -46 190c-6 52 -7 104 -7 157c0 115 55 223 148 290c7 5 16 4 22 -1
c71 -83 134 -244 134 -357c0 -143 -85 -255 -178 -364c21 -68 40 -137 57 -206zM462 -202c67 24 111 94 111 162c0 89 -65 178 -170 190c24 -115 46 -230 59 -352zM75 26c0 -134 129 -245 263 -245c28 0 55 2 81 6c-14 126 -36 244 -61 363c-79 -8 -124 -61 -124 -119
c0 -43 25 -89 80 -121c5 -5 7 -11 7 -16c0 -12 -10 -23 -22 -23c-3 0 -6 1 -9 2c-81 43 -118 116 -118 186c0 89 58 175 161 198c-14 58 -29 116 -46 173c-106 -122 -212 -244 -212 -404zM244 785c0 -73 20 -132 38 -191c79 97 144 199 144 324c0 53 -4 76 -20 124
c-99 -47 -162 -148 -162 -257z" fill="currentColor"/>
<path transform="translate(21.0600, 9.8641) scale(0.0040, -0.0040)" d="M194 120h120c0 -49 29 -95 75 -95c8 0 12 -7 12 -13s-4 -12 -12 -12c-45 0 -90 13 -135 13s-90 -13 -135 -13c-8 0 -12 6 -12 12s4 13 12 13c46 0 75 46 75 95zM203 301c22 15 45 30 61 51c12 15 19 34 27 51c2 4 5 6 9 6c6 0 14 -6 14 -15v-238h74c10 0 16 -8 16 -16
s-6 -15 -16 -15h-74v-5h-120v5h-163c-24 0 -33 15 -33 24c0 3 1 6 2 7c80 92 134 205 134 327c0 11 8 20 17 17c24 -7 48 -13 73 -13s48 6 72 13c2 1 4 1 6 1c9 0 14 -7 14 -13c0 -2 0 -3 -2 -5l-283 -327h163v122c0 9 2 18 9 23z" fill="currentColor"/>
<path transform="translate(21.0600, 11.8761) scale(0.0040, -0.0040)" d="M194 120h120c0 -49 29 -95 75 -95c8 0 12 -7 12 -13s-4 -12 -12 -12c-45 0 -90 13 -135 13s-90 -13 -135 -13c-8 0 -12 6 -12 12s4 13 12 13c46 0 75 46 75 95zM203 301c22 15 45 30 61 51c12 15 19 34 27 51c2 4 5 6 9 6c6 0 14 -6 14 -15v-238h74c10 0 16 -8 16 -16
s-6 -15 -16 -15h-74v-5h-120v5h-163c-24 0 -33 15 -33 24c0 3 1 6 2 7c80 92 134 205 134 327c0 11 8 20 17 17c24 -7 48 -13 73 -13s48 6 72 13c2 1 4 1 6 1c9 0 14 -7 14 -13c0 -2 0 -3 -2 -5l-283 -327h163v122c0 9 2 18 9 23z" fill="currentColor"/>
<path transform="translate(27.1502, 11.3641) scale(0.0040, -0.0040)" d="M0 0c0 31 25 56 56 56s55 -25 55 -56s-24 -56 -55 -56s-56 25 -56 56z" fill="currentColor"/>
<path transform="translate(26.2582, 11.3641) scale(0.0040, -0.0040)" d="M0 0c0 31 25 56 56 56s55 -25 55 -56s-24 -56 -55 -56s-56 25 -56 56z" fill="currentColor"/>
<rect transform="translate(25.7425, 9.8641)" x="-0.0697" y="-2.0000" width="0.1395" height="3.3474" ry="0.0444" fill="currentColor"/>
<path transform="translate(30.4222, 10.3641) scale(0.0032, -0.0032)" d="M93 50c-2 -3 -3 -7 -3 -10s1 -6 3 -9l94 -107c3 -3 7 -5 11 -5s7 2 10 5l24 26c2 3 3 7 3 10s-1 6 -3 9l-94 107c-3 3 -7 5 -11 5s-7 -2 -10 -5zM0 0c0 3 1 7 4 9c54 52 104 108 148 169c2 3 6 5 10 5s9 -2 11 -5c44 -61 94 -117 148 -169c2 -2 4 -6 4 -9s-2 -7 -4 -9
c-54 -52 -104 -108 -148 -169c-2 -3 -7 -5 -11 -5s-8 2 -10 5c-44 61 -94 117 -148 169c-2 2 -4 6 -4 9z" fill="currentColor"/>
<g color="rgb(100.0000%, 100.0000%, 100.0000%)">
<rect transform="translate(27.4479, 15.1886)" x="0.0000" y="-1.6188" width="6.9804" height="1.6500" ry="0.0000" fill="currentColor"/>
</g>
<text transform="translate(27.4479, 15.1886)" font-family="serif" font-style="italic" font-size="2.2000" text-anchor="start" fill="currentColor">
<tspan>niente</tspan>
</text>
<path transform="translate(30.9381, 12.6138) scale(0.0040, -0.0040)" d="M-210 86c-9 2 -15 10 -15 19c0 12 12 23 25 19l405 -104c14 0 20 -6 20 -20s-6 -20 -20 -20l-405 -104c-13 -4 -25 7 -25 19c0 9 6 17 15 19l248 64l140 22l-140 22z" fill="currentColor"/>
<path transform="translate(31.9000, 10.3641) scale(0.0040, -0.0040)" d="M0 0c0 31 25 56 56 56s55 -25 55 -56s-24 -56 -55 -56s-56 25 -56 56z" fill="currentColor"/>
<path transform="translate(51.5300, 9.8641) scale(0.0040, -0.0040)" d="M29 39l-2 -64v-11c0 -22 2 -43 5 -65c44 38 91 80 91 138c0 33 -13 66 -42 66c-31 0 -51 -31 -52 -64zM-28 454c9 5 18 8 28 8s19 -3 28 -8l-7 -343c25 23 58 36 92 36c51 0 87 -49 87 -103c0 -79 -84 -117 -144 -169c-16 -14 -25 -41 -47 -41c-14 0 -25 13 -25 27z" fill="currentColor"/>
<path transform="translate(44.3043, 12.3641) scale(0.0040, -0.0040)" d="M-50 0c0 28 22 50 50 50s50 -22 50 -50s-22 -50 -50 -50s-50 22 -50 50z" fill="currentColor"/>
<path transform="translate(58.6536, 10.8641) scale(0.0040, -0.0040)" d="M215 137c57 0 111 -29 111 -92c0 -71 -54 -120 -101 -148c-35 -21 -74 -34 -114 -34c-57 0 -111 29 -111 92c0 71 54 120 101 148c35 21 74 34 114 34z" fill="currentColor"/>
<g color="rgb(100.0000%, 100.0000%, 100.0000%)">
<rect transform="translate(55.8148, 14.6429)" x="0.0000" y="-1.6188" width="6.9804" height="1.6500" ry="0.0000" fill="currentColor"/>
</g>
<text transform="translate(55.8148, 14.6429)" font-family="serif" font-style="italic" font-size="2.2000" text-anchor="start" fill="currentColor">
<tspan>niente</tspan>
</text>
<path transform="translate(59.3050, 12.3641) scale(0.0040, -0.0040)" d="M-50 0c0 28 22 50 50 50s50 -22 50 -50s-22 -50 -50 -50s-50 22 -50 50z" fill="currentColor"/>
<rect transform="translate(59.8867, 9.8641)" x="-0.0697" y="-2.5000" width="0.1395" height="3.3206" ry="0.0444" fill="currentColor"/>
<path transform="translate(63.4536, 9.3641) scale(0.0032, -0.0032)" d="M93 50c-2 -3 -3 -7 -3 -10s1 -6 3 -9l94 -107c3 -3 7 -5 11 -5s7 2 10 5l24 26c2 3 3 7 3 10s-1 6 -3 9l-94 107c-3 3 -7 5 -11 5s-7 -2 -10 -5zM0 0c0 3 1 7 4 9c54 52 104 108 148 169c2 3 6 5 10 5s9 -2 11 -5c44 -61 94 -117 148 -169c2 -2 4 -6 4 -9s-2 -7 -4 -9
c-54 -52 -104 -108 -148 -169c-2 -3 -7 -5 -11 -5s-8 2 -10 5c-44 61 -94 117 -148 169c-2 2 -4 6 -4 9z" fill="currentColor"/>
<path transform="translate(63.9695, 7.1144) scale(0.0040, -0.0040)" d="M-210 86c-9 2 -15 10 -15 19c0 12 12 23 25 19l405 -104c14 0 20 -6 20 -20s-6 -20 -20 -20l-405 -104c-13 -4 -25 7 -25 19c0 9 6 17 15 19l248 64l140 22l-140 22z" fill="currentColor"/>
<rect transform="translate(63.5234, 9.8641)" x="-0.0697" y="-0.5000" width="0.1395" height="3.5000" ry="0.0444" fill="currentColor"/>
<path transform="translate(49.1498, 10.8641) scale(0.0032, -0.0032)" d="M93 50c-2 -3 -3 -7 -3 -10s1 -6 3 -9l94 -107c3 -3 7 -5 11 -5s7 2 10 5l24 26c2 3 3 7 3 10s-1 6 -3 9l-94 107c-3 3 -7 5 -11 5s-7 -2 -10 -5zM0 0c0 3 1 7 4 9c54 52 104 108 148 169c2 3 6 5 10 5s9 -2 11 -5c44 -61 94 -117 148 -169c2 -2 4 -6 4 -9s-2 -7 -4 -9
c-54 -52 -104 -108 -148 -169c-2 -3 -7 -5 -11 -5s-8 2 -10 5c-44 61 -94 117 -148 169c-2 2 -4 6 -4 9z" fill="currentColor"/>
<g color="rgb(100.0000%, 100.0000%, 100.0000%)">
<rect transform="translate(46.1755, 15.2763)" x="0.0000" y="-1.6188" width="6.9804" height="1.6500" ry="0.0000" fill="currentColor"/>
</g>
<text transform="translate(46.1755, 15.2763)" font-family="serif" font-style="italic" font-size="2.2000" text-anchor="start" fill="currentColor">
<tspan>niente</tspan>
</text>
<path transform="translate(49.6657, 12.6138) scale(0.0040, -0.0040)" d="M-210 86c-9 2 -15 10 -15 19c0 12 12 23 25 19l405 -104c14 0 20 -6 20 -20s-6 -20 -20 -20l-405 -104c-13 -4 -25 7 -25 19c0 9 6 17 15 19l248 64l140 22l-140 22z" fill="currentColor"/>
<rect transform="translate(50.1118, 9.8641)" x="-0.0697" y="-2.5000" width="0.1395" height="3.5000" ry="0.0444" fill="currentColor"/>
<path transform="translate(50.1816, 7.4085) scale(0.0040, -0.0040)" d="M0 0c0 -197 207 -335 207 -532c0 -71 -15 -141 -41 -207c-5 -8 -13 -12 -21 -12c-14 0 -27 11 -24 28c26 60 42 125 42 191c0 103 -93 207 -163 282h-18v250h18z" fill="currentColor"/>
<rect transform="translate(45.1579, 9.8641)" x="-0.0697" y="-3.0000" width="0.1395" height="3.2218" ry="0.0444" fill="currentColor"/>
<g transform="translate(51.2323, 16.9634)" >
<path transform="scale(0.0040, -0.0040)" d="M-44 146c26 76 84 153 152 153c22 0 36 -19 41 -43c23 25 53 43 82 43c23 0 37 -19 43 -44c22 26 51 44 80 44c33 0 59 -35 59 -69c0 -5 -1 -10 -2 -15l-35 -149c0 -2 -1 -4 -1 -5c0 -5 2 -8 7 -8c9 0 27 11 48 31c5 5 10 6 14 6c6 0 12 -4 12 -10c0 -4 -2 -8 -7 -13
c-40 -38 -87 -74 -133 -74c-20 0 -32 13 -32 32c0 4 0 7 1 11l39 165c1 5 2 9 2 14c0 10 -4 18 -14 18c-16 0 -33 -17 -39 -33l-52 -181c-3 -10 -15 -19 -25 -19h-38c-11 0 -17 8 -14 19l52 182c2 6 3 11 3 16c0 9 -4 16 -13 16c-16 0 -35 -16 -41 -33l-62 -181
c-4 -11 -15 -19 -26 -19h-38c-11 0 -16 8 -12 19l62 182c2 5 2 10 2 15c0 10 -3 17 -13 17c-29 0 -54 -53 -66 -87c-4 -12 -15 -18 -24 -18c-7 0 -13 3 -13 11c0 2 0 5 1 7z" fill="currentColor"/>

<path transform="translate(1.7451, 0.0000) scale(0.0040, -0.0040)" d="M252 241l-49 -161c-30 -99 -121 -256 -218 -256c-46 0 -87 30 -87 73c0 39 17 77 52 77c24 0 44 -20 44 -44c0 -30 -38 -24 -38 -54c0 -10 11 -11 23 -11h6c47 0 61 56 73 105l68 271h-47c-11 0 -21 10 -21 21s10 21 21 21h58c32 95 119 189 213 189c46 0 87 -29 87 -72
c0 -39 -17 -78 -52 -78c-24 0 -44 20 -44 44c0 30 38 25 38 55c0 10 -10 10 -22 10h-7c-60 0 -70 -84 -86 -148h53c11 0 21 -10 21 -21s-10 -21 -21 -21h-65z" fill="currentColor"/>
</g>
<path transform="translate(52.7498, 8.3641) scale(0.0040, -0.0040)" d="M-111 0c-10 0 -17 10 -13 19l112 248c2 5 7 8 12 8s10 -3 12 -8l112 -248c4 -9 -3 -19 -13 -19h-66c-5 0 -10 3 -12 8l-66 146l-66 -146c-2 -5 -7 -8 -12 -8z" fill="currentColor"/>
<rect transform="translate(52.7498, 9.8641)" x="-0.0697" y="-0.0000" width="0.1395" height="3.3333" ry="0.0444" fill="currentColor"/>
<path transform="translate(46.5656, 10.3641) scale(0.0040, -0.0040)" d="M0 0c0 31 25 56 56 56s55 -25 55 -56s-24 -56 -55 -56s-56 25 -56 56z" fill="currentColor"/>
<path transform="translate(45.6736, 10.3641) scale(0.0040, -0.0040)" d="M0 0c0 31 25 56 56 56s55 -25 55 -56s-24 -56 -55 -56s-56 25 -56 56z" fill="currentColor"/>
</svg>
