<svg xmlns="http://www.w3.org/2000/svg" xmlns:xlink="http://www.w3.org/1999/xlink" version="1.2" width="210.00mm" height="297.00mm" viewBox="0 0 132.7795 187.7882">
<style type="text/css">
<![CDATA[
tspan { white-space: pre; }
]]>
</style>
<!-- Page: 1/1 -->
<g color="rgb(49.8039%, 49.8039%, 49.8039%)">
<g transform="translate(16.0600, 10.8896)">
<line stroke-linejoin="round" stroke-linecap="round" stroke-width="0.1073" stroke="currentColor" x1="0.0537" y1="0" x2="86.4436" y2="0"/>
</g>
<g transform="translate(16.0600, 9.8896)">
<line stroke-linejoin="round" stroke-linecap="round" stroke-width="0.1073" stroke="currentColor" x1="0.0537" y1="0" x2="86.4436" y2="0"/>
</g>
<g transform="translate(16.0600, 8.8896)">
<line stroke-linejoin="round" stroke-linecap="round" stroke-width="0.1073" stroke="currentColor" x1="0.0537" y1="0" x2="86.4436" y2="0"/>
</g>
<g transform="translate(16.0600, 7.8896)">
<line stroke-linejoin="round" stroke-linecap="round" stroke-width="0.1073" stroke="currentColor" x1="0.0537" y1="0" x2="86.4436" y2="0"/>
</g>
<g transform="translate(16.0600, 6.8896)">
<line stroke-linejoin="round" stroke-linecap="round" stroke-width="0.1073" stroke="currentColor" x1="0.0537" y1="0" x2="86.4436" y2="0"/>
</g>
</g>
<g transform="translate(102.3534, 8.8896)">
<rect x="0.0000" y="-2.0537" width="0.2039" height="4.1073" ry="0.0000" fill="currentColor"/>
</g>
<g transform="translate(63.0534, 8.8896)">
<rect x="0.0000" y="-2.0537" width="0.2039" height="4.1073" ry="0.0000" fill="currentColor"/>
</g>
<g transform="translate(16.0600, 11.8896)">
<rect x="78.9715" y="-0.1037" width="1.9542" height="0.2073" ry="0.1037" fill="currentColor"/>
</g>
<g transform="translate(16.0600, 11.8896)">
<rect x="71.7715" y="-0.1037" width="1.9542" height="0.2073" ry="0.1037" fill="currentColor"/>
</g>
<g transform="translate(16.0600, 5.8896)">
<rect x="39.4677" y="-0.1037" width="1.9542" height="0.2073" ry="0.1037" fill="currentColor"/>
</g>
<g transform="translate(16.0600, 5.8896)">
<rect x="37.0677" y="-0.1037" width="1.9542" height="0.2073" ry="0.1037" fill="currentColor"/>
</g>
<g transform="translate(76.2270, 8.8896)">
<rect x="-0.0697" y="-0.3206" width="0.1395" height="4.3206" ry="0.0444" fill="currentColor"/>
</g>
<g transform="translate(76.8086, 6.1399)">
<path transform="scale(0.0040, -0.0040)" d="M-210 86c-9 2 -15 10 -15 19c0 12 12 23 25 19l405 -104c14 0 20 -6 20 -20s-6 -20 -20 -20l-405 -104c-13 -4 -25 7 -25 19c0 9 6 17 15 19l248 64l140 22l-140 22z" fill="currentColor"/>
</g>
<g transform="translate(76.1572, 8.3896)">
<path transform="scale(0.0040, -0.0040)" d="M215 137c57 0 111 -29 111 -92c0 -71 -54 -120 -101 -148c-35 -21 -74 -34 -114 -34c-57 0 -111 29 -111 92c0 71 54 120 101 148c35 21 74 34 114 34z" fill="currentColor"/>
</g>
<g transform="translate(78.5572, 6.3896)">
<path transform="scale(0.0040, -0.0040)" d="M215 137c57 0 111 -29 111 -92c0 -71 -54 -120 -101 -148c-35 -21 -74 -34 -114 -34c-57 0 -111 29 -111 92c0 71 54 120 101 148c35 21 74 34 114 34z" fill="currentColor"/>
</g>
<g transform="translate(73.8270, 8.8896)">
<rect x="-0.0697" y="2.6794" width="0.1395" height="2.4832" ry="0.0444" fill="currentColor"/>
</g>
<g transform="translate(74.4086, 10.3896)">
<path transform="scale(0.0040, -0.0040)" d="M-50 0c0 28 22 50 50 50s50 -22 50 -50s-22 -50 -50 -50s-50 22 -50 50z" fill="currentColor"/>
</g>
<g transform="translate(73.7572, 11.3896)">
<path transform="scale(0.0040, -0.0040)" d="M215 137c57 0 111 -29 111 -92c0 -71 -54 -120 -101 -148c-35 -21 -74 -34 -114 -34c-57 0 -111 29 -111 92c0 71 54 120 101 148c35 21 74 34 114 34z" fill="currentColor"/>
</g>
<g transform="translate(84.0086, 12.3382)">
<path transform="scale(0.0040, -0.0040)" d="M-50 0c0 28 22 50 50 50s50 -22 50 -50s-22 -50 -50 -50s-50 22 -50 50z" fill="currentColor"/>
</g>
<g transform="translate(83.3572, 11.3896)">
<path transform="scale(0.0040, -0.0040)" d="M215 137c57 0 111 -29 111 -92c0 -71 -54 -120 -101 -148c-35 -21 -74 -34 -114 -34c-57 0 -111 29 -111 92c0 71 54 120 101 148c35 21 74 34 114 34z" fill="currentColor"/>
</g>
<g transform="translate(80.9572, 13.5470)">
<text font-family="serif" font-size="2.2000" text-anchor="start" fill="currentColor">
<tspan>\</tspan>
</text>
</g>
<g transform="translate(80.9572, 8.8896)">
<path transform="scale(0.0040, -0.0040)" d="M64 -500l100 326c-33 -12 -67 -22 -103 -22c-46 0 -87 33 -87 79c0 40 33 72 73 72c25 0 48 -14 56 -38c10 -27 5 -59 34 -59c16 0 53 51 58 67l46 151c-33 -12 -67 -22 -102 -22c-46 0 -87 33 -87 79c0 40 33 72 73 72c25 0 48 -14 56 -38c10 -27 5 -59 34 -59
c14 0 48 45 54 59c6 13 26 13 31 0l-177 -667c-9 -7 -19 -11 -30 -11s-20 4 -29 11z" fill="currentColor"/>
</g>
<g transform="translate(78.6270, 8.8896)">
<rect x="-0.0697" y="-2.3206" width="0.1395" height="5.1581" ry="0.0444" fill="currentColor"/>
</g>
<g transform="translate(79.2086, 5.6409)">
<path transform="scale(0.0040, -0.0040)" d="M-111 0c-10 0 -17 10 -13 19l112 248c2 5 7 8 12 8s10 -3 12 -8l112 -248c4 -9 -3 -19 -13 -19h-66c-5 0 -10 3 -12 8l-66 146l-66 -146c-2 -5 -7 -8 -12 -8z" fill="currentColor"/>
</g>
<g transform="translate(84.5903, 8.8896)">
<rect x="-0.0697" y="-0.8037" width="0.1395" height="3.1243" ry="0.0444" fill="currentColor"/>
</g>
<g transform="translate(64.1572, 9.8896)">
<path transform="scale(0.0040, -0.0040)" d="M215 137c57 0 111 -29 111 -92c0 -71 -54 -120 -101 -148c-35 -21 -74 -34 -114 -34c-57 0 -111 29 -111 92c0 71 54 120 101 148c35 21 74 34 114 34z" fill="currentColor"/>
</g>
<g transform="translate(66.5572, 7.8896)">
<path transform="scale(0.0040, -0.0040)" d="M215 137c57 0 111 -29 111 -92c0 -71 -54 -120 -101 -148c-35 -21 -74 -34 -114 -34c-57 0 -111 29 -111 92c0 71 54 120 101 148c35 21 74 34 114 34z" fill="currentColor"/>
</g>
<g transform="translate(65.3903, 8.8896)">
<rect x="-0.0697" y="-3.5000" width="0.1395" height="4.3206" ry="0.0444" fill="currentColor"/>
</g>
<g transform="translate(64.8086, 11.3896)">
<path transform="scale(0.0040, -0.0040)" d="M-50 0c0 28 22 50 50 50s50 -22 50 -50s-22 -50 -50 -50s-50 22 -50 50z" fill="currentColor"/>
</g>
<g transform="translate(24.6534, 9.8896)">
<polygon stroke-linejoin="round" stroke-linecap="round" stroke-width="0.0889" fill="currentColor" stroke="currentColor" points="4.8950 -0.2056 4.8950 0.2056 0.0444 0.2056 0.0444 -0.2056"/>
</g>
<g transform="translate(24.6534, 10.6932)">
<polygon stroke-linejoin="round" stroke-linecap="round" stroke-width="0.0889" fill="currentColor" stroke="currentColor" points="4.8950 -0.2056 4.8950 0.2056 0.0444 0.2056 0.0444 -0.2056"/>
</g>
<g transform="translate(67.2086, 11.6392)">
<path transform="scale(0.0040, -0.0040)" d="M-210 86c-9 2 -15 10 -15 19c0 12 12 23 25 19l405 -104c14 0 20 -6 20 -20s-6 -20 -20 -20l-405 -104c-13 -4 -25 7 -25 19c0 9 6 17 15 19l248 64l140 22l-140 22z" fill="currentColor"/>
</g>
<g transform="translate(67.7903, 8.8896)">
<rect x="-0.0697" y="-3.5000" width="0.1395" height="2.3206" ry="0.0444" fill="currentColor"/>
</g>
<g transform="translate(68.9572, 11.3896)">
<path transform="scale(0.0040, -0.0040)" d="M215 137c57 0 111 -29 111 -92c0 -71 -54 -120 -101 -148c-35 -21 -74 -34 -114 -34c-57 0 -111 29 -111 92c0 71 54 120 101 148c35 21 74 34 114 34z" fill="currentColor"/>
</g>
<g transform="translate(69.6086, 12.1382)">
<path transform="scale(0.0040, -0.0040)" d="M111 0c10 0 17 -10 13 -19l-112 -248c-2 -5 -7 -8 -12 -8s-10 3 -12 8l-112 248c-4 9 3 19 13 19h66c5 0 10 -3 12 -8l66 -146l66 146c2 5 7 8 12 8z" fill="currentColor"/>
</g>
<g transform="translate(70.1903, 8.8896)">
<rect x="-0.0697" y="-3.5000" width="0.1395" height="5.8206" ry="0.0444" fill="currentColor"/>
</g>
<g transform="translate(71.3572, 8.8896)">
<path transform="scale(0.0040, -0.0040)" d="M64 -500l100 326c-33 -12 -67 -22 -103 -22c-46 0 -87 33 -87 79c0 40 33 72 73 72c25 0 48 -14 56 -38c10 -27 5 -59 34 -59c16 0 53 51 58 67l46 151c-33 -12 -67 -22 -102 -22c-46 0 -87 33 -87 79c0 40 33 72 73 72c25 0 48 -14 56 -38c10 -27 5 -59 34 -59
c14 0 48 45 54 59c6 13 26 13 31 0l-177 -667c-9 -7 -19 -11 -30 -11s-20 4 -29 11z" fill="currentColor"/>
</g>
<g transform="translate(71.3572, 13.5470)">
<text font-family="serif" font-size="2.2000" text-anchor="start" fill="currentColor">
<tspan>\</tspan>
</text>
</g>
<g transform="translate(100.1572, 13.5470)">
<text font-family="serif" font-size="2.2000" text-anchor="start" fill="currentColor">
<tspan>\</tspan>
</text>
</g>
<g transform="translate(100.1572, 8.8896)">
<path transform="scale(0.0040, -0.0040)" d="M64 -500l100 326c-33 -12 -67 -22 -103 -22c-46 0 -87 33 -87 79c0 40 33 72 73 72c25 0 48 -14 56 -38c10 -27 5 -59 34 -59c16 0 53 51 58 67l46 151c-33 -12 -67 -22 -102 -22c-46 0 -87 33 -87 79c0 40 33 72 73 72c25 0 48 -14 56 -38c10 -27 5 -59 34 -59
c14 0 48 45 54 59c6 13 26 13 31 0l-177 -667c-9 -7 -19 -11 -30 -11s-20 4 -29 11z" fill="currentColor"/>
</g>
<g transform="translate(98.9903, 8.8896)">
<rect x="-0.0697" y="-3.9718" width="0.1395" height="2.2924" ry="0.0444" fill="currentColor"/>
</g>
<g transform="translate(98.4086, 8.3896)">
<path transform="scale(0.0040, -0.0040)" d="M111 0c10 0 17 -10 13 -19l-112 -248c-2 -5 -7 -8 -12 -8s-10 3 -12 8l-112 248c-4 9 3 19 13 19h66c5 0 10 -3 12 -8l66 -146l66 146c2 5 7 8 12 8z" fill="currentColor"/>
</g>
<g transform="translate(97.7572, 7.3896)">
<path transform="scale(0.0040, -0.0040)" d="M215 137c57 0 111 -29 111 -92c0 -71 -54 -120 -101 -148c-35 -21 -74 -34 -114 -34c-57 0 -111 29 -111 92c0 71 54 120 101 148c35 21 74 34 114 34z" fill="currentColor"/>
</g>
<g transform="translate(34.2534, 11.8896)">
<polygon stroke-linejoin="round" stroke-linecap="round" stroke-width="0.0889" fill="currentColor" stroke="currentColor" points="4.8950 -0.5092 4.8950 -0.0981 0.0444 0.2056 0.0444 -0.2056"/>
</g>
<g transform="translate(34.2534, 12.6932)">
<polygon stroke-linejoin="round" stroke-linecap="round" stroke-width="0.0889" fill="currentColor" stroke="currentColor" points="4.8950 -0.5092 4.8950 -0.0981 0.0444 0.2056 0.0444 -0.2056"/>
</g>
<g transform="translate(43.8534, 11.5859)">
<polygon stroke-linejoin="round" stroke-linecap="round" stroke-width="0.0889" fill="currentColor" stroke="currentColor" points="4.8950 -0.7056 4.8950 -0.2944 0.0444 0.2056 0.0444 -0.2056"/>
</g>
<g transform="translate(43.8534, 12.3896)">
<polygon stroke-linejoin="round" stroke-linecap="round" stroke-width="0.0889" fill="currentColor" stroke="currentColor" points="4.8950 -0.7056 4.8950 -0.2944 0.0444 0.2056 0.0444 -0.2056"/>
</g>
<g transform="translate(53.4534, 9.0859)">
<polygon stroke-linejoin="round" stroke-linecap="round" stroke-width="0.0889" fill="currentColor" stroke="currentColor" points="4.8950 1.5981 4.8950 2.0092 0.0444 0.2056 0.0444 -0.2056"/>
</g>
<g transform="translate(53.4534, 9.8896)">
<polygon stroke-linejoin="round" stroke-linecap="round" stroke-width="0.0889" fill="currentColor" stroke="currentColor" points="4.8950 1.5981 4.8950 2.0092 0.0444 0.2056 0.0444 -0.2056"/>
</g>
<g transform="translate(65.3205, 5.3896)">
<polygon stroke-linejoin="round" stroke-linecap="round" stroke-width="0.0889" fill="currentColor" stroke="currentColor" points="4.8950 -0.2056 4.8950 0.2056 0.0444 0.2056 0.0444 -0.2056"/>
</g>
<g transform="translate(65.3205, 6.1932)">
<polygon stroke-linejoin="round" stroke-linecap="round" stroke-width="0.0889" fill="currentColor" stroke="currentColor" points="4.8950 -0.2056 4.8950 0.2056 0.0444 0.2056 0.0444 -0.2056"/>
</g>
<g transform="translate(73.7572, 13.2823)">
<polygon stroke-linejoin="round" stroke-linecap="round" stroke-width="0.0889" fill="currentColor" stroke="currentColor" points="4.8950 -2.5983 4.8950 -2.1871 0.0444 0.2056 0.0444 -0.2056"/>
</g>
<g transform="translate(73.7572, 14.0859)">
<polygon stroke-linejoin="round" stroke-linecap="round" stroke-width="0.0889" fill="currentColor" stroke="currentColor" points="4.8950 -2.5983 4.8950 -2.1871 0.0444 0.2056 0.0444 -0.2056"/>
</g>
<g transform="translate(84.5205, 8.0859)">
<polygon stroke-linejoin="round" stroke-linecap="round" stroke-width="0.0889" fill="currentColor" stroke="currentColor" points="4.8950 -0.2056 4.8950 0.2056 0.0444 0.2056 0.0444 -0.2056"/>
</g>
<g transform="translate(84.5205, 8.8896)">
<polygon stroke-linejoin="round" stroke-linecap="round" stroke-width="0.0889" fill="currentColor" stroke="currentColor" points="4.8950 -0.2056 4.8950 0.2056 0.0444 0.2056 0.0444 -0.2056"/>
</g>
<g transform="translate(94.1205, 6.8896)">
<polygon stroke-linejoin="round" stroke-linecap="round" stroke-width="0.0889" fill="currentColor" stroke="currentColor" points="4.8950 -2.2056 4.8950 -1.7944 0.0444 0.2056 0.0444 -0.2056"/>
</g>
<g transform="translate(94.1205, 7.6932)">
<polygon stroke-linejoin="round" stroke-linecap="round" stroke-width="0.0889" fill="currentColor" stroke="currentColor" points="4.8950 -2.2056 4.8950 -1.7944 0.0444 0.2056 0.0444 -0.2056"/>
</g>
<g transform="translate(96.5903, 8.8896)">
<rect x="-0.0697" y="-3.0000" width="0.1395" height="5.8206" ry="0.0444" fill="currentColor"/>
</g>
<g transform="translate(89.3903, 8.8896)">
<rect x="-0.0697" y="-0.8037" width="0.1395" height="3.6243" ry="0.0444" fill="currentColor"/>
</g>
<g transform="translate(88.8086, 12.6382)">
<path transform="scale(0.0040, -0.0040)" d="M111 0c10 0 17 -10 13 -19l-112 -248c-2 -5 -7 -8 -12 -8s-10 3 -12 8l-112 248c-4 9 3 19 13 19h66c5 0 10 -3 12 -8l66 -146l66 146c2 5 7 8 12 8z" fill="currentColor"/>
</g>
<g transform="translate(88.1572, 11.8896)">
<path transform="scale(0.0040, -0.0040)" d="M215 137c57 0 111 -29 111 -92c0 -71 -54 -120 -101 -148c-35 -21 -74 -34 -114 -34c-57 0 -111 29 -111 92c0 71 54 120 101 148c35 21 74 34 114 34z" fill="currentColor"/>
</g>
<g transform="translate(86.9903, 8.8896)">
<rect x="-0.0697" y="-0.8037" width="0.1395" height="2.6243" ry="0.0444" fill="currentColor"/>
</g>
<g transform="translate(86.4086, 12.1217)">
<path transform="scale(0.0040, -0.0040)" d="M-210 86c-9 2 -15 10 -15 19c0 12 12 23 25 19l405 -104c14 0 20 -6 20 -20s-6 -20 -20 -20l-405 -104c-13 -4 -25 7 -25 19c0 9 6 17 15 19l248 64l140 22l-140 22z" fill="currentColor"/>
</g>
<g transform="translate(85.7572, 10.8896)">
<path transform="scale(0.0040, -0.0040)" d="M215 137c57 0 111 -29 111 -92c0 -71 -54 -120 -101 -148c-35 -21 -74 -34 -114 -34c-57 0 -111 29 -111 92c0 71 54 120 101 148c35 21 74 34 114 34z" fill="currentColor"/>
</g>
<g transform="translate(90.5572, 8.8896)">
<path transform="scale(0.0040, -0.0040)" d="M64 -500l100 326c-33 -12 -67 -22 -103 -22c-46 0 -87 33 -87 79c0 40 33 72 73 72c25 0 48 -14 56 -38c10 -27 5 -59 34 -59c16 0 53 51 58 67l46 151c-33 -12 -67 -22 -102 -22c-46 0 -87 33 -87 79c0 40 33 72 73 72c25 0 48 -14 56 -38c10 -27 5 -59 34 -59
c14 0 48 45 54 59c6 13 26 13 31 0l-177 -667c-9 -7 -19 -11 -30 -11s-20 4 -29 11z" fill="currentColor"/>
</g>
<g transform="translate(90.5572, 13.5470)">
<text font-family="serif" font-size="2.2000" text-anchor="start" fill="currentColor">
<tspan>\</tspan>
</text>
</g>
<g transform="translate(92.9572, 10.8896)">
<path transform="scale(0.0040, -0.0040)" d="M215 137c57 0 111 -29 111 -92c0 -71 -54 -120 -101 -148c-35 -21 -74 -34 -114 -34c-57 0 -111 29 -111 92c0 71 54 120 101 148c35 21 74 34 114 34z" fill="currentColor"/>
</g>
<g transform="translate(93.6086, 11.8382)">
<path transform="scale(0.0040, -0.0040)" d="M-50 0c0 28 22 50 50 50s50 -22 50 -50s-22 -50 -50 -50s-50 22 -50 50z" fill="currentColor"/>
</g>
<g transform="translate(94.1903, 8.8896)">
<rect x="-0.0697" y="-2.0282" width="0.1395" height="3.8489" ry="0.0444" fill="currentColor"/>
</g>
<g transform="translate(95.3572, 11.8896)">
<path transform="scale(0.0040, -0.0040)" d="M215 137c57 0 111 -29 111 -92c0 -71 -54 -120 -101 -148c-35 -21 -74 -34 -114 -34c-57 0 -111 29 -111 92c0 71 54 120 101 148c35 21 74 34 114 34z" fill="currentColor"/>
</g>
<g transform="translate(96.0086, 13.1217)">
<path transform="scale(0.0040, -0.0040)" d="M-210 86c-9 2 -15 10 -15 19c0 12 12 23 25 19l405 -104c14 0 20 -6 20 -20s-6 -20 -20 -20l-405 -104c-13 -4 -25 7 -25 19c0 9 6 17 15 19l248 64l140 22l-140 22z" fill="currentColor"/>
</g>
<g transform="translate(34.3231, 8.8896)">
<rect x="-0.0697" y="1.1794" width="0.1395" height="2.6200" ry="0.0444" fill="currentColor"/>
</g>
<g transform="translate(36.7231, 8.8896)">
<rect x="-0.0697" y="-1.8206" width="0.1395" height="5.4725" ry="0.0444" fill="currentColor"/>
</g>
<g transform="translate(37.3048, 5.6574)">
<path transform="scale(0.0040, -0.0040)" d="M-210 86c-9 2 -15 10 -15 19c0 12 12 23 25 19l405 -104c14 0 20 -6 20 -20s-6 -20 -20 -20l-405 -104c-13 -4 -25 7 -25 19c0 9 6 17 15 19l248 64l140 22l-140 22z" fill="currentColor"/>
</g>
<g transform="translate(36.6534, 6.8896)">
<path transform="scale(0.0040, -0.0040)" d="M215 137c57 0 111 -29 111 -92c0 -71 -54 -120 -101 -148c-35 -21 -74 -34 -114 -34c-57 0 -111 29 -111 92c0 71 54 120 101 148c35 21 74 34 114 34z" fill="currentColor"/>
</g>
<g transform="translate(34.9048, 8.3896)">
<path transform="scale(0.0040, -0.0040)" d="M-50 0c0 28 22 50 50 50s50 -22 50 -50s-22 -50 -50 -50s-50 22 -50 50z" fill="currentColor"/>
</g>
<g transform="translate(34.2534, 9.8896)">
<path transform="scale(0.0040, -0.0040)" d="M215 137c57 0 111 -29 111 -92c0 -71 -54 -120 -101 -148c-35 -21 -74 -34 -114 -34c-57 0 -111 29 -111 92c0 71 54 120 101 148c35 21 74 34 114 34z" fill="currentColor"/>
</g>
<g transform="translate(31.8534, 13.5470)">
<text font-family="serif" font-size="2.2000" text-anchor="start" fill="currentColor">
<tspan>\</tspan>
</text>
</g>
<g transform="translate(43.8534, 9.8896)">
<path transform="scale(0.0040, -0.0040)" d="M215 137c57 0 111 -29 111 -92c0 -71 -54 -120 -101 -148c-35 -21 -74 -34 -114 -34c-57 0 -111 29 -111 92c0 71 54 120 101 148c35 21 74 34 114 34z" fill="currentColor"/>
</g>
<g transform="translate(41.4534, 13.5470)">
<text font-family="serif" font-size="2.2000" text-anchor="start" fill="currentColor">
<tspan>\</tspan>
</text>
</g>
<g transform="translate(31.8534, 8.8896)">
<path transform="scale(0.0040, -0.0040)" d="M64 -500l100 326c-33 -12 -67 -22 -103 -22c-46 0 -87 33 -87 79c0 40 33 72 73 72c25 0 48 -14 56 -38c10 -27 5 -59 34 -59c16 0 53 51 58 67l46 151c-33 -12 -67 -22 -102 -22c-46 0 -87 33 -87 79c0 40 33 72 73 72c25 0 48 -14 56 -38c10 -27 5 -59 34 -59
c14 0 48 45 54 59c6 13 26 13 31 0l-177 -667c-9 -7 -19 -11 -30 -11s-20 4 -29 11z" fill="currentColor"/>
</g>
<g transform="translate(39.1231, 8.8896)">
<rect x="-0.0697" y="0.6794" width="0.1395" height="2.8249" ry="0.0444" fill="currentColor"/>
</g>
<g transform="translate(39.7048, 8.3896)">
<path transform="scale(0.0040, -0.0040)" d="M-111 0c-10 0 -17 10 -13 19l112 248c2 5 7 8 12 8s10 -3 12 -8l112 -248c4 -9 -3 -19 -13 -19h-66c-5 0 -10 3 -12 8l-66 146l-66 -146c-2 -5 -7 -8 -12 -8z" fill="currentColor"/>
</g>
<g transform="translate(39.0534, 9.3896)">
<path transform="scale(0.0040, -0.0040)" d="M215 137c57 0 111 -29 111 -92c0 -71 -54 -120 -101 -148c-35 -21 -74 -34 -114 -34c-57 0 -111 29 -111 92c0 71 54 120 101 148c35 21 74 34 114 34z" fill="currentColor"/>
</g>
<g transform="translate(21.0600, 8.8896)">
<path transform="scale(0.0040, -0.0040)" d="M194 120h120c0 -49 29 -95 75 -95c8 0 12 -7 12 -13s-4 -12 -12 -12c-45 0 -90 13 -135 13s-90 -13 -135 -13c-8 0 -12 6 -12 12s4 13 12 13c46 0 75 46 75 95zM203 301c22 15 45 30 61 51c12 15 19 34 27 51c2 4 5 6 9 6c6 0 14 -6 14 -15v-238h74c10 0 16 -8 16 -16
s-6 -15 -16 -15h-74v-5h-120v5h-163c-24 0 -33 15 -33 24c0 3 1 6 2 7c80 92 134 205 134 327c0 11 8 20 17 17c24 -7 48 -13 73 -13s48 6 72 13c2 1 4 1 6 1c9 0 14 -7 14 -13c0 -2 0 -3 -2 -5l-283 -327h163v122c0 9 2 18 9 23z" fill="currentColor"/>
</g>
<g transform="translate(21.0600, 10.9015)">
<path transform="scale(0.0040, -0.0040)" d="M194 120h120c0 -49 29 -95 75 -95c8 0 12 -7 12 -13s-4 -12 -12 -12c-45 0 -90 13 -135 13s-90 -13 -135 -13c-8 0 -12 6 -12 12s4 13 12 13c46 0 75 46 75 95zM203 301c22 15 45 30 61 51c12 15 19 34 27 51c2 4 5 6 9 6c6 0 14 -6 14 -15v-238h74c10 0 16 -8 16 -16
s-6 -15 -16 -15h-74v-5h-120v5h-163c-24 0 -33 15 -33 24c0 3 1 6 2 7c80 92 134 205 134 327c0 11 8 20 17 17c24 -7 48 -13 73 -13s48 6 72 13c2 1 4 1 6 1c9 0 14 -7 14 -13c0 -2 0 -3 -2 -5l-283 -327h163v122c0 9 2 18 9 23z" fill="currentColor"/>
</g>
<g transform="translate(24.7231, 8.8896)">
<rect x="-0.0697" y="-1.3206" width="0.1395" height="3.1243" ry="0.0444" fill="currentColor"/>
</g>
<g transform="translate(16.8600, 9.8896)">
<path transform="scale(0.0040, -0.0040)" d="M378 263c4 0 7 1 11 1c156 0 257 -129 257 -262c0 -76 -34 -154 -108 -210c-22 -17 -46 -29 -72 -37c3 -34 5 -68 5 -102c0 -20 -1 -40 -2 -60c-7 -121 -90 -228 -209 -228c-108 0 -196 87 -196 196c0 58 53 104 112 104c54 0 95 -48 95 -104c0 -52 -43 -95 -95 -95
c-10 0 -20 2 -29 6c26 -38 68 -63 116 -63h3c93 2 153 92 159 190c1 19 2 37 2 56c0 30 -2 60 -4 90c-29 -5 -58 -8 -88 -8c-188 0 -333 173 -333 375c0 177 130 307 246 442c-20 62 -38 125 -46 190c-6 52 -7 104 -7 157c0 115 55 223 148 290c7 5 16 4 22 -1
c71 -83 134 -244 134 -357c0 -143 -85 -255 -178 -364c21 -68 40 -137 57 -206zM462 -202c67 24 111 94 111 162c0 89 -65 178 -170 190c24 -115 46 -230 59 -352zM75 26c0 -134 129 -245 263 -245c28 0 55 2 81 6c-14 126 -36 244 -61 363c-79 -8 -124 -61 -124 -119
c0 -43 25 -89 80 -121c5 -5 7 -11 7 -16c0 -12 -10 -23 -22 -23c-3 0 -6 1 -9 2c-81 43 -118 116 -118 186c0 89 58 175 161 198c-14 58 -29 116 -46 173c-106 -122 -212 -244 -212 -404zM406 1042c-99 -47 -162 -148 -162 -257c0 -73 20 -132 38 -191
c79 97 144 199 144 324c0 53 -4 76 -20 124z" fill="currentColor"/>
</g>
<g transform="translate(25.3048, 6.3896)">
<path transform="scale(0.0040, -0.0040)" d="M-50 0c0 28 22 50 50 50s50 -22 50 -50s-22 -50 -50 -50s-50 22 -50 50z" fill="currentColor"/>
</g>
<g transform="translate(24.6534, 7.3896)">
<path transform="scale(0.0040, -0.0040)" d="M215 137c57 0 111 -29 111 -92c0 -71 -54 -120 -101 -148c-35 -21 -74 -34 -114 -34c-57 0 -111 29 -111 92c0 71 54 120 101 148c35 21 74 34 114 34z" fill="currentColor"/>
</g>
<g transform="translate(29.5231, 8.8896)">
<rect x="-0.0697" y="-2.3206" width="0.1395" height="4.1243" ry="0.0444" fill="currentColor"/>
</g>
<g transform="translate(30.1048, 5.6409)">
<path transform="scale(0.0040, -0.0040)" d="M-111 0c-10 0 -17 10 -13 19l112 248c2 5 7 8 12 8s10 -3 12 -8l112 -248c4 -9 -3 -19 -13 -19h-66c-5 0 -10 3 -12 8l-66 146l-66 -146c-2 -5 -7 -8 -12 -8z" fill="currentColor"/>
</g>
<g transform="translate(29.4534, 6.3896)">
<path transform="scale(0.0040, -0.0040)" d="M215 137c57 0 111 -29 111 -92c0 -71 -54 -120 -101 -148c-35 -21 -74 -34 -114 -34c-57 0 -111 29 -111 92c0 71 54 120 101 148c35 21 74 34 114 34z" fill="currentColor"/>
</g>
<g transform="translate(41.4534, 8.8896)">
<path transform="scale(0.0040, -0.0040)" d="M64 -500l100 326c-33 -12 -67 -22 -103 -22c-46 0 -87 33 -87 79c0 40 33 72 73 72c25 0 48 -14 56 -38c10 -27 5 -59 34 -59c16 0 53 51 58 67l46 151c-33 -12 -67 -22 -102 -22c-46 0 -87 33 -87 79c0 40 33 72 73 72c25 0 48 -14 56 -38c10 -27 5 -59 34 -59
c14 0 48 45 54 59c6 13 26 13 31 0l-177 -667c-9 -7 -19 -11 -30 -11s-20 4 -29 11z" fill="currentColor"/>
</g>
<g transform="translate(27.1231, 8.8896)">
<rect x="-0.0697" y="-0.3206" width="0.1395" height="2.1243" ry="0.0444" fill="currentColor"/>
</g>
<g transform="translate(27.7048, 6.1399)">
<path transform="scale(0.0040, -0.0040)" d="M-210 86c-9 2 -15 10 -15 19c0 12 12 23 25 19l405 -104c14 0 20 -6 20 -20s-6 -20 -20 -20l-405 -104c-13 -4 -25 7 -25 19c0 9 6 17 15 19l248 64l140 22l-140 22z" fill="currentColor"/>
</g>
<g transform="translate(27.0534, 8.3896)">
<path transform="scale(0.0040, -0.0040)" d="M215 137c57 0 111 -29 111 -92c0 -71 -54 -120 -101 -148c-35 -21 -74 -34 -114 -34c-57 0 -111 29 -111 92c0 71 54 120 101 148c35 21 74 34 114 34z" fill="currentColor"/>
</g>
<g transform="translate(58.3231, 8.8896)">
<rect x="-0.0697" y="0.1794" width="0.1395" height="2.5988" ry="0.0444" fill="currentColor"/>
</g>
<g transform="translate(51.0534, 8.8896)">
<path transform="scale(0.0040, -0.0040)" d="M64 -500l100 326c-33 -12 -67 -22 -103 -22c-46 0 -87 33 -87 79c0 40 33 72 73 72c25 0 48 -14 56 -38c10 -27 5 -59 34 -59c16 0 53 51 58 67l46 151c-33 -12 -67 -22 -102 -22c-46 0 -87 33 -87 79c0 40 33 72 73 72c25 0 48 -14 56 -38c10 -27 5 -59 34 -59
c14 0 48 45 54 59c6 13 26 13 31 0l-177 -667c-9 -7 -19 -11 -30 -11s-20 4 -29 11z" fill="currentColor"/>
</g>
<g transform="translate(51.0534, 13.5470)">
<text font-family="serif" font-size="2.2000" text-anchor="start" fill="currentColor">
<tspan>\</tspan>
</text>
</g>
<g transform="translate(58.9048, 7.3896)">
<path transform="scale(0.0040, -0.0040)" d="M-111 0c-10 0 -17 10 -13 19l112 248c2 5 7 8 12 8s10 -3 12 -8l112 -248c4 -9 -3 -19 -13 -19h-66c-5 0 -10 3 -12 8l-66 146l-66 -146c-2 -5 -7 -8 -12 -8z" fill="currentColor"/>
</g>
<g transform="translate(58.2534, 8.8896)">
<path transform="scale(0.0040, -0.0040)" d="M215 137c57 0 111 -29 111 -92c0 -71 -54 -120 -101 -148c-35 -21 -74 -34 -114 -34c-57 0 -111 29 -111 92c0 71 54 120 101 148c35 21 74 34 114 34z" fill="currentColor"/>
</g>
<g transform="translate(53.4534, 5.8896)">
<path transform="scale(0.0040, -0.0040)" d="M215 137c57 0 111 -29 111 -92c0 -71 -54 -120 -101 -148c-35 -21 -74 -34 -114 -34c-57 0 -111 29 -111 92c0 71 54 120 101 148c35 21 74 34 114 34z" fill="currentColor"/>
</g>
<g transform="translate(54.1048, 4.9409)">
<path transform="scale(0.0040, -0.0040)" d="M-50 0c0 28 22 50 50 50s50 -22 50 -50s-22 -50 -50 -50s-50 22 -50 50z" fill="currentColor"/>
</g>
<g transform="translate(53.5231, 8.8896)">
<rect x="-0.0697" y="-2.8206" width="0.1395" height="3.8461" ry="0.0444" fill="currentColor"/>
</g>
<g transform="translate(55.8534, 5.8896)">
<path transform="scale(0.0040, -0.0040)" d="M215 137c57 0 111 -29 111 -92c0 -71 -54 -120 -101 -148c-35 -21 -74 -34 -114 -34c-57 0 -111 29 -111 92c0 71 54 120 101 148c35 21 74 34 114 34z" fill="currentColor"/>
</g>
<g transform="translate(56.5048, 4.6574)">
<path transform="scale(0.0040, -0.0040)" d="M-210 86c-9 2 -15 10 -15 19c0 12 12 23 25 19l405 -104c14 0 20 -6 20 -20s-6 -20 -20 -20l-405 -104c-13 -4 -25 7 -25 19c0 9 6 17 15 19l248 64l140 22l-140 22z" fill="currentColor"/>
</g>
<g transform="translate(55.9231, 8.8896)">
<rect x="-0.0697" y="-2.8206" width="0.1395" height="4.7225" ry="0.0444" fill="currentColor"/>
</g>
<g transform="translate(44.5048, 8.3896)">
<path transform="scale(0.0040, -0.0040)" d="M-50 0c0 28 22 50 50 50s50 -22 50 -50s-22 -50 -50 -50s-50 22 -50 50z" fill="currentColor"/>
</g>
<g transform="translate(43.9231, 8.8896)">
<rect x="-0.0697" y="1.1794" width="0.1395" height="2.3136" ry="0.0444" fill="currentColor"/>
</g>
<g transform="translate(46.2534, 6.3896)">
<path transform="scale(0.0040, -0.0040)" d="M215 137c57 0 111 -29 111 -92c0 -71 -54 -120 -101 -148c-35 -21 -74 -34 -114 -34c-57 0 -111 29 -111 92c0 71 54 120 101 148c35 21 74 34 114 34z" fill="currentColor"/>
</g>
<g transform="translate(46.9048, 5.1574)">
<path transform="scale(0.0040, -0.0040)" d="M-210 86c-9 2 -15 10 -15 19c0 12 12 23 25 19l405 -104c14 0 20 -6 20 -20s-6 -20 -20 -20l-405 -104c-13 -4 -25 7 -25 19c0 9 6 17 15 19l248 64l140 22l-140 22z" fill="currentColor"/>
</g>
<g transform="translate(46.3231, 8.8896)">
<rect x="-0.0697" y="-2.3206" width="0.1395" height="5.5706" ry="0.0444" fill="currentColor"/>
</g>
<g transform="translate(60.6534, 13.5470)">
<text font-family="serif" font-size="2.2000" text-anchor="start" fill="currentColor">
<tspan>\</tspan>
</text>
</g>
<g transform="translate(48.7231, 8.8896)">
<rect x="-0.0697" y="0.1794" width="0.1395" height="2.8277" ry="0.0444" fill="currentColor"/>
</g>
<g transform="translate(60.6534, 8.8896)">
<path transform="scale(0.0040, -0.0040)" d="M64 -500l100 326c-33 -12 -67 -22 -103 -22c-46 0 -87 33 -87 79c0 40 33 72 73 72c25 0 48 -14 56 -38c10 -27 5 -59 34 -59c16 0 53 51 58 67l46 151c-33 -12 -67 -22 -102 -22c-46 0 -87 33 -87 79c0 40 33 72 73 72c25 0 48 -14 56 -38c10 -27 5 -59 34 -59
c14 0 48 45 54 59c6 13 26 13 31 0l-177 -667c-9 -7 -19 -11 -30 -11s-20 4 -29 11z" fill="currentColor"/>
</g>
<g transform="translate(49.3048, 7.3896)">
<path transform="scale(0.0040, -0.0040)" d="M-111 0c-10 0 -17 10 -13 19l112 248c2 5 7 8 12 8s10 -3 12 -8l112 -248c4 -9 -3 -19 -13 -19h-66c-5 0 -10 3 -12 8l-66 146l-66 -146c-2 -5 -7 -8 -12 -8z" fill="currentColor"/>
</g>
<g transform="translate(48.6534, 8.8896)">
<path transform="scale(0.0040, -0.0040)" d="M215 137c57 0 111 -29 111 -92c0 -71 -54 -120 -101 -148c-35 -21 -74 -34 -114 -34c-57 0 -111 29 -111 92c0 71 54 120 101 148c35 21 74 34 114 34z" fill="currentColor"/>
</g>
<g color="rgb(49.8039%, 49.8039%, 49.8039%)">
<g transform="translate(16.0600, 22.8896)">
<line stroke-linejoin="round" stroke-linecap="round" stroke-width="0.1073" stroke="currentColor" x1="0.0537" y1="0" x2="83.6502" y2="0"/>
</g>
<g transform="translate(16.0600, 21.8896)">
<line stroke-linejoin="round" stroke-linecap="round" stroke-width="0.1073" stroke="currentColor" x1="0.0537" y1="0" x2="83.6502" y2="0"/>
</g>
<g transform="translate(16.0600, 20.8896)">
<line stroke-linejoin="round" stroke-linecap="round" stroke-width="0.1073" stroke="currentColor" x1="0.0537" y1="0" x2="83.6502" y2="0"/>
</g>
<g transform="translate(16.0600, 19.8896)">
<line stroke-linejoin="round" stroke-linecap="round" stroke-width="0.1073" stroke="currentColor" x1="0.0537" y1="0" x2="83.6502" y2="0"/>
</g>
<g transform="translate(16.0600, 18.8896)">
<line stroke-linejoin="round" stroke-linecap="round" stroke-width="0.1073" stroke="currentColor" x1="0.0537" y1="0" x2="83.6502" y2="0"/>
</g>
</g>
<g transform="translate(99.5600, 20.8896)">
<rect x="0.0000" y="-2.0537" width="0.2039" height="4.1073" ry="0.0000" fill="currentColor"/>
</g>
<g transform="translate(60.2600, 20.8896)">
<rect x="0.0000" y="-2.0537" width="0.2039" height="4.1073" ry="0.0000" fill="currentColor"/>
</g>
<g transform="translate(16.0600, 23.8896)">
<rect x="76.1782" y="-0.1037" width="1.9542" height="0.2073" ry="0.1037" fill="currentColor"/>
</g>
<g transform="translate(16.0600, 23.8896)">
<rect x="49.7782" y="-0.1037" width="1.9542" height="0.2073" ry="0.1037" fill="currentColor"/>
</g>
<g transform="translate(16.0600, 23.8896)">
<rect x="7.8743" y="-0.1037" width="1.9542" height="0.2073" ry="0.1037" fill="currentColor"/>
</g>
<g transform="translate(16.0600, 23.8896)">
<rect x="5.4743" y="-0.1037" width="1.9542" height="0.2073" ry="0.1037" fill="currentColor"/>
</g>
<g transform="translate(73.4336, 20.8896)">
<rect x="-0.0697" y="-1.8206" width="0.1395" height="4.3206" ry="0.0444" fill="currentColor"/>
</g>
<g transform="translate(74.0153, 17.6574)">
<path transform="scale(0.0040, -0.0040)" d="M-210 86c-9 2 -15 10 -15 19c0 12 12 23 25 19l405 -104c14 0 20 -6 20 -20s-6 -20 -20 -20l-405 -104c-13 -4 -25 7 -25 19c0 9 6 17 15 19l248 64l140 22l-140 22z" fill="currentColor"/>
</g>
<g transform="translate(73.3639, 18.8896)">
<path transform="scale(0.0040, -0.0040)" d="M215 137c57 0 111 -29 111 -92c0 -71 -54 -120 -101 -148c-35 -21 -74 -34 -114 -34c-57 0 -111 29 -111 92c0 71 54 120 101 148c35 21 74 34 114 34z" fill="currentColor"/>
</g>
<g transform="translate(71.0336, 20.8896)">
<rect x="-0.0697" y="0.6794" width="0.1395" height="2.3065" ry="0.0444" fill="currentColor"/>
</g>
<g transform="translate(71.6153, 20.3896)">
<path transform="scale(0.0040, -0.0040)" d="M-50 0c0 28 22 50 50 50s50 -22 50 -50s-22 -50 -50 -50s-50 22 -50 50z" fill="currentColor"/>
</g>
<g transform="translate(70.9639, 21.3896)">
<path transform="scale(0.0040, -0.0040)" d="M215 137c57 0 111 -29 111 -92c0 -71 -54 -120 -101 -148c-35 -21 -74 -34 -114 -34c-57 0 -111 29 -111 92c0 71 54 120 101 148c35 21 74 34 114 34z" fill="currentColor"/>
</g>
<g transform="translate(80.5639, 23.3896)">
<path transform="scale(0.0040, -0.0040)" d="M215 137c57 0 111 -29 111 -92c0 -71 -54 -120 -101 -148c-35 -21 -74 -34 -114 -34c-57 0 -111 29 -111 92c0 71 54 120 101 148c35 21 74 34 114 34z" fill="currentColor"/>
</g>
<g transform="translate(78.1639, 25.5470)">
<text font-family="serif" font-size="2.2000" text-anchor="start" fill="currentColor">
<tspan>\</tspan>
</text>
</g>
<g transform="translate(78.1639, 20.8896)">
<path transform="scale(0.0040, -0.0040)" d="M64 -500l100 326c-33 -12 -67 -22 -103 -22c-46 0 -87 33 -87 79c0 40 33 72 73 72c25 0 48 -14 56 -38c10 -27 5 -59 34 -59c16 0 53 51 58 67l46 151c-33 -12 -67 -22 -102 -22c-46 0 -87 33 -87 79c0 40 33 72 73 72c25 0 48 -14 56 -38c10 -27 5 -59 34 -59
c14 0 48 45 54 59c6 13 26 13 31 0l-177 -667c-9 -7 -19 -11 -30 -11s-20 4 -29 11z" fill="currentColor"/>
</g>
<g transform="translate(75.8336, 20.8896)">
<rect x="-0.0697" y="-0.8206" width="0.1395" height="2.8348" ry="0.0444" fill="currentColor"/>
</g>
<g transform="translate(76.4153, 18.3896)">
<path transform="scale(0.0040, -0.0040)" d="M-111 0c-10 0 -17 10 -13 19l112 248c2 5 7 8 12 8s10 -3 12 -8l112 -248c4 -9 -3 -19 -13 -19h-66c-5 0 -10 3 -12 8l-66 146l-66 -146c-2 -5 -7 -8 -12 -8z" fill="currentColor"/>
</g>
<g transform="translate(75.7639, 19.8896)">
<path transform="scale(0.0040, -0.0040)" d="M215 137c57 0 111 -29 111 -92c0 -71 -54 -120 -101 -148c-35 -21 -74 -34 -114 -34c-57 0 -111 29 -111 92c0 71 54 120 101 148c35 21 74 34 114 34z" fill="currentColor"/>
</g>
<g transform="translate(81.2153, 24.3382)">
<path transform="scale(0.0040, -0.0040)" d="M-50 0c0 28 22 50 50 50s50 -22 50 -50s-22 -50 -50 -50s-50 22 -50 50z" fill="currentColor"/>
</g>
<g transform="translate(62.5969, 20.8896)">
<rect x="-0.0697" y="-1.8037" width="0.1395" height="3.6243" ry="0.0444" fill="currentColor"/>
</g>
<g transform="translate(62.0153, 23.8382)">
<path transform="scale(0.0040, -0.0040)" d="M-50 0c0 28 22 50 50 50s50 -22 50 -50s-22 -50 -50 -50s-50 22 -50 50z" fill="currentColor"/>
</g>
<g transform="translate(61.3639, 22.8896)">
<path transform="scale(0.0040, -0.0040)" d="M215 137c57 0 111 -29 111 -92c0 -71 -54 -120 -101 -148c-35 -21 -74 -34 -114 -34c-57 0 -111 29 -111 92c0 71 54 120 101 148c35 21 74 34 114 34z" fill="currentColor"/>
</g>
<g transform="translate(23.0233, 20.8896)">
<polygon stroke-linejoin="round" stroke-linecap="round" stroke-width="0.0889" fill="currentColor" stroke="currentColor" points="4.8950 -1.0092 4.8950 -0.5981 0.0444 0.2056 0.0444 -0.2056"/>
</g>
<g transform="translate(23.0233, 21.6932)">
<polygon stroke-linejoin="round" stroke-linecap="round" stroke-width="0.0889" fill="currentColor" stroke="currentColor" points="4.8950 -1.0092 4.8950 -0.5981 0.0444 0.2056 0.0444 -0.2056"/>
</g>
<g transform="translate(68.5639, 25.5470)">
<text font-family="serif" font-size="2.2000" text-anchor="start" fill="currentColor">
<tspan>\</tspan>
</text>
</g>
<g transform="translate(63.7639, 21.8896)">
<path transform="scale(0.0040, -0.0040)" d="M215 137c57 0 111 -29 111 -92c0 -71 -54 -120 -101 -148c-35 -21 -74 -34 -114 -34c-57 0 -111 29 -111 92c0 71 54 120 101 148c35 21 74 34 114 34z" fill="currentColor"/>
</g>
<g transform="translate(64.4153, 23.6392)">
<path transform="scale(0.0040, -0.0040)" d="M-210 86c-9 2 -15 10 -15 19c0 12 12 23 25 19l405 -104c14 0 20 -6 20 -20s-6 -20 -20 -20l-405 -104c-13 -4 -25 7 -25 19c0 9 6 17 15 19l248 64l140 22l-140 22z" fill="currentColor"/>
</g>
<g transform="translate(64.9969, 20.8896)">
<rect x="-0.0697" y="-1.8037" width="0.1395" height="2.6243" ry="0.0444" fill="currentColor"/>
</g>
<g transform="translate(66.1639, 23.8896)">
<path transform="scale(0.0040, -0.0040)" d="M215 137c57 0 111 -29 111 -92c0 -71 -54 -120 -101 -148c-35 -21 -74 -34 -114 -34c-57 0 -111 29 -111 92c0 71 54 120 101 148c35 21 74 34 114 34z" fill="currentColor"/>
</g>
<g transform="translate(66.8153, 24.6382)">
<path transform="scale(0.0040, -0.0040)" d="M111 0c10 0 17 -10 13 -19l-112 -248c-2 -5 -7 -8 -12 -8s-10 3 -12 8l-112 248c-4 9 3 19 13 19h66c5 0 10 -3 12 -8l66 -146l66 146c2 5 7 8 12 8z" fill="currentColor"/>
</g>
<g transform="translate(67.3969, 20.8896)">
<rect x="-0.0697" y="-1.8037" width="0.1395" height="4.6243" ry="0.0444" fill="currentColor"/>
</g>
<g transform="translate(68.5639, 20.8896)">
<path transform="scale(0.0040, -0.0040)" d="M64 -500l100 326c-33 -12 -67 -22 -103 -22c-46 0 -87 33 -87 79c0 40 33 72 73 72c25 0 48 -14 56 -38c10 -27 5 -59 34 -59c16 0 53 51 58 67l46 151c-33 -12 -67 -22 -102 -22c-46 0 -87 33 -87 79c0 40 33 72 73 72c25 0 48 -14 56 -38c10 -27 5 -59 34 -59
c14 0 48 45 54 59c6 13 26 13 31 0l-177 -667c-9 -7 -19 -11 -30 -11s-20 4 -29 11z" fill="currentColor"/>
</g>
<g transform="translate(97.3639, 25.5470)">
<text font-family="serif" font-size="2.2000" text-anchor="start" fill="currentColor">
<tspan>\</tspan>
</text>
</g>
<g transform="translate(97.3639, 20.8896)">
<path transform="scale(0.0040, -0.0040)" d="M64 -500l100 326c-33 -12 -67 -22 -103 -22c-46 0 -87 33 -87 79c0 40 33 72 73 72c25 0 48 -14 56 -38c10 -27 5 -59 34 -59c16 0 53 51 58 67l46 151c-33 -12 -67 -22 -102 -22c-46 0 -87 33 -87 79c0 40 33 72 73 72c25 0 48 -14 56 -38c10 -27 5 -59 34 -59
c14 0 48 45 54 59c6 13 26 13 31 0l-177 -667c-9 -7 -19 -11 -30 -11s-20 4 -29 11z" fill="currentColor"/>
</g>
<g transform="translate(96.1969, 20.8896)">
<rect x="-0.0697" y="-4.4788" width="0.1395" height="2.2995" ry="0.0444" fill="currentColor"/>
</g>
<g transform="translate(95.6153, 20.3896)">
<path transform="scale(0.0040, -0.0040)" d="M111 0c10 0 17 -10 13 -19l-112 -248c-2 -5 -7 -8 -12 -8s-10 3 -12 8l-112 248c-4 9 3 19 13 19h66c5 0 10 -3 12 -8l66 -146l66 146c2 5 7 8 12 8z" fill="currentColor"/>
</g>
<g transform="translate(94.9639, 18.8896)">
<path transform="scale(0.0040, -0.0040)" d="M215 137c57 0 111 -29 111 -92c0 -71 -54 -120 -101 -148c-35 -21 -74 -34 -114 -34c-57 0 -111 29 -111 92c0 71 54 120 101 148c35 21 74 34 114 34z" fill="currentColor"/>
</g>
<g transform="translate(31.4600, 24.8896)">
<polygon stroke-linejoin="round" stroke-linecap="round" stroke-width="0.0889" fill="currentColor" stroke="currentColor" points="4.8950 -0.8129 4.8950 -0.4017 0.0444 0.2056 0.0444 -0.2056"/>
</g>
<g transform="translate(31.4600, 25.6932)">
<polygon stroke-linejoin="round" stroke-linecap="round" stroke-width="0.0889" fill="currentColor" stroke="currentColor" points="4.8950 -0.8129 4.8950 -0.4017 0.0444 0.2056 0.0444 -0.2056"/>
</g>
<g transform="translate(42.2233, 16.8896)">
<polygon stroke-linejoin="round" stroke-linecap="round" stroke-width="0.0889" fill="currentColor" stroke="currentColor" points="4.8950 1.7944 4.8950 2.2056 0.0444 0.2056 0.0444 -0.2056"/>
</g>
<g transform="translate(42.2233, 17.6932)">
<polygon stroke-linejoin="round" stroke-linecap="round" stroke-width="0.0889" fill="currentColor" stroke="currentColor" points="4.8950 1.7944 4.8950 2.2056 0.0444 0.2056 0.0444 -0.2056"/>
</g>
<g transform="translate(50.6600, 21.8896)">
<polygon stroke-linejoin="round" stroke-linecap="round" stroke-width="0.0889" fill="currentColor" stroke="currentColor" points="4.8950 -1.0092 4.8950 -0.5981 0.0444 0.2056 0.0444 -0.2056"/>
</g>
<g transform="translate(50.6600, 22.6932)">
<polygon stroke-linejoin="round" stroke-linecap="round" stroke-width="0.0889" fill="currentColor" stroke="currentColor" points="4.8950 -1.0092 4.8950 -0.5981 0.0444 0.2056 0.0444 -0.2056"/>
</g>
<g transform="translate(62.5272, 19.0859)">
<polygon stroke-linejoin="round" stroke-linecap="round" stroke-width="0.0889" fill="currentColor" stroke="currentColor" points="4.8950 -0.2056 4.8950 0.2056 0.0444 0.2056 0.0444 -0.2056"/>
</g>
<g transform="translate(62.5272, 19.8896)">
<polygon stroke-linejoin="round" stroke-linecap="round" stroke-width="0.0889" fill="currentColor" stroke="currentColor" points="4.8950 -0.2056 4.8950 0.2056 0.0444 0.2056 0.0444 -0.2056"/>
</g>
<g transform="translate(70.9639, 23.0859)">
<polygon stroke-linejoin="round" stroke-linecap="round" stroke-width="0.0889" fill="currentColor" stroke="currentColor" points="4.8950 -1.2056 4.8950 -0.7944 0.0444 0.2056 0.0444 -0.2056"/>
</g>
<g transform="translate(70.9639, 23.8896)">
<polygon stroke-linejoin="round" stroke-linecap="round" stroke-width="0.0889" fill="currentColor" stroke="currentColor" points="4.8950 -1.2056 4.8950 -0.7944 0.0444 0.2056 0.0444 -0.2056"/>
</g>
<g transform="translate(81.7272, 19.8896)">
<polygon stroke-linejoin="round" stroke-linecap="round" stroke-width="0.0889" fill="currentColor" stroke="currentColor" points="4.8950 -1.0092 4.8950 -0.5981 0.0444 0.2056 0.0444 -0.2056"/>
</g>
<g transform="translate(81.7272, 20.6932)">
<polygon stroke-linejoin="round" stroke-linecap="round" stroke-width="0.0889" fill="currentColor" stroke="currentColor" points="4.8950 -1.0092 4.8950 -0.5981 0.0444 0.2056 0.0444 -0.2056"/>
</g>
<g transform="translate(91.3272, 17.8896)">
<polygon stroke-linejoin="round" stroke-linecap="round" stroke-width="0.0889" fill="currentColor" stroke="currentColor" points="4.8950 -1.7056 4.8950 -1.2944 0.0444 0.2056 0.0444 -0.2056"/>
</g>
<g transform="translate(91.3272, 18.6932)">
<polygon stroke-linejoin="round" stroke-linecap="round" stroke-width="0.0889" fill="currentColor" stroke="currentColor" points="4.8950 -1.7056 4.8950 -1.2944 0.0444 0.2056 0.0444 -0.2056"/>
</g>
<g transform="translate(93.7969, 20.8896)">
<rect x="-0.0697" y="-3.7500" width="0.1395" height="6.5706" ry="0.0444" fill="currentColor"/>
</g>
<g transform="translate(86.5969, 20.8896)">
<rect x="-0.0697" y="-1.7923" width="0.1395" height="3.1129" ry="0.0444" fill="currentColor"/>
</g>
<g transform="translate(86.0153, 23.3896)">
<path transform="scale(0.0040, -0.0040)" d="M111 0c10 0 17 -10 13 -19l-112 -248c-2 -5 -7 -8 -12 -8s-10 3 -12 8l-112 248c-4 9 3 19 13 19h66c5 0 10 -3 12 -8l66 -146l66 146c2 5 7 8 12 8z" fill="currentColor"/>
</g>
<g transform="translate(85.3639, 22.3896)">
<path transform="scale(0.0040, -0.0040)" d="M215 137c57 0 111 -29 111 -92c0 -71 -54 -120 -101 -148c-35 -21 -74 -34 -114 -34c-57 0 -111 29 -111 92c0 71 54 120 101 148c35 21 74 34 114 34z" fill="currentColor"/>
</g>
<g transform="translate(84.1969, 20.8896)">
<rect x="-0.0697" y="-1.4018" width="0.1395" height="3.7225" ry="0.0444" fill="currentColor"/>
</g>
<g transform="translate(83.6153, 24.6217)">
<path transform="scale(0.0040, -0.0040)" d="M-210 86c-9 2 -15 10 -15 19c0 12 12 23 25 19l405 -104c14 0 20 -6 20 -20s-6 -20 -20 -20l-405 -104c-13 -4 -25 7 -25 19c0 9 6 17 15 19l248 64l140 22l-140 22z" fill="currentColor"/>
</g>
<g transform="translate(82.9639, 23.3896)">
<path transform="scale(0.0040, -0.0040)" d="M215 137c57 0 111 -29 111 -92c0 -71 -54 -120 -101 -148c-35 -21 -74 -34 -114 -34c-57 0 -111 29 -111 92c0 71 54 120 101 148c35 21 74 34 114 34z" fill="currentColor"/>
</g>
<g transform="translate(90.1639, 21.3896)">
<path transform="scale(0.0040, -0.0040)" d="M215 137c57 0 111 -29 111 -92c0 -71 -54 -120 -101 -148c-35 -21 -74 -34 -114 -34c-57 0 -111 29 -111 92c0 71 54 120 101 148c35 21 74 34 114 34z" fill="currentColor"/>
</g>
<g transform="translate(93.2153, 25.1217)">
<path transform="scale(0.0040, -0.0040)" d="M-210 86c-9 2 -15 10 -15 19c0 12 12 23 25 19l405 -104c14 0 20 -6 20 -20s-6 -20 -20 -20l-405 -104c-13 -4 -25 7 -25 19c0 9 6 17 15 19l248 64l140 22l-140 22z" fill="currentColor"/>
</g>
<g transform="translate(92.5639, 23.8896)">
<path transform="scale(0.0040, -0.0040)" d="M215 137c57 0 111 -29 111 -92c0 -71 -54 -120 -101 -148c-35 -21 -74 -34 -114 -34c-57 0 -111 29 -111 92c0 71 54 120 101 148c35 21 74 34 114 34z" fill="currentColor"/>
</g>
<g transform="translate(91.3969, 20.8896)">
<rect x="-0.0697" y="-3.0212" width="0.1395" height="3.3418" ry="0.0444" fill="currentColor"/>
</g>
<g transform="translate(90.8153, 22.3896)">
<path transform="scale(0.0040, -0.0040)" d="M-50 0c0 28 22 50 50 50s50 -22 50 -50s-22 -50 -50 -50s-50 22 -50 50z" fill="currentColor"/>
</g>
<g transform="translate(81.7969, 20.8896)">
<rect x="-0.0697" y="-1.0113" width="0.1395" height="3.3320" ry="0.0444" fill="currentColor"/>
</g>
<g transform="translate(87.7639, 25.5470)">
<text font-family="serif" font-size="2.2000" text-anchor="start" fill="currentColor">
<tspan>\</tspan>
</text>
</g>
<g transform="translate(87.7639, 20.8896)">
<path transform="scale(0.0040, -0.0040)" d="M64 -500l100 326c-33 -12 -67 -22 -103 -22c-46 0 -87 33 -87 79c0 40 33 72 73 72c25 0 48 -14 56 -38c10 -27 5 -59 34 -59c16 0 53 51 58 67l46 151c-33 -12 -67 -22 -102 -22c-46 0 -87 33 -87 79c0 40 33 72 73 72c25 0 48 -14 56 -38c10 -27 5 -59 34 -59
c14 0 48 45 54 59c6 13 26 13 31 0l-177 -667c-9 -7 -19 -11 -30 -11s-20 4 -29 11z" fill="currentColor"/>
</g>
<g transform="translate(32.1114, 21.3896)">
<path transform="scale(0.0040, -0.0040)" d="M-50 0c0 28 22 50 50 50s50 -22 50 -50s-22 -50 -50 -50s-50 22 -50 50z" fill="currentColor"/>
</g>
<g transform="translate(33.9297, 20.8896)">
<rect x="-0.0697" y="-2.3206" width="0.1395" height="6.8206" ry="0.0444" fill="currentColor"/>
</g>
<g transform="translate(34.5114, 17.1574)">
<path transform="scale(0.0040, -0.0040)" d="M-210 86c-9 2 -15 10 -15 19c0 12 12 23 25 19l405 -104c14 0 20 -6 20 -20s-6 -20 -20 -20l-405 -104c-13 -4 -25 7 -25 19c0 9 6 17 15 19l248 64l140 22l-140 22z" fill="currentColor"/>
</g>
<g transform="translate(33.8600, 18.3896)">
<path transform="scale(0.0040, -0.0040)" d="M215 137c57 0 111 -29 111 -92c0 -71 -54 -120 -101 -148c-35 -21 -74 -34 -114 -34c-57 0 -111 29 -111 92c0 71 54 120 101 148c35 21 74 34 114 34z" fill="currentColor"/>
</g>
<g transform="translate(31.5297, 20.8896)">
<rect x="-0.0697" y="2.1794" width="0.1395" height="2.6157" ry="0.0444" fill="currentColor"/>
</g>
<g transform="translate(31.4600, 22.8896)">
<path transform="scale(0.0040, -0.0040)" d="M215 137c57 0 111 -29 111 -92c0 -71 -54 -120 -101 -148c-35 -21 -74 -34 -114 -34c-57 0 -111 29 -111 92c0 71 54 120 101 148c35 21 74 34 114 34z" fill="currentColor"/>
</g>
<g transform="translate(29.0600, 25.5470)">
<text font-family="serif" font-size="2.2000" text-anchor="start" fill="currentColor">
<tspan>\</tspan>
</text>
</g>
<g transform="translate(29.0600, 20.8896)">
<path transform="scale(0.0040, -0.0040)" d="M64 -500l100 326c-33 -12 -67 -22 -103 -22c-46 0 -87 33 -87 79c0 40 33 72 73 72c25 0 48 -14 56 -38c10 -27 5 -59 34 -59c16 0 53 51 58 67l46 151c-33 -12 -67 -22 -102 -22c-46 0 -87 33 -87 79c0 40 33 72 73 72c25 0 48 -14 56 -38c10 -27 5 -59 34 -59
c14 0 48 45 54 59c6 13 26 13 31 0l-177 -667c-9 -7 -19 -11 -30 -11s-20 4 -29 11z" fill="currentColor"/>
</g>
<g transform="translate(38.6600, 25.5470)">
<text font-family="serif" font-size="2.2000" text-anchor="start" fill="currentColor">
<tspan>\</tspan>
</text>
</g>
<g transform="translate(38.6600, 20.8896)">
<path transform="scale(0.0040, -0.0040)" d="M64 -500l100 326c-33 -12 -67 -22 -103 -22c-46 0 -87 33 -87 79c0 40 33 72 73 72c25 0 48 -14 56 -38c10 -27 5 -59 34 -59c16 0 53 51 58 67l46 151c-33 -12 -67 -22 -102 -22c-46 0 -87 33 -87 79c0 40 33 72 73 72c25 0 48 -14 56 -38c10 -27 5 -59 34 -59
c14 0 48 45 54 59c6 13 26 13 31 0l-177 -667c-9 -7 -19 -11 -30 -11s-20 4 -29 11z" fill="currentColor"/>
</g>
<g transform="translate(36.3297, 20.8896)">
<rect x="-0.0697" y="1.1794" width="0.1395" height="3.0256" ry="0.0444" fill="currentColor"/>
</g>
<g transform="translate(36.9114, 20.3896)">
<path transform="scale(0.0040, -0.0040)" d="M-111 0c-10 0 -17 10 -13 19l112 248c2 5 7 8 12 8s10 -3 12 -8l112 -248c4 -9 -3 -19 -13 -19h-66c-5 0 -10 3 -12 8l-66 146l-66 -146c-2 -5 -7 -8 -12 -8z" fill="currentColor"/>
</g>
<g transform="translate(36.2600, 21.8896)">
<path transform="scale(0.0040, -0.0040)" d="M215 137c57 0 111 -29 111 -92c0 -71 -54 -120 -101 -148c-35 -21 -74 -34 -114 -34c-57 0 -111 29 -111 92c0 71 54 120 101 148c35 21 74 34 114 34z" fill="currentColor"/>
</g>
<g transform="translate(22.5114, 24.8382)">
<path transform="scale(0.0040, -0.0040)" d="M-50 0c0 28 22 50 50 50s50 -22 50 -50s-22 -50 -50 -50s-50 22 -50 50z" fill="currentColor"/>
</g>
<g transform="translate(21.8600, 23.8896)">
<path transform="scale(0.0040, -0.0040)" d="M215 137c57 0 111 -29 111 -92c0 -71 -54 -120 -101 -148c-35 -21 -74 -34 -114 -34c-57 0 -111 29 -111 92c0 71 54 120 101 148c35 21 74 34 114 34z" fill="currentColor"/>
</g>
<g transform="translate(23.0931, 20.8896)">
<rect x="-0.0697" y="-0.0113" width="0.1395" height="2.8320" ry="0.0444" fill="currentColor"/>
</g>
<g transform="translate(16.8600, 21.8896)">
<path transform="scale(0.0040, -0.0040)" d="M378 263c4 0 7 1 11 1c156 0 257 -129 257 -262c0 -76 -34 -154 -108 -210c-22 -17 -46 -29 -72 -37c3 -34 5 -68 5 -102c0 -20 -1 -40 -2 -60c-7 -121 -90 -228 -209 -228c-108 0 -196 87 -196 196c0 58 53 104 112 104c54 0 95 -48 95 -104c0 -52 -43 -95 -95 -95
c-10 0 -20 2 -29 6c26 -38 68 -63 116 -63h3c93 2 153 92 159 190c1 19 2 37 2 56c0 30 -2 60 -4 90c-29 -5 -58 -8 -88 -8c-188 0 -333 173 -333 375c0 177 130 307 246 442c-20 62 -38 125 -46 190c-6 52 -7 104 -7 157c0 115 55 223 148 290c7 5 16 4 22 -1
c71 -83 134 -244 134 -357c0 -143 -85 -255 -178 -364c21 -68 40 -137 57 -206zM462 -202c67 24 111 94 111 162c0 89 -65 178 -170 190c24 -115 46 -230 59 -352zM75 26c0 -134 129 -245 263 -245c28 0 55 2 81 6c-14 126 -36 244 -61 363c-79 -8 -124 -61 -124 -119
c0 -43 25 -89 80 -121c5 -5 7 -11 7 -16c0 -12 -10 -23 -22 -23c-3 0 -6 1 -9 2c-81 43 -118 116 -118 186c0 89 58 175 161 198c-14 58 -29 116 -46 173c-106 -122 -212 -244 -212 -404zM406 1042c-99 -47 -162 -148 -162 -257c0 -73 20 -132 38 -191
c79 97 144 199 144 324c0 53 -4 76 -20 124z" fill="currentColor"/>
</g>
<g transform="translate(27.8931, 20.8896)">
<rect x="-0.0697" y="-0.7923" width="0.1395" height="2.6129" ry="0.0444" fill="currentColor"/>
</g>
<g transform="translate(27.3114, 23.6382)">
<path transform="scale(0.0040, -0.0040)" d="M111 0c10 0 17 -10 13 -19l-112 -248c-2 -5 -7 -8 -12 -8s-10 3 -12 8l-112 248c-4 9 3 19 13 19h66c5 0 10 -3 12 -8l66 -146l66 146c2 5 7 8 12 8z" fill="currentColor"/>
</g>
<g transform="translate(26.6600, 22.8896)">
<path transform="scale(0.0040, -0.0040)" d="M215 137c57 0 111 -29 111 -92c0 -71 -54 -120 -101 -148c-35 -21 -74 -34 -114 -34c-57 0 -111 29 -111 92c0 71 54 120 101 148c35 21 74 34 114 34z" fill="currentColor"/>
</g>
<g transform="translate(25.4931, 20.8896)">
<rect x="-0.0697" y="-0.4018" width="0.1395" height="3.2225" ry="0.0444" fill="currentColor"/>
</g>
<g transform="translate(24.9114, 25.1217)">
<path transform="scale(0.0040, -0.0040)" d="M-210 86c-9 2 -15 10 -15 19c0 12 12 23 25 19l405 -104c14 0 20 -6 20 -20s-6 -20 -20 -20l-405 -104c-13 -4 -25 7 -25 19c0 9 6 17 15 19l248 64l140 22l-140 22z" fill="currentColor"/>
</g>
<g transform="translate(24.2600, 23.8896)">
<path transform="scale(0.0040, -0.0040)" d="M215 137c57 0 111 -29 111 -92c0 -71 -54 -120 -101 -148c-35 -21 -74 -34 -114 -34c-57 0 -111 29 -111 92c0 71 54 120 101 148c35 21 74 34 114 34z" fill="currentColor"/>
</g>
<g transform="translate(55.5297, 20.8896)">
<rect x="-0.0697" y="-1.8206" width="0.1395" height="2.8320" ry="0.0444" fill="currentColor"/>
</g>
<g transform="translate(56.1114, 18.1409)">
<path transform="scale(0.0040, -0.0040)" d="M-111 0c-10 0 -17 10 -13 19l112 248c2 5 7 8 12 8s10 -3 12 -8l112 -248c4 -9 -3 -19 -13 -19h-66c-5 0 -10 3 -12 8l-66 146l-66 -146c-2 -5 -7 -8 -12 -8z" fill="currentColor"/>
</g>
<g transform="translate(55.4600, 18.8896)">
<path transform="scale(0.0040, -0.0040)" d="M215 137c57 0 111 -29 111 -92c0 -71 -54 -120 -101 -148c-35 -21 -74 -34 -114 -34c-57 0 -111 29 -111 92c0 71 54 120 101 148c35 21 74 34 114 34z" fill="currentColor"/>
</g>
<g transform="translate(48.2600, 20.8896)">
<path transform="scale(0.0040, -0.0040)" d="M64 -500l100 326c-33 -12 -67 -22 -103 -22c-46 0 -87 33 -87 79c0 40 33 72 73 72c25 0 48 -14 56 -38c10 -27 5 -59 34 -59c16 0 53 51 58 67l46 151c-33 -12 -67 -22 -102 -22c-46 0 -87 33 -87 79c0 40 33 72 73 72c25 0 48 -14 56 -38c10 -27 5 -59 34 -59
c14 0 48 45 54 59c6 13 26 13 31 0l-177 -667c-9 -7 -19 -11 -30 -11s-20 4 -29 11z" fill="currentColor"/>
</g>
<g transform="translate(48.2600, 25.5470)">
<text font-family="serif" font-size="2.2000" text-anchor="start" fill="currentColor">
<tspan>\</tspan>
</text>
</g>
<g transform="translate(50.6600, 19.8896)">
<path transform="scale(0.0040, -0.0040)" d="M215 137c57 0 111 -29 111 -92c0 -71 -54 -120 -101 -148c-35 -21 -74 -34 -114 -34c-57 0 -111 29 -111 92c0 71 54 120 101 148c35 21 74 34 114 34z" fill="currentColor"/>
</g>
<g transform="translate(51.3114, 18.3896)">
<path transform="scale(0.0040, -0.0040)" d="M-50 0c0 28 22 50 50 50s50 -22 50 -50s-22 -50 -50 -50s-50 22 -50 50z" fill="currentColor"/>
</g>
<g transform="translate(50.7297, 20.8896)">
<rect x="-0.0697" y="-0.8206" width="0.1395" height="2.6129" ry="0.0444" fill="currentColor"/>
</g>
<g transform="translate(53.1297, 20.8896)">
<rect x="-0.0697" y="-1.3206" width="0.1395" height="2.7225" ry="0.0444" fill="currentColor"/>
</g>
<g transform="translate(53.0600, 19.3896)">
<path transform="scale(0.0040, -0.0040)" d="M215 137c57 0 111 -29 111 -92c0 -71 -54 -120 -101 -148c-35 -21 -74 -34 -114 -34c-57 0 -111 29 -111 92c0 71 54 120 101 148c35 21 74 34 114 34z" fill="currentColor"/>
</g>
<g transform="translate(53.7114, 18.1399)">
<path transform="scale(0.0040, -0.0040)" d="M-210 86c-9 2 -15 10 -15 19c0 12 12 23 25 19l405 -104c14 0 20 -6 20 -20s-6 -20 -20 -20l-405 -104c-13 -4 -25 7 -25 19c0 9 6 17 15 19l248 64l140 22l-140 22z" fill="currentColor"/>
</g>
<g transform="translate(57.8600, 20.8896)">
<path transform="scale(0.0040, -0.0040)" d="M64 -500l100 326c-33 -12 -67 -22 -103 -22c-46 0 -87 33 -87 79c0 40 33 72 73 72c25 0 48 -14 56 -38c10 -27 5 -59 34 -59c16 0 53 51 58 67l46 151c-33 -12 -67 -22 -102 -22c-46 0 -87 33 -87 79c0 40 33 72 73 72c25 0 48 -14 56 -38c10 -27 5 -59 34 -59
c14 0 48 45 54 59c6 13 26 13 31 0l-177 -667c-9 -7 -19 -11 -30 -11s-20 4 -29 11z" fill="currentColor"/>
</g>
<g transform="translate(42.2931, 20.8896)">
<rect x="-0.0697" y="-3.9718" width="0.1395" height="2.2924" ry="0.0444" fill="currentColor"/>
</g>
<g transform="translate(41.7114, 20.3896)">
<path transform="scale(0.0040, -0.0040)" d="M-50 0c0 28 22 50 50 50s50 -22 50 -50s-22 -50 -50 -50s-50 22 -50 50z" fill="currentColor"/>
</g>
<g transform="translate(43.4600, 21.8896)">
<path transform="scale(0.0040, -0.0040)" d="M215 137c57 0 111 -29 111 -92c0 -71 -54 -120 -101 -148c-35 -21 -74 -34 -114 -34c-57 0 -111 29 -111 92c0 71 54 120 101 148c35 21 74 34 114 34z" fill="currentColor"/>
</g>
<g transform="translate(57.8600, 25.5470)">
<text font-family="serif" font-size="2.2000" text-anchor="start" fill="currentColor">
<tspan>\</tspan>
</text>
</g>
<g transform="translate(44.1114, 23.6392)">
<path transform="scale(0.0040, -0.0040)" d="M-210 86c-9 2 -15 10 -15 19c0 12 12 23 25 19l405 -104c14 0 20 -6 20 -20s-6 -20 -20 -20l-405 -104c-13 -4 -25 7 -25 19c0 9 6 17 15 19l248 64l140 22l-140 22z" fill="currentColor"/>
</g>
<g transform="translate(44.6931, 20.8896)">
<rect x="-0.0697" y="-3.0000" width="0.1395" height="3.8206" ry="0.0444" fill="currentColor"/>
</g>
<g transform="translate(41.0600, 19.3896)">
<path transform="scale(0.0040, -0.0040)" d="M215 137c57 0 111 -29 111 -92c0 -71 -54 -120 -101 -148c-35 -21 -74 -34 -114 -34c-57 0 -111 29 -111 92c0 71 54 120 101 148c35 21 74 34 114 34z" fill="currentColor"/>
</g>
<g transform="translate(47.0931, 20.8896)">
<rect x="-0.0697" y="-2.0282" width="0.1395" height="3.8489" ry="0.0444" fill="currentColor"/>
</g>
<g transform="translate(45.8600, 22.8896)">
<path transform="scale(0.0040, -0.0040)" d="M215 137c57 0 111 -29 111 -92c0 -71 -54 -120 -101 -148c-35 -21 -74 -34 -114 -34c-57 0 -111 29 -111 92c0 71 54 120 101 148c35 21 74 34 114 34z" fill="currentColor"/>
</g>
<g transform="translate(46.5114, 23.6382)">
<path transform="scale(0.0040, -0.0040)" d="M111 0c10 0 17 -10 13 -19l-112 -248c-2 -5 -7 -8 -12 -8s-10 3 -12 8l-112 248c-4 9 3 19 13 19h66c5 0 10 -3 12 -8l66 -146l66 146c2 5 7 8 12 8z" fill="currentColor"/>
</g>
</svg>
