<svg xmlns="http://www.w3.org/2000/svg" xmlns:xlink="http://www.w3.org/1999/xlink" version="1.2" width="137.03mm" height="46.00mm" viewBox="0.0000 0.0014 86.6399 29.0819">
<style type="text/css">
<![CDATA[
tspan { white-space: pre; }
]]>
</style>
<g color="rgb(49.8039%, 49.8039%, 49.8039%)">
<g transform="translate(0.0000, 7.4747)">
<line stroke-linejoin="round" stroke-linecap="round" stroke-width="0.1073" stroke="currentColor" x1="0.0537" y1="0" x2="65.9431" y2="0"/>
</g>
<g transform="translate(0.0000, 6.4747)">
<line stroke-linejoin="round" stroke-linecap="round" stroke-width="0.1073" stroke="currentColor" x1="0.0537" y1="0" x2="65.9431" y2="0"/>
</g>
<g transform="translate(0.0000, 5.4747)">
<line stroke-linejoin="round" stroke-linecap="round" stroke-width="0.1073" stroke="currentColor" x1="0.0537" y1="0" x2="65.9431" y2="0"/>
</g>
<g transform="translate(0.0000, 4.4747)">
<line stroke-linejoin="round" stroke-linecap="round" stroke-width="0.1073" stroke="currentColor" x1="0.0537" y1="0" x2="65.9431" y2="0"/>
</g>
<g transform="translate(0.0000, 3.4747)">
<line stroke-linejoin="round" stroke-linecap="round" stroke-width="0.1073" stroke="currentColor" x1="0.0537" y1="0" x2="65.9431" y2="0"/>
</g>
</g>
<g transform="translate(0.0000, 8.4747)">
<rect x="9.1684" y="-0.1037" width="1.8035" height="0.2073" ry="0.1037" fill="currentColor"/>
</g>
<g transform="translate(47.1875, 5.4747)">
<rect x="0.0000" y="-2.0537" width="0.2039" height="4.1073" ry="0.0000" fill="currentColor"/>
</g>
<g transform="translate(65.7929, 5.4747)">
<rect x="0.0000" y="-2.0537" width="0.2039" height="4.1073" ry="0.0000" fill="currentColor"/>
</g>
<g transform="translate(26.3473, 5.4747)">
<rect x="0.0000" y="-2.0537" width="0.2039" height="4.1073" ry="0.0000" fill="currentColor"/>
</g>
<g transform="translate(53.5914, 4.4747)">
<path transform="scale(0.0032, -0.0032)" d="M208 139c61 0 117 -33 117 -99c0 -71 -52 -119 -99 -147c-34 -20 -71 -32 -110 -32c-61 0 -116 33 -116 99c0 71 51 119 98 147c34 20 71 32 110 32z" fill="currentColor"/>
</g>
<g transform="translate(49.9914, 6.4747)">
<path transform="scale(0.0057, -0.0057)" d="M83 52c-1 -1 -2 -3 -2 -5s1 -4 2 -5l117 -128c2 -2 3 -2 5 -2s4 0 6 2l31 34c1 1 2 3 2 5s-1 4 -2 5l-117 128c-2 2 -3 2 -5 2s-4 0 -6 -2zM0 0c0 2 1 4 2 5c56 52 108 108 155 169c1 2 3 3 5 3s5 -1 6 -3c47 -61 99 -117 155 -169c1 -1 2 -3 2 -5s-1 -4 -2 -5
c-56 -52 -108 -108 -155 -169c-1 -2 -4 -3 -6 -3s-4 1 -5 3c-47 61 -99 117 -155 169c-1 1 -2 3 -2 5z" fill="currentColor"/>
</g>
<g transform="translate(50.9106, 8.2243)">
<path transform="scale(0.0040, -0.0040)" d="M-210 86c-9 2 -15 10 -15 19c0 12 12 23 25 19l405 -104c14 0 20 -6 20 -20s-6 -20 -20 -20l-405 -104c-13 -4 -25 7 -25 19c0 9 6 17 15 19l248 64l140 22l-140 22z" fill="currentColor"/>
</g>
<g transform="translate(51.7601, 5.4747)">
<rect x="-0.0697" y="-2.5000" width="0.1395" height="3.5000" ry="0.0444" fill="currentColor"/>
</g>
<g transform="translate(51.8299, 3.0191)">
<path transform="scale(0.0040, -0.0040)" d="M0 0c0 -197 207 -335 207 -532c0 -71 -15 -141 -41 -207c-5 -8 -13 -12 -21 -12c-14 0 -27 11 -24 28c26 60 42 125 42 191c0 103 -93 207 -163 282h-18v250h18z" fill="currentColor"/>
</g>
<g transform="translate(32.1836, 7.4747)">
<path transform="scale(0.0040, -0.0040)" d="M29 39l-2 -64v-11c0 -22 2 -43 5 -65c44 38 91 80 91 138c0 33 -13 66 -42 66c-31 0 -51 -31 -52 -64zM-28 454c9 5 18 8 28 8s19 -3 28 -8l-7 -343c25 23 58 36 92 36c51 0 87 -49 87 -103c0 -79 -84 -117 -144 -169c-16 -14 -25 -41 -47 -41c-14 0 -25 13 -25 27z" fill="currentColor"/>
</g>
<g transform="translate(36.1181, 13.1401)">
<g>
<path transform="scale(0.0040, -0.0040)" d="M-44 146c26 76 84 153 152 153c22 0 36 -19 41 -43c23 25 53 43 82 43c23 0 37 -19 43 -44c22 26 51 44 80 44c33 0 59 -35 59 -69c0 -5 -1 -10 -2 -15l-35 -149c0 -2 -1 -4 -1 -5c0 -5 2 -8 7 -8c9 0 27 11 48 31c5 5 10 6 14 6c6 0 12 -4 12 -10c0 -4 -2 -8 -7 -13
c-40 -38 -87 -74 -133 -74c-20 0 -32 13 -32 32c0 4 0 7 1 11l39 165c1 5 2 9 2 14c0 10 -4 18 -14 18c-16 0 -33 -17 -39 -33l-52 -181c-3 -10 -15 -19 -25 -19h-38c-11 0 -17 8 -14 19l52 182c2 6 3 11 3 16c0 9 -4 16 -13 16c-16 0 -35 -16 -41 -33l-62 -181
c-4 -11 -15 -19 -26 -19h-38c-11 0 -16 8 -12 19l62 182c2 5 2 10 2 15c0 10 -3 17 -13 17c-29 0 -54 -53 -66 -87c-4 -12 -15 -18 -24 -18c-7 0 -13 3 -13 11c0 2 0 5 1 7z" fill="currentColor"/>

<path transform="translate(1.7451, 0.0000) scale(0.0040, -0.0040)" d="M252 241l-49 -161c-30 -99 -121 -256 -218 -256c-46 0 -87 30 -87 73c0 39 17 77 52 77c24 0 44 -20 44 -44c0 -30 -38 -24 -38 -54c0 -10 11 -11 23 -11h6c47 0 61 56 73 105l68 271h-47c-11 0 -21 10 -21 21s10 21 21 21h58c32 95 119 189 213 189c46 0 87 -29 87 -72
c0 -39 -17 -78 -52 -78c-24 0 -44 20 -44 44c0 30 38 25 38 55c0 10 -10 10 -22 10h-7c-60 0 -70 -84 -86 -148h53c11 0 21 -10 21 -21s-10 -21 -21 -21h-65z" fill="currentColor"/>
</g>
</g>
<g transform="translate(37.6356, 7.9747)">
<path transform="scale(0.0040, -0.0040)" d="M111 0c10 0 17 -10 13 -19l-112 -248c-2 -5 -7 -8 -12 -8s-10 3 -12 8l-112 248c-4 9 3 19 13 19h66c5 0 10 -3 12 -8l66 -146l66 146c2 5 7 8 12 8z" fill="currentColor"/>
</g>
<g transform="translate(38.0815, 6.9747)">
<path transform="scale(0.0040, -0.0040)" d="M0 0c0 31 25 56 56 56s55 -25 55 -56s-24 -56 -55 -56s-56 25 -56 56z" fill="currentColor"/>
</g>
<g transform="translate(37.6356, 5.4747)">
<rect x="-0.0697" y="-1.8171" width="0.1395" height="3.3171" ry="0.0444" fill="currentColor"/>
</g>
<g transform="translate(41.9375, 7.4747)">
<path transform="scale(0.0036, -0.0036)" d="M310 63c0 23 -19 40 -40 40c-4 0 -8 -1 -12 -2c-30 -8 -75 -38 -111 -61s-81 -52 -101 -76c-7 -8 -10 -17 -10 -27c0 -23 19 -40 40 -40c4 0 8 1 12 2c30 8 75 38 111 61s81 52 101 76c7 8 10 17 10 27zM256 138c50 0 90 -22 90 -77c0 -18 -5 -37 -10 -55
c-11 -38 -30 -74 -63 -96c-53 -35 -111 -48 -183 -48c-50 0 -90 22 -90 77c0 18 5 37 10 55c11 38 30 74 63 96c53 36 111 48 183 48z" fill="currentColor"/>
</g>
<g color="rgb(100.0000%, 100.0000%, 100.0000%)">
<g transform="translate(39.0637, 10.6459)">
<rect x="0.0000" y="-1.6188" width="6.9804" height="1.6500" ry="0.0000" fill="currentColor"/>
</g>
</g>
<g transform="translate(39.0637, 10.6459)">
<text font-family="serif" font-style="italic" font-size="2.2000" text-anchor="start" fill="currentColor">
<tspan>niente</tspan>
</text>
</g>
<g transform="translate(42.5539, 8.3671)">
<path transform="scale(0.0040, -0.0040)" d="M-50 0c0 28 22 50 50 50s50 -22 50 -50s-22 -50 -50 -50s-50 22 -50 50z" fill="currentColor"/>
</g>
<g transform="translate(43.1006, 5.4747)">
<rect x="-0.0697" y="-1.5000" width="0.1395" height="3.2812" ry="0.0444" fill="currentColor"/>
</g>
<g transform="translate(31.5145, 2.4747)">
<polygon stroke-linejoin="round" stroke-linecap="round" stroke-width="0.0889" fill="currentColor" stroke="currentColor" points="6.1464 0.9908 6.1464 1.4019 0.0444 0.2056 0.0444 -0.2056"/>
</g>
<g transform="translate(31.5145, 3.2783)">
<polygon stroke-linejoin="round" stroke-linecap="round" stroke-width="0.0889" fill="currentColor" stroke="currentColor" points="1.1253 0.0205 1.1253 0.4316 0.0444 0.2056 0.0444 -0.2056"/>
</g>
<g transform="translate(23.9473, 5.4747)">
<path stroke-width="0.0858" stroke-linejoin="round" stroke-linecap="round" stroke="currentColor" fill="currentColor" d="M0.8514 -1.1943C1.8353 -2.0624 5.8713 -2.0624 6.8553 -1.1943L6.8553 -1.1943C5.8713 -1.9336 1.8353 -1.9336 0.8514 -1.1943z"/>
</g>
<g transform="translate(59.9409, 7.4747)">
<path transform="scale(0.0057, -0.0057)" d="M83 52c-1 -1 -2 -3 -2 -5s1 -4 2 -5l117 -128c2 -2 3 -2 5 -2s4 0 6 2l31 34c1 1 2 3 2 5s-1 4 -2 5l-117 128c-2 2 -3 2 -5 2s-4 0 -6 -2zM0 0c0 2 1 4 2 5c56 52 108 108 155 169c1 2 3 3 5 3s5 -1 6 -3c47 -61 99 -117 155 -169c1 -1 2 -3 2 -5s-1 -4 -2 -5
c-56 -52 -108 -108 -155 -169c-1 -2 -4 -3 -6 -3s-4 1 -5 3c-47 61 -99 117 -155 169c-1 1 -2 3 -2 5z" fill="currentColor"/>
</g>
<g transform="translate(54.1065, 2.9747)">
<path transform="scale(0.0040, -0.0040)" d="M-50 0c0 28 22 50 50 50s50 -22 50 -50s-22 -50 -50 -50s-50 22 -50 50z" fill="currentColor"/>
</g>
<g transform="translate(55.9596, 3.9747)">
<path transform="scale(0.0040, -0.0040)" d="M0 0c0 31 25 56 56 56s55 -25 55 -56s-24 -56 -55 -56s-56 25 -56 56z" fill="currentColor"/>
</g>
<g transform="translate(55.0677, 3.9747)">
<path transform="scale(0.0040, -0.0040)" d="M0 0c0 31 25 56 56 56s55 -25 55 -56s-24 -56 -55 -56s-56 25 -56 56z" fill="currentColor"/>
</g>
<g transform="translate(53.6611, 5.4747)">
<rect x="-0.0697" y="-0.8716" width="0.1395" height="3.3716" ry="0.0444" fill="currentColor"/>
</g>
<g transform="translate(53.5914, 1.7746)">
<text font-family="serif" font-style="italic" font-size="2.2000" text-anchor="start" fill="currentColor">
<tspan>Perdendosi</tspan>
</text>
</g>
<g color="rgb(100.0000%, 100.0000%, 100.0000%)">
<g transform="translate(57.3700, 11.7442)">
<rect x="0.0000" y="-1.6188" width="6.9804" height="1.6500" ry="0.0000" fill="currentColor"/>
</g>
</g>
<g transform="translate(57.3700, 11.7442)">
<text font-family="serif" font-style="italic" font-size="2.2000" text-anchor="start" fill="currentColor">
<tspan>niente</tspan>
</text>
</g>
<g transform="translate(60.8602, 9.1694)">
<path transform="scale(0.0040, -0.0040)" d="M-210 86c-9 2 -15 10 -15 19c0 12 12 23 25 19l405 -104c14 0 20 -6 20 -20s-6 -20 -20 -20l-405 -104c-13 -4 -25 7 -25 19c0 9 6 17 15 19l248 64l140 22l-140 22z" fill="currentColor"/>
</g>
<g transform="translate(62.2254, 6.9747)">
<path transform="scale(0.0040, -0.0040)" d="M0 0c0 31 25 56 56 56s55 -25 55 -56s-24 -56 -55 -56s-56 25 -56 56z" fill="currentColor"/>
</g>
<g transform="translate(61.7097, 5.4747)">
<rect x="-0.0697" y="-1.5000" width="0.1395" height="3.5000" ry="0.0444" fill="currentColor"/>
</g>
<g transform="translate(58.7909, 7.4747)">
<path transform="scale(0.0040, -0.0040)" d="M29 39l-2 -64v-11c0 -22 2 -43 5 -65c44 38 91 80 91 138c0 33 -13 66 -42 66c-31 0 -51 -31 -52 -64zM-28 454c9 5 18 8 28 8s19 -3 28 -8l-7 -343c25 23 58 36 92 36c51 0 87 -49 87 -103c0 -79 -84 -117 -144 -169c-16 -14 -25 -41 -47 -41c-14 0 -25 13 -25 27z" fill="currentColor"/>
</g>
<g transform="translate(13.6453, 6.9747)">
<path transform="scale(0.0050, -0.0050)" d="M85 52c-1 -2 -3 -4 -3 -6s2 -4 3 -6l113 -124c2 -2 3 -3 6 -3s5 1 7 3l29 32c1 2 3 4 3 6s-2 4 -3 6l-113 124c-2 2 -3 3 -6 3s-5 -1 -7 -3zM0 0c0 2 0 4 2 6c56 52 108 108 154 169c2 2 3 3 6 3s5 -1 7 -3c46 -61 98 -117 154 -169c2 -2 2 -4 2 -6s0 -4 -2 -6
c-56 -52 -108 -108 -154 -169c-2 -2 -4 -3 -7 -3s-4 1 -6 3c-46 61 -98 117 -154 169c-2 2 -2 4 -2 6z" fill="currentColor"/>
</g>
<g color="rgb(100.0000%, 100.0000%, 100.0000%)">
<g transform="translate(10.9741, 11.1405)">
<rect x="0.0000" y="-1.6188" width="6.9804" height="1.6500" ry="0.0000" fill="currentColor"/>
</g>
</g>
<g transform="translate(10.9741, 11.1405)">
<text font-family="serif" font-style="italic" font-size="2.2000" text-anchor="start" fill="currentColor">
<tspan>niente</tspan>
</text>
</g>
<g transform="translate(14.4643, 8.5657)">
<path transform="scale(0.0040, -0.0040)" d="M-210 86c-9 2 -15 10 -15 19c0 12 12 23 25 19l405 -104c14 0 20 -6 20 -20s-6 -20 -20 -20l-405 -104c-13 -4 -25 7 -25 19c0 9 6 17 15 19l248 64l140 22l-140 22z" fill="currentColor"/>
</g>
<g transform="translate(15.2135, 5.4747)">
<rect x="-0.0697" y="-2.0000" width="0.1395" height="3.5000" ry="0.0444" fill="currentColor"/>
</g>
<g color="rgb(100.0000%, 100.0000%, 100.0000%)">
<g transform="translate(11.3940, 13.3032)">
<rect x="0.0000" y="-1.6715" width="16.5026" height="2.1291" ry="0.0000" fill="currentColor"/>
</g>
</g>
<g transform="translate(11.3940, 13.3032)">
<text font-family="serif" font-style="italic" font-size="2.2000" text-anchor="start" fill="currentColor">
<tspan>appena udibile</tspan>
</text>
</g>
<g transform="translate(19.6453, 3.9747)">
<path transform="scale(0.0040, -0.0040)" d="M-111 0c-10 0 -17 10 -13 19l112 248c2 5 7 8 12 8s10 -3 12 -8l112 -248c4 -9 -3 -19 -13 -19h-66c-5 0 -10 3 -12 8l-66 146l-66 -146c-2 -5 -7 -8 -12 -8z" fill="currentColor"/>
</g>
<g transform="translate(20.0913, 3.9747)">
<path transform="scale(0.0040, -0.0040)" d="M0 0c0 31 25 56 56 56s55 -25 55 -56s-24 -56 -55 -56s-56 25 -56 56z" fill="currentColor"/>
</g>
<g transform="translate(19.6453, 5.4747)">
<rect x="-0.0697" y="-1.0000" width="0.1395" height="3.5000" ry="0.0444" fill="currentColor"/>
</g>
<g transform="translate(19.7151, 7.9302)">
<path transform="scale(0.0040, -0.0040)" d="M0 0h-18v250h18v-250zM0 0v250c96 59 222 149 222 259c0 57 -15 111 -40 162c-3 17 10 29 24 29c8 0 16 -5 21 -13c25 -56 40 -116 40 -178c0 -203 -267 -306 -267 -509z" fill="currentColor"/>
</g>
<g transform="translate(11.8509, 7.9747)">
<path transform="scale(0.0040, -0.0040)" d="M0 0c0 31 25 56 56 56s55 -25 55 -56s-24 -56 -55 -56s-56 25 -56 56z" fill="currentColor"/>
</g>
<g transform="translate(9.3434, 8.4747)">
<path transform="scale(0.0040, -0.0040)" d="M215 137c57 0 111 -29 111 -92c0 -71 -54 -120 -101 -148c-35 -21 -74 -34 -114 -34c-57 0 -111 29 -111 92c0 71 54 120 101 148c35 21 74 34 114 34z" fill="currentColor"/>
</g>
<g transform="translate(9.3434, 1.6728)">
<text font-family="serif" font-style="italic" font-size="2.2000" text-anchor="start" fill="currentColor">
<tspan>Perdendosi</tspan>
</text>
</g>
<g transform="translate(9.9948, 9.4233)">
<path transform="scale(0.0040, -0.0040)" d="M-50 0c0 28 22 50 50 50s50 -22 50 -50s-22 -50 -50 -50s-50 22 -50 50z" fill="currentColor"/>
</g>
<g transform="translate(0.8000, 6.4747)">
<path transform="scale(0.0040, -0.0040)" d="M378 263c4 0 7 1 11 1c156 0 257 -129 257 -262c0 -76 -34 -154 -108 -210c-22 -17 -46 -29 -72 -37c3 -34 5 -68 5 -102c0 -20 -1 -40 -2 -60c-7 -121 -90 -228 -209 -228c-108 0 -196 87 -196 196c0 58 53 104 112 104c54 0 95 -48 95 -104c0 -52 -43 -95 -95 -95
c-10 0 -20 2 -29 6c26 -38 68 -63 116 -63h3c93 2 153 92 159 190c1 19 2 37 2 56c0 30 -2 60 -4 90c-29 -5 -58 -8 -88 -8c-188 0 -333 173 -333 375c0 177 130 307 246 442c-20 62 -38 125 -46 190c-6 52 -7 104 -7 157c0 115 55 223 148 290c7 5 16 4 22 -1
c71 -83 134 -244 134 -357c0 -143 -85 -255 -178 -364c21 -68 40 -137 57 -206zM462 -202c67 24 111 94 111 162c0 89 -65 178 -170 190c24 -115 46 -230 59 -352zM75 26c0 -134 129 -245 263 -245c28 0 55 2 81 6c-14 126 -36 244 -61 363c-79 -8 -124 -61 -124 -119
c0 -43 25 -89 80 -121c5 -5 7 -11 7 -16c0 -12 -10 -23 -22 -23c-3 0 -6 1 -9 2c-81 43 -118 116 -118 186c0 89 58 175 161 198c-14 58 -29 116 -46 173c-106 -122 -212 -244 -212 -404zM406 1042c-99 -47 -162 -148 -162 -257c0 -73 20 -132 38 -191
c79 97 144 199 144 324c0 53 -4 76 -20 124z" fill="currentColor"/>
</g>
<g transform="translate(5.0000, 5.4747)">
<path transform="scale(0.0040, -0.0040)" d="M194 120h120c0 -49 29 -95 75 -95c8 0 12 -7 12 -13s-4 -12 -12 -12c-45 0 -90 13 -135 13s-90 -13 -135 -13c-8 0 -12 6 -12 12s4 13 12 13c46 0 75 46 75 95zM203 301c22 15 45 30 61 51c12 15 19 34 27 51c2 4 5 6 9 6c6 0 14 -6 14 -15v-238h74c10 0 16 -8 16 -16
s-6 -15 -16 -15h-74v-5h-120v5h-163c-24 0 -33 15 -33 24c0 3 1 6 2 7c80 92 134 205 134 327c0 11 8 20 17 17c24 -7 48 -13 73 -13s48 6 72 13c2 1 4 1 6 1c9 0 14 -7 14 -13c0 -2 0 -3 -2 -5l-283 -327h163v122c0 9 2 18 9 23z" fill="currentColor"/>
</g>
<g transform="translate(5.0000, 7.4866)">
<path transform="scale(0.0040, -0.0040)" d="M194 120h120c0 -49 29 -95 75 -95c8 0 12 -7 12 -13s-4 -12 -12 -12c-45 0 -90 13 -135 13s-90 -13 -135 -13c-8 0 -12 6 -12 12s4 13 12 13c46 0 75 46 75 95zM203 301c22 15 45 30 61 51c12 15 19 34 27 51c2 4 5 6 9 6c6 0 14 -6 14 -15v-238h74c10 0 16 -8 16 -16
s-6 -15 -16 -15h-74v-5h-120v5h-163c-24 0 -33 15 -33 24c0 3 1 6 2 7c80 92 134 205 134 327c0 11 8 20 17 17c24 -7 48 -13 73 -13s48 6 72 13c2 1 4 1 6 1c9 0 14 -7 14 -13c0 -2 0 -3 -2 -5l-283 -327h163v122c0 9 2 18 9 23z" fill="currentColor"/>
</g>
<g transform="translate(10.5764, 5.4747)">
<rect x="-0.0697" y="-0.5000" width="0.1395" height="3.3206" ry="0.0444" fill="currentColor"/>
</g>
<g transform="translate(10.6462, 5.0191)">
<path transform="scale(0.0040, -0.0040)" d="M0 0c0 -197 207 -335 207 -532c0 -71 -15 -141 -41 -207c-5 -8 -13 -12 -21 -12c-14 0 -27 11 -24 28c26 60 42 125 42 191c0 103 -93 207 -163 282h-18v250h18z" fill="currentColor"/>
</g>
<g transform="translate(7.8934, 8.4747)">
<path transform="scale(0.0040, -0.0040)" d="M217 -311c0 -11 -8 -19 -19 -19s-20 8 -20 19v142l-81 -30v-156c0 -11 -9 -20 -20 -20s-19 9 -19 20v142l-28 -11c-3 -1 -5 -1 -8 -1c-12 0 -22 10 -22 23v57c0 9 6 18 15 21l43 16v157l-28 -10c-3 -1 -5 -1 -8 -1c-12 0 -22 9 -22 22v57c0 9 6 18 15 21l43 16v157
c0 11 8 19 19 19s20 -8 20 -19v-142l81 30v156c0 11 9 20 20 20s19 -9 19 -20v-142l28 11c3 1 5 1 8 1c12 0 22 -10 22 -23v-57c0 -9 -6 -18 -15 -21l-43 -16v-157l28 10c3 1 5 1 8 1c12 0 22 -9 22 -22v-57c0 -9 -6 -18 -15 -21l-43 -16v-157zM97 64v-158l81 30v158z" fill="currentColor"/>
</g>
<g transform="translate(30.3511, 4.9747)">
<path transform="scale(0.0040, -0.0040)" d="M215 137c57 0 111 -29 111 -92c0 -71 -54 -120 -101 -148c-35 -21 -74 -34 -114 -34c-57 0 -111 29 -111 92c0 71 54 120 101 148c35 21 74 34 114 34z" fill="currentColor"/>
</g>
<g transform="translate(31.5842, 5.4747)">
<rect x="-0.0697" y="-2.9865" width="0.1395" height="2.3072" ry="0.0444" fill="currentColor"/>
</g>
<g transform="translate(33.3336, 7.4747)">
<path transform="scale(0.0040, -0.0040)" d="M89 51c-2 -2 -3 -5 -3 -8s1 -5 3 -7l104 -117c2 -2 5 -3 8 -3s7 1 9 3l26 30c2 2 3 5 3 8s-1 5 -3 7l-104 117c-2 2 -5 3 -8 3s-7 -1 -9 -3zM0 0c0 3 1 5 3 7c55 52 106 108 151 169c2 3 6 4 9 4s6 -1 8 -4c45 -61 96 -117 151 -169c2 -2 3 -4 3 -7s-1 -5 -3 -7
c-55 -52 -106 -108 -151 -169c-2 -3 -5 -4 -8 -4s-7 1 -9 4c-45 61 -96 117 -151 169c-2 2 -3 4 -3 7z" fill="currentColor"/>
</g>
<g color="rgb(100.0000%, 100.0000%, 100.0000%)">
<g transform="translate(30.4934, 11.4529)">
<rect x="0.0000" y="-1.6188" width="6.9804" height="1.6500" ry="0.0000" fill="currentColor"/>
</g>
</g>
<g transform="translate(30.4934, 11.4529)">
<text font-family="serif" font-style="italic" font-size="2.2000" text-anchor="start" fill="currentColor">
<tspan>niente</tspan>
</text>
</g>
<g transform="translate(33.9836, 8.8781)">
<path transform="scale(0.0040, -0.0040)" d="M-210 86c-9 2 -15 10 -15 19c0 12 12 23 25 19l405 -104c14 0 20 -6 20 -20s-6 -20 -20 -20l-405 -104c-13 -4 -25 7 -25 19c0 9 6 17 15 19l248 64l140 22l-140 22z" fill="currentColor"/>
</g>
<g transform="translate(35.0796, 6.9747)">
<path transform="scale(0.0040, -0.0040)" d="M0 0c0 31 25 56 56 56s55 -25 55 -56s-24 -56 -55 -56s-56 25 -56 56z" fill="currentColor"/>
</g>
<g transform="translate(34.5639, 5.4747)">
<rect x="-0.0697" y="-2.4107" width="0.1395" height="4.4107" ry="0.0444" fill="currentColor"/>
</g>
<g transform="translate(24.0170, 5.4747)">
<rect x="-0.0697" y="-0.3206" width="0.1395" height="3.3206" ry="0.0444" fill="currentColor"/>
</g>
<g transform="translate(23.9473, 4.9747)">
<path transform="scale(0.0040, -0.0040)" d="M215 137c57 0 111 -29 111 -92c0 -71 -54 -120 -101 -148c-35 -21 -74 -34 -114 -34c-57 0 -111 29 -111 92c0 71 54 120 101 148c35 21 74 34 114 34z" fill="currentColor"/>
</g>
<g transform="translate(23.0053, 10.2625)">
<g>
<path transform="scale(0.0040, -0.0040)" d="M-44 146c26 76 84 153 152 153c22 0 36 -19 41 -43c23 25 53 43 82 43c23 0 37 -19 43 -44c22 26 51 44 80 44c33 0 59 -35 59 -69c0 -5 -1 -10 -2 -15l-35 -149c0 -2 -1 -4 -1 -5c0 -5 2 -8 7 -8c9 0 27 11 48 31c5 5 10 6 14 6c6 0 12 -4 12 -10c0 -4 -2 -8 -7 -13
c-40 -38 -87 -74 -133 -74c-20 0 -32 13 -32 32c0 4 0 7 1 11l39 165c1 5 2 9 2 14c0 10 -4 18 -14 18c-16 0 -33 -17 -39 -33l-52 -181c-3 -10 -15 -19 -25 -19h-38c-11 0 -17 8 -14 19l52 182c2 6 3 11 3 16c0 9 -4 16 -13 16c-16 0 -35 -16 -41 -33l-62 -181
c-4 -11 -15 -19 -26 -19h-38c-11 0 -16 8 -12 19l62 182c2 5 2 10 2 15c0 10 -3 17 -13 17c-29 0 -54 -53 -66 -87c-4 -12 -15 -18 -24 -18c-7 0 -13 3 -13 11c0 2 0 5 1 7z" fill="currentColor"/>

<path transform="translate(1.7451, 0.0000) scale(0.0040, -0.0040)" d="M233 243c-56 0 -102 -108 -102 -174c0 -22 8 -38 30 -38c63 0 97 127 97 179c0 18 -7 33 -25 33zM111 -146c-37 0 -76 5 -114 5s-79 -5 -115 -5c-9 0 -14 8 -14 15c0 19 30 16 48 17c23 1 47 7 54 27l101 296c2 7 5 14 5 20c0 8 -3 14 -11 14c-33 0 -61 -60 -77 -97
c-5 -13 -17 -19 -26 -19c-8 0 -15 5 -15 13c0 3 1 7 2 10c30 68 73 142 133 142c35 0 58 -22 65 -52c29 31 67 52 103 52c69 0 107 -49 107 -114c0 -21 -4 -44 -12 -67c-20 -58 -91 -120 -147 -120c-27 0 -52 6 -73 18c-10 6 -24 3 -27 -6l-27 -80c-1 -3 -2 -6 -2 -9
c0 -21 20 -28 43 -30c9 -1 13 -8 13 -15s-5 -15 -14 -15z" fill="currentColor"/>
</g>
</g>
<g transform="translate(24.5987, 2.9747)">
<path transform="scale(0.0040, -0.0040)" d="M-50 0c0 28 22 50 50 50s50 -22 50 -50s-22 -50 -50 -50s-50 22 -50 50z" fill="currentColor"/>
</g>
<g color="rgb(49.8039%, 49.8039%, 49.8039%)">
<g transform="translate(0.0000, 19.6441)">
<line stroke-linejoin="round" stroke-linecap="round" stroke-width="0.1073" stroke="currentColor" x1="0.0537" y1="0" x2="86.5863" y2="0"/>
</g>
<g transform="translate(0.0000, 18.6441)">
<line stroke-linejoin="round" stroke-linecap="round" stroke-width="0.1073" stroke="currentColor" x1="0.0537" y1="0" x2="86.5863" y2="0"/>
</g>
<g transform="translate(0.0000, 17.6441)">
<line stroke-linejoin="round" stroke-linecap="round" stroke-width="0.1073" stroke="currentColor" x1="0.0537" y1="0" x2="86.5863" y2="0"/>
</g>
<g transform="translate(0.0000, 16.6441)">
<line stroke-linejoin="round" stroke-linecap="round" stroke-width="0.1073" stroke="currentColor" x1="0.0537" y1="0" x2="86.5863" y2="0"/>
</g>
<g transform="translate(0.0000, 15.6441)">
<line stroke-linejoin="round" stroke-linecap="round" stroke-width="0.1073" stroke="currentColor" x1="0.0537" y1="0" x2="86.5863" y2="0"/>
</g>
</g>
<g transform="translate(0.0000, 20.6441)">
<rect x="73.5485" y="-0.1037" width="1.4648" height="0.2073" ry="0.1037" fill="currentColor"/>
</g>
<g transform="translate(0.0000, 20.6441)">
<rect x="59.8669" y="-0.1037" width="0.0000" height="0.2073" ry="0.0000" fill="currentColor"/>
</g>
<g transform="translate(0.0000, 20.6441)">
<rect x="8.2513" y="-0.1037" width="0.0000" height="0.2073" ry="0.0000" fill="currentColor"/>
</g>
<g transform="translate(64.6669, 17.6441)">
<rect x="0.0000" y="-2.0537" width="0.2039" height="4.1073" ry="0.0000" fill="currentColor"/>
</g>
<g transform="translate(43.6591, 17.6441)">
<rect x="0.0000" y="-2.0537" width="0.2039" height="4.1073" ry="0.0000" fill="currentColor"/>
</g>
<g transform="translate(22.1533, 17.6441)">
<rect x="0.0000" y="-2.0537" width="0.2039" height="4.1073" ry="0.0000" fill="currentColor"/>
</g>
<g transform="translate(64.7109, 22.5153)">
<g>
<path transform="scale(0.0040, -0.0040)" d="M-44 146c26 76 84 153 152 153c22 0 36 -19 41 -43c23 25 53 43 82 43c23 0 37 -19 43 -44c22 26 51 44 80 44c33 0 59 -35 59 -69c0 -5 -1 -10 -2 -15l-35 -149c0 -2 -1 -4 -1 -5c0 -5 2 -8 7 -8c9 0 27 11 48 31c5 5 10 6 14 6c6 0 12 -4 12 -10c0 -4 -2 -8 -7 -13
c-40 -38 -87 -74 -133 -74c-20 0 -32 13 -32 32c0 4 0 7 1 11l39 165c1 5 2 9 2 14c0 10 -4 18 -14 18c-16 0 -33 -17 -39 -33l-52 -181c-3 -10 -15 -19 -25 -19h-38c-11 0 -17 8 -14 19l52 182c2 6 3 11 3 16c0 9 -4 16 -13 16c-16 0 -35 -16 -41 -33l-62 -181
c-4 -11 -15 -19 -26 -19h-38c-11 0 -16 8 -12 19l62 182c2 5 2 10 2 15c0 10 -3 17 -13 17c-29 0 -54 -53 -66 -87c-4 -12 -15 -18 -24 -18c-7 0 -13 3 -13 11c0 2 0 5 1 7z" fill="currentColor"/>

<path transform="translate(1.7451, 0.0000) scale(0.0040, -0.0040)" d="M252 241l-49 -161c-30 -99 -121 -256 -218 -256c-46 0 -87 30 -87 73c0 39 17 77 52 77c24 0 44 -20 44 -44c0 -30 -38 -24 -38 -54c0 -10 11 -11 23 -11h6c47 0 61 56 73 105l68 271h-47c-11 0 -21 10 -21 21s10 21 21 21h58c32 95 119 189 213 189c46 0 87 -29 87 -72
c0 -39 -17 -78 -52 -78c-24 0 -44 20 -44 44c0 30 38 25 38 55c0 10 -10 10 -22 10h-7c-60 0 -70 -84 -86 -148h53c11 0 21 -10 21 -21s-10 -21 -21 -21h-65z" fill="currentColor"/>
</g>
</g>
<g transform="translate(65.7707, 19.1441)">
<path transform="scale(0.0028, -0.0028)" d="M204 141c63 0 120 -35 120 -103c0 -70 -50 -119 -97 -147c-33 -20 -70 -32 -108 -32c-63 0 -119 35 -119 103c0 70 49 119 96 147c33 20 70 32 108 32z" fill="currentColor"/>
</g>
<g transform="translate(58.3471, 20.6441)">
<path transform="scale(0.0040, -0.0040)" d="M217 -311c0 -11 -8 -19 -19 -19s-20 8 -20 19v142l-81 -30v-156c0 -11 -9 -20 -20 -20s-19 9 -19 20v142l-28 -11c-3 -1 -5 -1 -8 -1c-12 0 -22 10 -22 23v57c0 9 6 18 15 21l43 16v157l-28 -10c-3 -1 -5 -1 -8 -1c-12 0 -22 9 -22 22v57c0 9 6 18 15 21l43 16v157
c0 11 8 19 19 19s20 -8 20 -19v-142l81 30v156c0 11 9 20 20 20s19 -9 19 -20v-142l28 11c3 1 5 1 8 1c12 0 22 -10 22 -23v-57c0 -9 -6 -18 -15 -21l-43 -16v-157l28 10c3 1 5 1 8 1c12 0 22 -9 22 -22v-57c0 -9 -6 -18 -15 -21l-43 -16v-157zM97 64v-158l81 30v158z" fill="currentColor"/>
</g>
<g transform="translate(59.8669, 17.6441)">
<rect x="-0.0697" y="-0.5000" width="0.1395" height="3.5000" ry="0.0444" fill="currentColor"/>
</g>
<g transform="translate(59.8669, 22.0471)">
<path transform="scale(0.0040, -0.0040)" d="M111 0c10 0 17 -10 13 -19l-112 -248c-2 -5 -7 -8 -12 -8s-10 3 -12 8l-112 248c-4 9 3 19 13 19h66c5 0 10 -3 12 -8l66 -146l66 146c2 5 7 8 12 8z" fill="currentColor"/>
</g>
<g color="rgb(100.0000%, 100.0000%, 100.0000%)">
<g transform="translate(56.3767, 29.0521)">
<rect x="0.0000" y="-1.6188" width="6.9804" height="1.6500" ry="0.0000" fill="currentColor"/>
</g>
</g>
<g transform="translate(56.3767, 29.0521)">
<text font-family="serif" font-style="italic" font-size="2.2000" text-anchor="start" fill="currentColor">
<tspan>niente</tspan>
</text>
</g>
<g transform="translate(66.2284, 20.1441)">
<path transform="scale(0.0040, -0.0040)" d="M-50 0c0 28 22 50 50 50s50 -22 50 -50s-22 -50 -50 -50s-50 22 -50 50z" fill="currentColor"/>
</g>
<g transform="translate(66.6163, 17.6441)">
<rect x="-0.0697" y="-2.0000" width="0.1395" height="3.3936" ry="0.0444" fill="currentColor"/>
</g>
<g transform="translate(47.6630, 17.1441)">
<path transform="scale(0.0040, -0.0040)" d="M215 137c57 0 111 -29 111 -92c0 -71 -54 -120 -101 -148c-35 -21 -74 -34 -114 -34c-57 0 -111 29 -111 92c0 71 54 120 101 148c35 21 74 34 114 34z" fill="currentColor"/>
</g>
<g transform="translate(47.7327, 17.6441)">
<rect x="-0.0697" y="-0.3206" width="0.1395" height="3.3206" ry="0.0444" fill="currentColor"/>
</g>
<g transform="translate(47.8024, 20.5997)">
<path transform="scale(0.0040, -0.0040)" d="M0 205c90 51 209 131 209 232c0 24 -4 47 -13 69c-79 -88 -196 -159 -196 -281v-20zM267 662c0 -44 -16 -81 -39 -115c16 -35 25 -72 25 -110c0 -180 -253 -257 -253 -437h-18v500h18v-70c96 49 222 128 222 232c0 21 -4 42 -13 61c-3 17 10 28 24 28c30 0 34 -63 34 -89
z" fill="currentColor"/>
</g>
<g transform="translate(50.0630, 18.6441)">
<path transform="scale(0.0045, -0.0045)" d="M218 136c55 0 108 -28 108 -89c0 -71 -55 -121 -102 -149c-35 -21 -75 -34 -116 -34c-55 0 -108 28 -108 89c0 71 55 121 102 149c35 21 75 34 116 34z" fill="currentColor"/>
</g>
<g color="rgb(100.0000%, 100.0000%, 100.0000%)">
<g transform="translate(42.5436, 24.2756)">
<rect x="0.0000" y="-1.6715" width="16.5026" height="2.1291" ry="0.0000" fill="currentColor"/>
</g>
</g>
<g transform="translate(42.5436, 24.2756)">
<text font-family="serif" font-style="italic" font-size="2.2000" text-anchor="start" fill="currentColor">
<tspan>appena udibile</tspan>
</text>
</g>
<g transform="translate(50.7949, 20.1441)">
<path transform="scale(0.0040, -0.0040)" d="M-50 0c0 28 22 50 50 50s50 -22 50 -50s-22 -50 -50 -50s-50 22 -50 50z" fill="currentColor"/>
</g>
<g transform="translate(51.9729, 18.1441)">
<path transform="scale(0.0040, -0.0040)" d="M0 0c0 31 25 56 56 56s55 -25 55 -56s-24 -56 -55 -56s-56 25 -56 56z" fill="currentColor"/>
</g>
<g transform="translate(51.4571, 17.6441)">
<rect x="-0.0697" y="-2.5000" width="0.1395" height="3.2911" ry="0.0444" fill="currentColor"/>
</g>
<g transform="translate(55.5649, 17.6441)">
<path transform="scale(0.0045, -0.0045)" d="M87 51c-2 -2 -3 -4 -3 -6s1 -5 3 -7l109 -120c2 -2 4 -4 7 -4s5 2 7 4l28 31c2 2 3 4 3 6s-1 5 -3 7l-109 120c-2 2 -4 4 -7 4s-5 -2 -7 -4zM0 0c0 3 1 5 3 7c56 52 106 107 152 168c2 2 5 4 8 4s5 -2 7 -4c46 -61 96 -116 152 -168c2 -2 3 -4 3 -7s-1 -5 -3 -7
c-56 -52 -106 -107 -152 -168c-2 -2 -4 -4 -7 -4s-6 2 -8 4c-46 61 -96 116 -152 168c-2 2 -3 4 -3 7z" fill="currentColor"/>
</g>
<g transform="translate(54.7012, 26.3892)">
<g>
<path transform="scale(0.0040, -0.0040)" d="M-44 146c26 76 84 153 152 153c22 0 36 -19 41 -43c23 25 53 43 82 43c23 0 37 -19 43 -44c22 26 51 44 80 44c33 0 59 -35 59 -69c0 -5 -1 -10 -2 -15l-35 -149c0 -2 -1 -4 -1 -5c0 -5 2 -8 7 -8c9 0 27 11 48 31c5 5 10 6 14 6c6 0 12 -4 12 -10c0 -4 -2 -8 -7 -13
c-40 -38 -87 -74 -133 -74c-20 0 -32 13 -32 32c0 4 0 7 1 11l39 165c1 5 2 9 2 14c0 10 -4 18 -14 18c-16 0 -33 -17 -39 -33l-52 -181c-3 -10 -15 -19 -25 -19h-38c-11 0 -17 8 -14 19l52 182c2 6 3 11 3 16c0 9 -4 16 -13 16c-16 0 -35 -16 -41 -33l-62 -181
c-4 -11 -15 -19 -26 -19h-38c-11 0 -16 8 -12 19l62 182c2 5 2 10 2 15c0 10 -3 17 -13 17c-29 0 -54 -53 -66 -87c-4 -12 -15 -18 -24 -18c-7 0 -13 3 -13 11c0 2 0 5 1 7z" fill="currentColor"/>

<path transform="translate(1.7451, 0.0000) scale(0.0040, -0.0040)" d="M233 243c-56 0 -102 -108 -102 -174c0 -22 8 -38 30 -38c63 0 97 127 97 179c0 18 -7 33 -25 33zM111 -146c-37 0 -76 5 -114 5s-79 -5 -115 -5c-9 0 -14 8 -14 15c0 19 30 16 48 17c23 1 47 7 54 27l101 296c2 7 5 14 5 20c0 8 -3 14 -11 14c-33 0 -61 -60 -77 -97
c-5 -13 -17 -19 -26 -19c-8 0 -15 5 -15 13c0 3 1 7 2 10c30 68 73 142 133 142c35 0 58 -22 65 -52c29 31 67 52 103 52c69 0 107 -49 107 -114c0 -21 -4 -44 -12 -67c-20 -58 -91 -120 -147 -120c-27 0 -52 6 -73 18c-10 6 -24 3 -27 -6l-27 -80c-1 -3 -2 -6 -2 -9
c0 -21 20 -28 43 -30c9 -1 13 -8 13 -15s-5 -15 -14 -15z" fill="currentColor"/>
</g>
</g>
<g transform="translate(56.2945, 14.8945)">
<path transform="scale(0.0040, -0.0040)" d="M-210 86c-9 2 -15 10 -15 19c0 12 12 23 25 19l405 -104c14 0 20 -6 20 -20s-6 -20 -20 -20l-405 -104c-13 -4 -25 7 -25 19c0 9 6 17 15 19l248 64l140 22l-140 22z" fill="currentColor"/>
</g>
<g transform="translate(57.4701, 17.1441)">
<path transform="scale(0.0040, -0.0040)" d="M0 0c0 31 25 56 56 56s55 -25 55 -56s-24 -56 -55 -56s-56 25 -56 56z" fill="currentColor"/>
</g>
<g transform="translate(55.6347, 17.6441)">
<rect x="-0.0697" y="-0.0000" width="0.1395" height="3.3750" ry="0.0444" fill="currentColor"/>
</g>
<g transform="translate(55.7044, 20.9747)">
<path transform="scale(0.0040, -0.0040)" d="M0 0h-18v250h18v-250zM0 0v250c96 59 222 149 222 259c0 57 -15 111 -40 162c-3 17 10 29 24 29c8 0 16 -5 21 -13c25 -56 40 -116 40 -178c0 -203 -267 -306 -267 -509z" fill="currentColor"/>
</g>
<g transform="translate(54.4149, 17.6441)">
<path transform="scale(0.0040, -0.0040)" d="M29 39l-2 -64v-11c0 -22 2 -43 5 -65c44 38 91 80 91 138c0 33 -13 66 -42 66c-31 0 -51 -31 -52 -64zM-28 454c9 5 18 8 28 8s19 -3 28 -8l-7 -343c25 23 58 36 92 36c51 0 87 -49 87 -103c0 -79 -84 -117 -144 -169c-16 -14 -25 -41 -47 -41c-14 0 -25 13 -25 27z" fill="currentColor"/>
</g>
<g transform="translate(65.7707, 17.6441)">
<path stroke-width="0.0858" stroke-linejoin="round" stroke-linecap="round" stroke="currentColor" fill="currentColor" d="M1.1153 2.0000C1.8349 2.7449 3.8804 2.7449 4.6000 2.0000L4.6000 2.0000C3.8804 2.6162 1.8349 2.6162 1.1153 2.0000z"/>
</g>
<g transform="translate(82.2264, 18.6441)">
<path transform="scale(0.0057, -0.0057)" d="M222 135c53 0 104 -27 104 -86c0 -71 -56 -120 -103 -148c-36 -22 -76 -36 -118 -36c-53 0 -105 27 -105 86c0 71 57 120 104 148c36 22 76 36 118 36z" fill="currentColor"/>
</g>
<g color="rgb(100.0000%, 100.0000%, 100.0000%)">
<g transform="translate(79.6595, 22.4230)">
<rect x="0.0000" y="-1.6188" width="6.9804" height="1.6500" ry="0.0000" fill="currentColor"/>
</g>
</g>
<g transform="translate(79.6595, 22.4230)">
<text font-family="serif" font-style="italic" font-size="2.2000" text-anchor="start" fill="currentColor">
<tspan>niente</tspan>
</text>
</g>
<g transform="translate(83.1497, 20.1441)">
<path transform="scale(0.0040, -0.0040)" d="M-50 0c0 28 22 50 50 50s50 -22 50 -50s-22 -50 -50 -50s-50 22 -50 50z" fill="currentColor"/>
</g>
<g transform="translate(84.0033, 17.6441)">
<rect x="-0.0697" y="-2.5000" width="0.1395" height="3.2218" ry="0.0444" fill="currentColor"/>
</g>
<g transform="translate(84.0731, 15.1886)">
<path transform="scale(0.0040, -0.0040)" d="M0 0c0 -197 207 -335 207 -532c0 -71 -15 -141 -41 -207c-5 -8 -13 -12 -21 -12c-14 0 -27 11 -24 28c26 60 42 125 42 191c0 103 -93 207 -163 282h-18v250h18z" fill="currentColor"/>
</g>
<g transform="translate(71.7341, 15.8405)">
<polygon stroke-linejoin="round" stroke-linecap="round" stroke-width="0.0889" fill="currentColor" stroke="currentColor" points="2.9769 0.5981 2.9769 1.0092 0.0444 0.2056 0.0444 -0.2056"/>
</g>
<g transform="translate(71.7341, 16.6441)">
<polygon stroke-linejoin="round" stroke-linecap="round" stroke-width="0.0889" fill="currentColor" stroke="currentColor" points="2.9769 0.5981 2.9769 1.0092 0.0444 0.2056 0.0444 -0.2056"/>
</g>
<g transform="translate(41.2591, 17.6441)">
<path stroke-width="0.0858" stroke-linejoin="round" stroke-linecap="round" stroke="currentColor" fill="currentColor" d="M0.2000 -1.1882C1.2354 -2.0745 5.8199 -2.0745 6.8553 -1.1882L6.8553 -1.1882C5.8199 -1.9457 1.2354 -1.9457 0.2000 -1.1882z"/>
</g>
<g transform="translate(19.7533, 17.6441)">
<path stroke-width="0.0858" stroke-linejoin="round" stroke-linecap="round" stroke="currentColor" fill="currentColor" d="M1.8379 -0.1960C2.6643 -0.9976 5.3775 -0.9976 6.2039 -0.1960L6.2039 -0.1960C5.3775 -0.8689 2.6643 -0.8689 1.8379 -0.1960z"/>
</g>
<g transform="translate(70.5707, 19.1441)">
<path transform="scale(0.0040, -0.0040)" d="M215 137c57 0 111 -29 111 -92c0 -71 -54 -120 -101 -148c-35 -21 -74 -34 -114 -34c-57 0 -111 29 -111 92c0 71 54 120 101 148c35 21 74 34 114 34z" fill="currentColor"/>
</g>
<g transform="translate(71.8038, 17.6441)">
<rect x="-0.0697" y="-1.7851" width="0.1395" height="3.1057" ry="0.0444" fill="currentColor"/>
</g>
<g transform="translate(73.7235, 20.6441)">
<path transform="scale(0.0032, -0.0032)" d="M93 50c-2 -3 -3 -7 -3 -10s1 -6 3 -9l94 -107c3 -3 7 -5 11 -5s7 2 10 5l24 26c2 3 3 7 3 10s-1 6 -3 9l-94 107c-3 3 -7 5 -11 5s-7 -2 -10 -5zM0 0c0 3 1 7 4 9c54 52 104 108 148 169c2 3 6 5 10 5s9 -2 11 -5c44 -61 94 -117 148 -169c2 -2 4 -6 4 -9s-2 -7 -4 -9
c-54 -52 -104 -108 -148 -169c-2 -3 -7 -5 -11 -5s-8 2 -10 5c-44 61 -94 117 -148 169c-2 2 -4 6 -4 9z" fill="currentColor"/>
</g>
<g color="rgb(100.0000%, 100.0000%, 100.0000%)">
<g transform="translate(70.7492, 24.9872)">
<rect x="0.0000" y="-1.6188" width="6.9804" height="1.6500" ry="0.0000" fill="currentColor"/>
</g>
</g>
<g transform="translate(70.7492, 24.9872)">
<text font-family="serif" font-style="italic" font-size="2.2000" text-anchor="start" fill="currentColor">
<tspan>niente</tspan>
</text>
</g>
<g transform="translate(74.2395, 22.4124)">
<path transform="scale(0.0040, -0.0040)" d="M-210 86c-9 2 -15 10 -15 19c0 12 12 23 25 19l405 -104c14 0 20 -6 20 -20s-6 -20 -20 -20l-405 -104c-13 -4 -25 7 -25 19c0 9 6 17 15 19l248 64l140 22l-140 22z" fill="currentColor"/>
</g>
<g transform="translate(74.6856, 17.6441)">
<rect x="-0.0697" y="-1.0186" width="0.1395" height="4.0186" ry="0.0444" fill="currentColor"/>
</g>
<g transform="translate(72.2735, 20.6441)">
<path transform="scale(0.0040, -0.0040)" d="M217 -311c0 -11 -8 -19 -19 -19s-20 8 -20 19v142l-81 -30v-156c0 -11 -9 -20 -20 -20s-19 9 -19 20v142l-28 -11c-3 -1 -5 -1 -8 -1c-12 0 -22 10 -22 23v57c0 9 6 18 15 21l43 16v157l-28 -10c-3 -1 -5 -1 -8 -1c-12 0 -22 9 -22 22v57c0 9 6 18 15 21l43 16v157
c0 11 8 19 19 19s20 -8 20 -19v-142l81 30v156c0 11 9 20 20 20s19 -9 19 -20v-142l28 11c3 1 5 1 8 1c12 0 22 -10 22 -23v-57c0 -9 -6 -18 -15 -21l-43 -16v-157l28 10c3 1 5 1 8 1c12 0 22 -9 22 -22v-57c0 -9 -6 -18 -15 -21l-43 -16v-157zM97 64v-158l81 30v158z" fill="currentColor"/>
</g>
<g transform="translate(76.4575, 16.1441)">
<path transform="scale(0.0040, -0.0040)" d="M-111 0c-10 0 -17 10 -13 19l112 248c2 5 7 8 12 8s10 -3 12 -8l112 -248c4 -9 -3 -19 -13 -19h-66c-5 0 -10 3 -12 8l-66 146l-66 -146c-2 -5 -7 -8 -12 -8z" fill="currentColor"/>
</g>
<g transform="translate(77.7955, 17.1441)">
<path transform="scale(0.0040, -0.0040)" d="M0 0c0 31 25 56 56 56s55 -25 55 -56s-24 -56 -55 -56s-56 25 -56 56z" fill="currentColor"/>
</g>
<g transform="translate(76.9035, 17.1441)">
<path transform="scale(0.0040, -0.0040)" d="M0 0c0 31 25 56 56 56s55 -25 55 -56s-24 -56 -55 -56s-56 25 -56 56z" fill="currentColor"/>
</g>
<g transform="translate(76.4575, 17.6441)">
<rect x="-0.0697" y="-0.0000" width="0.1395" height="3.3333" ry="0.0444" fill="currentColor"/>
</g>
<g transform="translate(75.2850, 17.6441)">
<path transform="scale(0.0040, -0.0040)" d="M29 39l-2 -64v-11c0 -22 2 -43 5 -65c44 38 91 80 91 138c0 33 -13 66 -42 66c-31 0 -51 -31 -52 -64zM-28 454c9 5 18 8 28 8s19 -3 28 -8l-7 -343c25 23 58 36 92 36c51 0 87 -49 87 -103c0 -79 -84 -117 -144 -169c-16 -14 -25 -41 -47 -41c-14 0 -25 13 -25 27z" fill="currentColor"/>
</g>
<g transform="translate(18.6033, 17.6441)">
<path transform="scale(0.0040, -0.0040)" d="M29 39l-2 -64v-11c0 -22 2 -43 5 -65c44 38 91 80 91 138c0 33 -13 66 -42 66c-31 0 -51 -31 -52 -64zM-28 454c9 5 18 8 28 8s19 -3 28 -8l-7 -343c25 23 58 36 92 36c51 0 87 -49 87 -103c0 -79 -84 -117 -144 -169c-16 -14 -25 -41 -47 -41c-14 0 -25 13 -25 27z" fill="currentColor"/>
</g>
<g transform="translate(12.7763, 21.9161)">
<g>
<path transform="scale(0.0040, -0.0040)" d="M-44 146c26 76 84 153 152 153c22 0 36 -19 41 -43c23 25 53 43 82 43c23 0 37 -19 43 -44c22 26 51 44 80 44c33 0 59 -35 59 -69c0 -5 -1 -10 -2 -15l-35 -149c0 -2 -1 -4 -1 -5c0 -5 2 -8 7 -8c9 0 27 11 48 31c5 5 10 6 14 6c6 0 12 -4 12 -10c0 -4 -2 -8 -7 -13
c-40 -38 -87 -74 -133 -74c-20 0 -32 13 -32 32c0 4 0 7 1 11l39 165c1 5 2 9 2 14c0 10 -4 18 -14 18c-16 0 -33 -17 -39 -33l-52 -181c-3 -10 -15 -19 -25 -19h-38c-11 0 -17 8 -14 19l52 182c2 6 3 11 3 16c0 9 -4 16 -13 16c-16 0 -35 -16 -41 -33l-62 -181
c-4 -11 -15 -19 -26 -19h-38c-11 0 -16 8 -12 19l62 182c2 5 2 10 2 15c0 10 -3 17 -13 17c-29 0 -54 -53 -66 -87c-4 -12 -15 -18 -24 -18c-7 0 -13 3 -13 11c0 2 0 5 1 7z" fill="currentColor"/>

<path transform="translate(1.7451, 0.0000) scale(0.0040, -0.0040)" d="M233 243c-56 0 -102 -108 -102 -174c0 -22 8 -38 30 -38c63 0 97 127 97 179c0 18 -7 33 -25 33zM111 -146c-37 0 -76 5 -114 5s-79 -5 -115 -5c-9 0 -14 8 -14 15c0 19 30 16 48 17c23 1 47 7 54 27l101 296c2 7 5 14 5 20c0 8 -3 14 -11 14c-33 0 -61 -60 -77 -97
c-5 -13 -17 -19 -26 -19c-8 0 -15 5 -15 13c0 3 1 7 2 10c30 68 73 142 133 142c35 0 58 -22 65 -52c29 31 67 52 103 52c69 0 107 -49 107 -114c0 -21 -4 -44 -12 -67c-20 -58 -91 -120 -147 -120c-27 0 -52 6 -73 18c-10 6 -24 3 -27 -6l-27 -80c-1 -3 -2 -6 -2 -9
c0 -21 20 -28 43 -30c9 -1 13 -8 13 -15s-5 -15 -14 -15z" fill="currentColor"/>
</g>
</g>
<g transform="translate(14.3697, 15.1441)">
<path transform="scale(0.0040, -0.0040)" d="M-50 0c0 28 22 50 50 50s50 -22 50 -50s-22 -50 -50 -50s-50 22 -50 50z" fill="currentColor"/>
</g>
<g transform="translate(13.8230, 17.6441)">
<rect x="-0.0697" y="-0.7812" width="0.1395" height="3.2812" ry="0.0444" fill="currentColor"/>
</g>
<g transform="translate(19.7533, 17.6441)">
<path transform="scale(0.0050, -0.0050)" d="M85 52c-1 -2 -3 -4 -3 -6s2 -4 3 -6l113 -124c2 -2 3 -3 6 -3s5 1 7 3l29 32c1 2 3 4 3 6s-2 4 -3 6l-113 124c-2 2 -3 3 -6 3s-5 -1 -7 -3zM0 0c0 2 0 4 2 6c56 52 108 108 154 169c2 2 3 3 6 3s5 -1 7 -3c46 -61 98 -117 154 -169c2 -2 2 -4 2 -6s0 -4 -2 -6
c-56 -52 -108 -108 -154 -169c-2 -2 -4 -3 -7 -3s-4 1 -6 3c-46 61 -98 117 -154 169c-2 2 -2 4 -2 6z" fill="currentColor"/>
</g>
<g color="rgb(100.0000%, 100.0000%, 100.0000%)">
<g transform="translate(17.0820, 23.1963)">
<rect x="0.0000" y="-1.6188" width="6.9804" height="1.6500" ry="0.0000" fill="currentColor"/>
</g>
</g>
<g transform="translate(17.0820, 23.1963)">
<text font-family="serif" font-style="italic" font-size="2.2000" text-anchor="start" fill="currentColor">
<tspan>niente</tspan>
</text>
</g>
<g transform="translate(20.5722, 14.8945)">
<path transform="scale(0.0040, -0.0040)" d="M-210 86c-9 2 -15 10 -15 19c0 12 12 23 25 19l405 -104c14 0 20 -6 20 -20s-6 -20 -20 -20l-405 -104c-13 -4 -25 7 -25 19c0 9 6 17 15 19l248 64l140 22l-140 22z" fill="currentColor"/>
</g>
<g transform="translate(19.8230, 17.6441)">
<rect x="-0.0697" y="-0.0000" width="0.1395" height="3.3333" ry="0.0444" fill="currentColor"/>
</g>
<g transform="translate(13.7533, 16.6441)">
<path transform="scale(0.0036, -0.0036)" d="M310 63c0 23 -19 40 -40 40c-4 0 -8 -1 -12 -2c-30 -8 -75 -38 -111 -61s-81 -52 -101 -76c-7 -8 -10 -17 -10 -27c0 -23 19 -40 40 -40c4 0 8 1 12 2c30 8 75 38 111 61s81 52 101 76c7 8 10 17 10 27zM256 138c50 0 90 -22 90 -77c0 -18 -5 -37 -10 -55
c-11 -38 -30 -74 -63 -96c-53 -35 -111 -48 -183 -48c-50 0 -90 22 -90 77c0 18 5 37 10 55c11 38 30 74 63 96c53 36 111 48 183 48z" fill="currentColor"/>
</g>
<g transform="translate(26.1571, 17.6441)">
<path transform="scale(0.0040, -0.0040)" d="M215 137c57 0 111 -29 111 -92c0 -71 -54 -120 -101 -148c-35 -21 -74 -34 -114 -34c-57 0 -111 29 -111 92c0 71 54 120 101 148c35 21 74 34 114 34z" fill="currentColor"/>
</g>
<g transform="translate(26.2269, 17.6441)">
<rect x="-0.0697" y="0.1794" width="0.1395" height="3.1956" ry="0.0444" fill="currentColor"/>
</g>
<g transform="translate(0.8000, 18.6441)">
<path transform="scale(0.0040, -0.0040)" d="M378 263c4 0 7 1 11 1c156 0 257 -129 257 -262c0 -76 -34 -154 -108 -210c-22 -17 -46 -29 -72 -37c3 -34 5 -68 5 -102c0 -20 -1 -40 -2 -60c-7 -121 -90 -228 -209 -228c-108 0 -196 87 -196 196c0 58 53 104 112 104c54 0 95 -48 95 -104c0 -52 -43 -95 -95 -95
c-10 0 -20 2 -29 6c26 -38 68 -63 116 -63h3c93 2 153 92 159 190c1 19 2 37 2 56c0 30 -2 60 -4 90c-29 -5 -58 -8 -88 -8c-188 0 -333 173 -333 375c0 177 130 307 246 442c-20 62 -38 125 -46 190c-6 52 -7 104 -7 157c0 115 55 223 148 290c7 5 16 4 22 -1
c71 -83 134 -244 134 -357c0 -143 -85 -255 -178 -364c21 -68 40 -137 57 -206zM462 -202c67 24 111 94 111 162c0 89 -65 178 -170 190c24 -115 46 -230 59 -352zM75 26c0 -134 129 -245 263 -245c28 0 55 2 81 6c-14 126 -36 244 -61 363c-79 -8 -124 -61 -124 -119
c0 -43 25 -89 80 -121c5 -5 7 -11 7 -16c0 -12 -10 -23 -22 -23c-3 0 -6 1 -9 2c-81 43 -118 116 -118 186c0 89 58 175 161 198c-14 58 -29 116 -46 173c-106 -122 -212 -244 -212 -404zM406 1042c-99 -47 -162 -148 -162 -257c0 -73 20 -132 38 -191
c79 97 144 199 144 324c0 53 -4 76 -20 124z" fill="currentColor"/>
</g>
<g color="rgb(100.0000%, 100.0000%, 100.0000%)">
<g transform="translate(0.0000, 25.3050)">
<rect x="0.0000" y="-1.6715" width="16.5026" height="2.1291" ry="0.0000" fill="currentColor"/>
</g>
</g>
<g transform="translate(0.0000, 25.3050)">
<text font-family="serif" font-style="italic" font-size="2.2000" text-anchor="start" fill="currentColor">
<tspan>appena udibile</tspan>
</text>
</g>
<g transform="translate(8.2513, 22.0471)">
<path transform="scale(0.0040, -0.0040)" d="M111 0c10 0 17 -10 13 -19l-112 -248c-2 -5 -7 -8 -12 -8s-10 3 -12 8l-112 248c-4 9 3 19 13 19h66c5 0 10 -3 12 -8l66 -146l66 146c2 5 7 8 12 8z" fill="currentColor"/>
</g>
<g transform="translate(8.6973, 20.1441)">
<path transform="scale(0.0040, -0.0040)" d="M0 0c0 31 25 56 56 56s55 -25 55 -56s-24 -56 -55 -56s-56 25 -56 56z" fill="currentColor"/>
</g>
<g transform="translate(8.2513, 17.6441)">
<rect x="-0.0697" y="-0.5000" width="0.1395" height="3.5000" ry="0.0444" fill="currentColor"/>
</g>
<g transform="translate(6.7316, 20.6441)">
<path transform="scale(0.0040, -0.0040)" d="M217 -311c0 -11 -8 -19 -19 -19s-20 8 -20 19v142l-81 -30v-156c0 -11 -9 -20 -20 -20s-19 9 -19 20v142l-28 -11c-3 -1 -5 -1 -8 -1c-12 0 -22 10 -22 23v57c0 9 6 18 15 21l43 16v157l-28 -10c-3 -1 -5 -1 -8 -1c-12 0 -22 9 -22 22v57c0 9 6 18 15 21l43 16v157
c0 11 8 19 19 19s20 -8 20 -19v-142l81 30v156c0 11 9 20 20 20s19 -9 19 -20v-142l28 11c3 1 5 1 8 1c12 0 22 -10 22 -23v-57c0 -9 -6 -18 -15 -21l-43 -16v-157l28 10c3 1 5 1 8 1c12 0 22 -9 22 -22v-57c0 -9 -6 -18 -15 -21l-43 -16v-157zM97 64v-158l81 30v158z" fill="currentColor"/>
</g>
<g transform="translate(41.2591, 15.1441)">
<path transform="scale(0.0040, -0.0040)" d="M-111 0c-10 0 -17 10 -13 19l112 248c2 5 7 8 12 8s10 -3 12 -8l112 -248c4 -9 -3 -19 -13 -19h-66c-5 0 -10 3 -12 8l-66 146l-66 -146c-2 -5 -7 -8 -12 -8z" fill="currentColor"/>
</g>
<g transform="translate(34.9046, 17.6441)">
<rect x="-0.0697" y="-3.0000" width="0.1395" height="3.3936" ry="0.0444" fill="currentColor"/>
</g>
<g transform="translate(34.9744, 14.6886)">
<path transform="scale(0.0040, -0.0040)" d="M0 -213c0 -116 88 -204 149 -301c5 14 8 30 8 45c0 95 -89 189 -157 256zM0 0c0 -177 201 -292 201 -469c0 -33 -9 -65 -23 -95c18 -36 29 -75 29 -117c0 -63 -15 -126 -41 -183c-5 -8 -13 -12 -21 -12c-14 0 -27 11 -24 28c26 52 42 109 42 167c0 96 -93 189 -163 256
v-75h-18v500h18z" fill="currentColor"/>
</g>
<g transform="translate(26.2966, 20.9747)">
<path transform="scale(0.0040, -0.0040)" d="M0 205c90 51 209 131 209 232c0 24 -4 47 -13 69c-79 -88 -196 -159 -196 -281v-20zM267 662c0 -44 -16 -81 -39 -115c16 -35 25 -72 25 -110c0 -180 -253 -257 -253 -437h-18v500h18v-70c96 49 222 128 222 232c0 21 -4 42 -13 61c-3 17 10 28 24 28c30 0 34 -63 34 -89
z" fill="currentColor"/>
</g>
<g transform="translate(36.4591, 17.1441)">
<path transform="scale(0.0057, -0.0057)" d="M83 52c-1 -1 -2 -3 -2 -5s1 -4 2 -5l117 -128c2 -2 3 -2 5 -2s4 0 6 2l31 34c1 1 2 3 2 5s-1 4 -2 5l-117 128c-2 2 -3 2 -5 2s-4 0 -6 -2zM0 0c0 2 1 4 2 5c56 52 108 108 155 169c1 2 3 3 5 3s5 -1 6 -3c47 -61 99 -117 155 -169c1 -1 2 -3 2 -5s-1 -4 -2 -5
c-56 -52 -108 -108 -155 -169c-1 -2 -4 -3 -6 -3s-4 1 -5 3c-47 61 -99 117 -155 169c-1 1 -2 3 -2 5z" fill="currentColor"/>
</g>
<g transform="translate(37.3783, 14.8945)">
<path transform="scale(0.0040, -0.0040)" d="M-210 86c-9 2 -15 10 -15 19c0 12 12 23 25 19l405 -104c14 0 20 -6 20 -20s-6 -20 -20 -20l-405 -104c-13 -4 -25 7 -25 19c0 9 6 17 15 19l248 64l140 22l-140 22z" fill="currentColor"/>
</g>
<g transform="translate(36.5288, 17.6441)">
<rect x="-0.0697" y="-0.5000" width="0.1395" height="3.5000" ry="0.0444" fill="currentColor"/>
</g>
<g color="rgb(100.0000%, 100.0000%, 100.0000%)">
<g transform="translate(37.7689, 26.8121)">
<rect x="0.0000" y="-1.6188" width="6.9804" height="1.6500" ry="0.0000" fill="currentColor"/>
</g>
</g>
<g transform="translate(37.7689, 26.8121)">
<text font-family="serif" font-style="italic" font-size="2.2000" text-anchor="start" fill="currentColor">
<tspan>niente</tspan>
</text>
</g>
<g transform="translate(41.2591, 17.6441)">
<rect x="-0.0697" y="-0.5000" width="0.1395" height="3.5000" ry="0.0444" fill="currentColor"/>
</g>
<g transform="translate(34.5167, 19.1441)">
<path transform="scale(0.0040, -0.0040)" d="M-50 0c0 28 22 50 50 50s50 -22 50 -50s-22 -50 -50 -50s-50 22 -50 50z" fill="currentColor"/>
</g>
<g transform="translate(27.0396, 22.4236)">
<g>
<path transform="scale(0.0040, -0.0040)" d="M-44 146c26 76 84 153 152 153c22 0 36 -19 41 -43c23 25 53 43 82 43c23 0 37 -19 43 -44c22 26 51 44 80 44c33 0 59 -35 59 -69c0 -5 -1 -10 -2 -15l-35 -149c0 -2 -1 -4 -1 -5c0 -5 2 -8 7 -8c9 0 27 11 48 31c5 5 10 6 14 6c6 0 12 -4 12 -10c0 -4 -2 -8 -7 -13
c-40 -38 -87 -74 -133 -74c-20 0 -32 13 -32 32c0 4 0 7 1 11l39 165c1 5 2 9 2 14c0 10 -4 18 -14 18c-16 0 -33 -17 -39 -33l-52 -181c-3 -10 -15 -19 -25 -19h-38c-11 0 -17 8 -14 19l52 182c2 6 3 11 3 16c0 9 -4 16 -13 16c-16 0 -35 -16 -41 -33l-62 -181
c-4 -11 -15 -19 -26 -19h-38c-11 0 -16 8 -12 19l62 182c2 5 2 10 2 15c0 10 -3 17 -13 17c-29 0 -54 -53 -66 -87c-4 -12 -15 -18 -24 -18c-7 0 -13 3 -13 11c0 2 0 5 1 7z" fill="currentColor"/>

<path transform="translate(1.7451, 0.0000) scale(0.0040, -0.0040)" d="M252 241l-49 -161c-30 -99 -121 -256 -218 -256c-46 0 -87 30 -87 73c0 39 17 77 52 77c24 0 44 -20 44 -44c0 -30 -38 -24 -38 -54c0 -10 11 -11 23 -11h6c47 0 61 56 73 105l68 271h-47c-11 0 -21 10 -21 21s10 21 21 21h58c32 95 119 189 213 189c46 0 87 -29 87 -72
c0 -39 -17 -78 -52 -78c-24 0 -44 20 -44 44c0 30 38 25 38 55c0 10 -10 10 -22 10h-7c-60 0 -70 -84 -86 -148h53c11 0 21 -10 21 -21s-10 -21 -21 -21h-65z" fill="currentColor"/>
</g>
</g>
<g transform="translate(28.5571, 16.1441)">
<path transform="scale(0.0040, -0.0040)" d="M-111 0c-10 0 -17 10 -13 19l112 248c2 5 7 8 12 8s10 -3 12 -8l112 -248c4 -9 -3 -19 -13 -19h-66c-5 0 -10 3 -12 8l-66 146l-66 -146c-2 -5 -7 -8 -12 -8z" fill="currentColor"/>
</g>
<g transform="translate(29.0031, 17.1441)">
<path transform="scale(0.0040, -0.0040)" d="M0 0c0 31 25 56 56 56s55 -25 55 -56s-24 -56 -55 -56s-56 25 -56 56z" fill="currentColor"/>
</g>
<g transform="translate(28.5571, 17.6441)">
<rect x="-0.0697" y="-0.5000" width="0.1395" height="3.5000" ry="0.0444" fill="currentColor"/>
</g>
<g color="rgb(100.0000%, 100.0000%, 100.0000%)">
<g transform="translate(31.0265, 22.7230)">
<rect x="0.0000" y="-1.6188" width="6.9804" height="1.6500" ry="0.0000" fill="currentColor"/>
</g>
</g>
<g transform="translate(31.0265, 22.7230)">
<text font-family="serif" font-style="italic" font-size="2.2000" text-anchor="start" fill="currentColor">
<tspan>niente</tspan>
</text>
</g>
<g transform="translate(34.0591, 18.1441)">
<path transform="scale(0.0028, -0.0028)" d="M204 141c63 0 120 -35 120 -103c0 -70 -50 -119 -97 -147c-33 -20 -70 -32 -108 -32c-63 0 -119 35 -119 103c0 70 49 119 96 147c33 20 70 32 108 32z" fill="currentColor"/>
</g>
</svg>
